<svg width="80" height="80" viewBox="0 0 80 80" fill="none" xmlns="http://www.w3.org/2000/svg">
<path fill-rule="evenodd" clip-rule="evenodd" d="M42.0849 8C51.4269 8 59 15.5731 59 24.9151V26.6214C59 35.9634 51.4269 43.5365 42.0849 43.5365H33.5888L22.2452 54.8801C21.9181 55.2072 21.3588 54.9755 21.3588 54.5129V43.4909C12.6013 42.8505 5.69521 35.5425 5.69521 26.6215V24.9151C5.69521 15.5731 13.2683 8 22.6103 8H42.0849Z" fill="#EEEBEA"/>
<g style="mix-blend-mode:multiply">
<path fill-rule="evenodd" clip-rule="evenodd" d="M38.4237 38C32.1148 38 27.0005 43.1143 27.0005 49.4232C27.0005 55.7321 32.1148 60.8464 38.4237 60.8464H43.5345L50.5108 67.8227C50.8379 68.1498 51.3972 67.9181 51.3972 67.4555V60.7421C56.9728 59.9856 61.2701 55.2063 61.2701 49.4232C61.2701 43.1143 56.1558 38 49.8469 38H38.4237Z" fill="#5DA283"/>
</g>
<path d="M69 61V47C69 39.8203 63.1797 34 56 34V34C48.8203 34 43 39.8203 43 47V61" stroke="#0D0E10" stroke-width="2"/>
<path d="M42 60V60C39.2386 60 37 57.7614 37 55L37 50C37 47.2386 39.2386 45 42 45V45L43 45" stroke="#0D0E10" stroke-width="2"/>
<path d="M69.4829 60.155V60.155C72.6613 60.155 75.2378 57.5785 75.2378 54.4001L75.2378 50.9472C75.2378 47.7689 72.6613 45.1924 69.4829 45.1924V45.1924L68.332 45.1924" stroke="#0D0E10" stroke-width="2"/>
<rect x="52.5518" y="69.3447" width="9.18966" height="5.65517" rx="2.82759" stroke="#0D0E10" stroke-width="2"/>
<path d="M69 61V65C69 68.866 65.866 72 62 72V72" stroke="#0D0E10" stroke-width="2"/>
<circle cx="22" cy="26" r="2" stroke="#0D0E10" stroke-width="2"/>
<circle cx="32" cy="26" r="2" stroke="#0D0E10" stroke-width="2"/>
<circle cx="42" cy="26" r="2" stroke="#0D0E10" stroke-width="2"/>
</svg>
