<svg width="40" height="40" viewBox="0 0 40 40" fill="none" xmlns="http://www.w3.org/2000/svg">
<g clip-path="url(#clip0)">
<path d="M5.03 16.38C2.25 16.38 0 18.63 0 21.41C0 24.19 2.25 26.44 5.03 26.44C7.81 26.44 10.06 24.19 10.06 21.41C10.06 18.63 7.81 16.38 5.03 16.38ZM5.03 23.93C3.64 23.93 2.51 22.8 2.51 21.41C2.51 20.02 3.64 18.89 5.03 18.89C6.42 18.89 7.55 20.02 7.55 21.41C7.55 22.8 6.42 23.93 5.03 23.93Z" fill="#007DC1"/>
<path d="M13.8701 23.1C13.8701 22.7 14.3501 22.51 14.6301 22.79C15.8901 24.07 17.9701 26.27 17.9801 26.28C18.0101 26.31 18.0401 26.36 18.1601 26.4C18.2101 26.42 18.2901 26.42 18.3801 26.42H20.6501C21.0601 26.42 21.1801 25.95 20.9901 25.71L17.2301 21.86L17.0301 21.66C16.6001 21.15 16.6501 20.95 17.1401 20.43L20.1201 17.1C20.3101 16.86 20.1901 16.4 19.7701 16.4H17.7101C17.6301 16.4 17.5701 16.4 17.5101 16.42C17.3901 16.46 17.3401 16.5 17.3101 16.54C17.3001 16.55 15.6501 18.33 14.6301 19.42C14.3501 19.72 13.8501 19.52 13.8501 19.11V13.4C13.8501 13.11 13.6101 13 13.4201 13H11.7401C11.4501 13 11.3101 13.19 11.3101 13.36V26.02C11.3101 26.31 11.5501 26.39 11.7501 26.39H13.4301C13.6901 26.39 13.8601 26.2 13.8601 26.01V25.88V23.1H13.8701Z" fill="#007DC1"/>
<path d="M27.59 25.96L27.41 24.28C27.39 24.05 27.17 23.89 26.94 23.93C26.81 23.95 26.68 23.96 26.55 23.96C25.21 23.96 24.12 22.91 24.04 21.58C24.04 21.54 24.04 21.49 24.04 21.44V19.38C24.04 19.11 24.24 18.89 24.51 18.89H26.76C26.92 18.89 27.16 18.75 27.16 18.46V16.87C27.16 16.56 26.96 16.4 26.78 16.4H24.51C24.25 16.4 24.04 16.21 24.03 15.95V13.4C24.03 13.24 23.91 13 23.6 13H21.93C21.72 13 21.52 13.13 21.52 13.39C21.52 13.39 21.52 21.54 21.52 21.58C21.59 24.3 23.82 26.47 26.55 26.47C26.78 26.47 27 26.45 27.22 26.42C27.46 26.39 27.62 26.19 27.59 25.96Z" fill="#007DC1"/>
<path d="M39.71 23.85C38.29 23.85 38.07 23.34 38.07 21.43C38.07 21.42 38.07 21.42 38.07 21.41V16.82C38.07 16.66 37.95 16.39 37.63 16.39H35.95C35.74 16.39 35.51 16.56 35.51 16.82V17.03C34.78 16.61 33.93 16.37 33.03 16.37C30.25 16.37 28 18.62 28 21.4C28 24.18 30.25 26.43 33.03 26.43C34.28 26.43 35.42 25.97 36.3 25.22C36.77 25.94 37.53 26.42 38.72 26.43C38.92 26.43 40 26.47 40 25.96V24.17C40 24.02 39.88 23.85 39.71 23.85ZM33.04 23.93C31.65 23.93 30.52 22.8 30.52 21.41C30.52 20.02 31.65 18.89 33.04 18.89C34.43 18.89 35.56 20.02 35.56 21.41C35.55 22.8 34.42 23.93 33.04 23.93Z" fill="#007DC1"/>
</g>
<defs>
<clipPath id="clip0">
<rect width="40" height="13.47" fill="white" transform="translate(0 13)"/>
</clipPath>
</defs>
</svg>
