<svg width="40" height="40" viewBox="0 0 40 40" fill="none" xmlns="http://www.w3.org/2000/svg">
<g clip-path="url(#clip0)">
<path d="M40 20.5349C40.0022 20.2221 39.8405 19.931 39.5739 19.7674H39.5693L39.5525 19.7581L25.6921 11.5535C25.6322 11.513 25.5701 11.4761 25.506 11.4428C24.9708 11.1667 24.3351 11.1667 23.8 11.4428C23.7359 11.4761 23.6738 11.513 23.6139 11.5535L9.75349 19.7581L9.73675 19.7674C9.31314 20.0309 9.18327 20.5878 9.4467 21.0115C9.52431 21.1363 9.63122 21.2403 9.75814 21.3144L23.6186 29.519C23.6787 29.5591 23.7408 29.5961 23.8047 29.6298C24.3398 29.9059 24.9755 29.9059 25.5107 29.6298C25.5746 29.5961 25.6367 29.5592 25.6968 29.519L39.5572 21.3144C39.8341 21.153 40.0031 20.8554 40 20.5349Z" fill="#0A2767"/>
<path d="M11.3693 15.0567H20.4651V23.3944H11.3693V15.0567ZM38.1395 6.58139V2.76743C38.1613 1.81386 37.4065 1.02285 36.453 1H12.8493C11.8957 1.02285 11.1409 1.81386 11.1628 2.76743V6.58139L25.1162 10.3023L38.1395 6.58139Z" fill="#0364B8"/>
<path d="M11.1628 6.58139H20.4651V14.9535H11.1628V6.58139Z" fill="#0078D4"/>
<path d="M29.7674 6.58139H20.4651V14.9535L29.7674 23.3256H38.1395V14.9535L29.7674 6.58139Z" fill="#28A8EA"/>
<path d="M20.4651 14.9535H29.7674V23.3256H20.4651V14.9535Z" fill="#0078D4"/>
<path d="M20.4651 23.3256H29.7674V31.6976H20.4651V23.3256Z" fill="#0364B8"/>
<path d="M11.3693 23.3944H20.4651V30.9739H11.3693V23.3944Z" fill="#14447D"/>
<path d="M29.7674 23.3256H38.1395V31.6976H29.7674V23.3256Z" fill="#0078D4"/>
<path d="M39.5739 21.2632L39.5562 21.2725L25.6958 29.0679C25.6353 29.1051 25.5739 29.1404 25.5097 29.172C25.2743 29.2842 25.0186 29.3474 24.7581 29.3581L24.0009 28.9153C23.9369 28.8832 23.8748 28.8475 23.8148 28.8083L9.76835 20.7916H9.76184L9.30231 20.5349V36.3153C9.30947 37.3682 10.1685 38.216 11.2214 38.2093H38.1106C38.1265 38.2093 38.1404 38.2018 38.1572 38.2018C38.3795 38.1876 38.5988 38.1419 38.8083 38.066C38.8989 38.0276 38.9863 37.9822 39.0697 37.9302C39.132 37.8949 39.239 37.8177 39.239 37.8177C39.7155 37.465 39.9976 36.9081 39.9999 36.3153V20.5349C39.9996 20.8367 39.8368 21.115 39.5739 21.2632Z" fill="url(#paint0_linear)"/>
<path opacity="0.5" d="M39.2558 20.4725V21.44L24.7628 31.4186L9.75811 20.7981C9.75811 20.793 9.75394 20.7888 9.74881 20.7888L8.37207 19.9609V19.2632L8.93952 19.2539L10.1395 19.9423L10.1674 19.9516L10.2697 20.0167C10.2697 20.0167 24.372 28.0632 24.4093 28.0818L24.9488 28.3981C24.9953 28.3795 25.0418 28.3609 25.0976 28.3423C25.1255 28.3237 39.0976 20.4632 39.0976 20.4632L39.2558 20.4725Z" fill="#0A2767"/>
<path d="M39.5739 21.2632L39.5562 21.2735L25.6958 29.0688C25.6353 29.106 25.5739 29.1413 25.5097 29.173C24.9714 29.4359 24.3419 29.4359 23.8037 29.173C23.7399 29.1414 23.6778 29.1066 23.6176 29.0688L9.75718 21.2735L9.74045 21.2632C9.47285 21.1181 9.30508 20.8392 9.30231 20.5349V36.3153C9.30897 37.368 10.1677 38.2159 11.2204 38.2093C11.2204 38.2093 11.2204 38.2093 11.2204 38.2093H38.0818C39.1345 38.216 39.9932 37.368 40 36.3154C40 36.3154 40 36.3154 40 36.3153V20.5349C39.9996 20.8367 39.8368 21.115 39.5739 21.2632Z" fill="#1490DF"/>
<path opacity="0.1" d="M25.8977 28.9535L25.6902 29.0697C25.6301 29.108 25.568 29.1431 25.5042 29.1749C25.2756 29.287 25.0271 29.3528 24.773 29.3683L30.0465 35.6046L39.2456 37.8214C39.4976 37.631 39.6981 37.3806 39.8288 37.093L25.8977 28.9535Z" fill="black"/>
<path opacity="0.05" d="M26.8372 28.4251L25.6902 29.0698C25.6301 29.108 25.568 29.1431 25.5042 29.1749C25.2756 29.287 25.0271 29.3528 24.773 29.3684L27.2437 36.1804L39.2483 37.8186C39.7213 37.4635 39.9997 36.9067 40 36.3153V36.1116L26.8372 28.4251Z" fill="black"/>
<path d="M11.2465 38.2092H38.079C38.4919 38.2113 38.8946 38.0809 39.2278 37.8372L24 28.9172C23.936 28.8851 23.8738 28.8494 23.8139 28.8102L9.76741 20.7935H9.7609L9.30231 20.5349V36.2614C9.30126 37.3361 10.1717 38.2082 11.2465 38.2092C11.2465 38.2092 11.2465 38.2092 11.2465 38.2092Z" fill="#28A8EA"/>
<path opacity="0.1" d="M22.3256 10.147V29.9888C22.3239 30.6845 21.9009 31.3098 21.2558 31.5702C21.056 31.6561 20.8407 31.7004 20.6232 31.7005H9.30231V9.37209H11.1628V8.44186H20.6232C21.563 8.44542 22.3235 9.2072 22.3256 10.147Z" fill="black"/>
<path opacity="0.2" d="M21.3953 11.0772V30.919C21.3977 31.1437 21.35 31.3662 21.2558 31.5702C20.9974 32.2069 20.3802 32.6247 19.693 32.6279H9.30231V9.37209H19.693C19.9629 9.36938 20.2289 9.43671 20.4651 9.56745C21.0353 9.85473 21.3951 10.4387 21.3953 11.0772Z" fill="black"/>
<path opacity="0.2" d="M21.3953 11.0772V29.0586C21.3908 29.9979 20.6323 30.7593 19.693 30.7674H9.30231V9.37209H19.693C19.9629 9.36938 20.2289 9.43671 20.4651 9.56745C21.0353 9.85473 21.3951 10.4387 21.3953 11.0772Z" fill="black"/>
<path opacity="0.2" d="M20.4651 11.0772V29.0586C20.4641 29.9994 19.7036 30.7628 18.7628 30.7674H9.30231V9.37207H18.7628C19.7034 9.37257 20.4656 10.1356 20.4651 11.0763C20.4651 11.0766 20.4651 11.0769 20.4651 11.0772Z" fill="black"/>
<path d="M1.70511 9.37207H18.76C19.7017 9.37207 20.4651 10.1355 20.4651 11.0772V28.1321C20.4651 29.0738 19.7017 29.8372 18.76 29.8372H1.70511C0.763394 29.8372 0 29.0737 0 28.1321V11.0772C0 10.1355 0.763416 9.37207 1.70511 9.37207Z" fill="url(#paint1_linear)"/>
<path d="M5.32931 16.5237C5.74956 15.6283 6.42789 14.879 7.27722 14.3721C8.2178 13.8336 9.28873 13.5651 10.3721 13.5963C11.3762 13.5745 12.367 13.829 13.2363 14.3321C14.0536 14.8195 14.7119 15.5336 15.1312 16.3879C15.5878 17.3292 15.8154 18.3651 15.7954 19.4111C15.8175 20.5043 15.5833 21.5875 15.1116 22.5739C14.6823 23.4587 14.0032 24.1983 13.1582 24.7014C12.2554 25.2198 11.2278 25.4811 10.187 25.4567C9.16144 25.4815 8.1488 25.224 7.25955 24.7125C6.43517 24.2245 5.76865 23.5095 5.33955 22.653C4.8802 21.7253 4.64991 20.701 4.66793 19.666C4.64879 18.5821 4.87489 17.5079 5.32931 16.5237ZM7.40559 21.5749C7.62965 22.1409 8.00962 22.6318 8.50139 22.9907C9.0023 23.3408 9.6021 23.5214 10.213 23.506C10.8636 23.5318 11.5049 23.345 12.04 22.9739C12.5255 22.6162 12.8955 22.124 13.1042 21.5581C13.3374 20.9262 13.4525 20.2568 13.4437 19.5832C13.4509 18.9033 13.3427 18.227 13.1237 17.5832C12.9303 17.002 12.5722 16.4895 12.093 16.1079C11.5714 15.7193 10.9318 15.5222 10.2818 15.5498C9.65769 15.5336 9.04446 15.7156 8.53023 16.0698C8.03013 16.4301 7.64295 16.9254 7.41395 17.4977C6.90595 18.8094 6.9033 20.2631 7.4065 21.5767L7.40559 21.5749Z" fill="white"/>
<path d="M29.7674 6.58139H38.1395V14.9535H29.7674V6.58139Z" fill="#50D9FF"/>
</g>
<defs>
<linearGradient id="paint0_linear" x1="24.6511" y1="20.5349" x2="24.6511" y2="38.2093" gradientUnits="userSpaceOnUse">
<stop stop-color="#35B8F1"/>
<stop offset="1" stop-color="#28A8EA"/>
</linearGradient>
<linearGradient id="paint1_linear" x1="3.5552" y1="8.03973" x2="16.9099" y2="31.1695" gradientUnits="userSpaceOnUse">
<stop stop-color="#1784D9"/>
<stop offset="0.5" stop-color="#107AD5"/>
<stop offset="1" stop-color="#0A63C9"/>
</linearGradient>
<clipPath id="clip0">
<rect width="40" height="37.2093" fill="white" transform="translate(0 1)"/>
</clipPath>
</defs>
</svg>
