<svg width="40" height="40" viewBox="0 0 40 40" fill="none" xmlns="http://www.w3.org/2000/svg">
<g clip-path="url(#clip0)">
<path d="M27.9005 14.9535H38.2326C39.2087 14.9535 40 15.7448 40 16.7209V26.1321C40 29.7196 37.0917 32.6279 33.5042 32.6279H33.4735C29.8859 32.6284 26.9773 29.7206 26.9767 26.133C26.9767 26.1327 26.9767 26.1324 26.9767 26.1321V15.8772C26.9768 15.3671 27.3903 14.9535 27.9005 14.9535Z" fill="#5059C9"/>
<path d="M34.8837 13.093C37.1956 13.093 39.0698 11.2189 39.0698 8.90696C39.0698 6.59507 37.1956 4.72092 34.8837 4.72092C32.5719 4.72092 30.6977 6.59507 30.6977 8.90696C30.6977 11.2189 32.5719 13.093 34.8837 13.093Z" fill="#5059C9"/>
<path d="M21.8605 13.093C25.1999 13.093 27.907 10.3859 27.907 7.04652C27.907 3.70712 25.1999 1 21.8605 1C18.5211 1 15.814 3.70712 15.814 7.04652C15.814 10.3859 18.5211 13.093 21.8605 13.093Z" fill="#7B83EB"/>
<path d="M29.9228 14.9535H12.8679C11.9034 14.9774 11.1404 15.7778 11.1628 16.7423V27.4763C11.0281 33.2644 15.6074 38.0677 21.3954 38.2093C27.1833 38.0677 31.7626 33.2644 31.6279 27.4763V16.7423C31.6503 15.7778 30.8873 14.9774 29.9228 14.9535Z" fill="#7B83EB"/>
<path opacity="0.1" d="M22.3256 14.9535V29.9954C22.321 30.6851 21.903 31.3048 21.2651 31.5674C21.062 31.6534 20.8438 31.6976 20.6233 31.6977H11.9814C11.8605 31.3907 11.7488 31.0837 11.6558 30.7675C11.3302 29.7 11.164 28.5904 11.1628 27.4744V16.7395C11.1404 15.7765 11.9021 14.9774 12.8651 14.9535H22.3256Z" fill="black"/>
<path opacity="0.2" d="M21.3954 14.9535V30.9256C21.3953 31.1461 21.351 31.3644 21.2651 31.5674C21.0025 32.2053 20.3828 32.6233 19.693 32.6279H12.4186C12.2605 32.3209 12.1116 32.014 11.9814 31.6977C11.8511 31.3814 11.7488 31.0837 11.6558 30.7675C11.3302 29.7001 11.164 28.5904 11.1628 27.4744V16.7395C11.1404 15.7765 11.9021 14.9774 12.8651 14.9535H21.3954Z" fill="black"/>
<path opacity="0.2" d="M21.3953 14.9535V29.0651C21.3882 30.0024 20.6302 30.7604 19.693 30.7675H11.6558C11.3302 29.7001 11.164 28.5904 11.1628 27.4744V16.7395C11.1404 15.7765 11.9021 14.9774 12.8651 14.9535H21.3953Z" fill="black"/>
<path opacity="0.2" d="M20.4651 14.9535V29.0651C20.458 30.0024 19.7 30.7604 18.7628 30.7675H11.6558C11.3302 29.7001 11.164 28.5904 11.1628 27.4744V16.7395C11.1404 15.7765 11.9021 14.9774 12.8651 14.9535H20.4651Z" fill="black"/>
<path opacity="0.1" d="M22.3256 10.1442V13.0744C22.1674 13.0837 22.0186 13.093 21.8605 13.093C21.7023 13.093 21.5535 13.0837 21.3953 13.0744C21.0813 13.0536 20.7699 13.0038 20.4651 12.9256C18.5814 12.4795 17.0251 11.1584 16.2791 9.37212C16.1507 9.07214 16.051 8.76066 15.9814 8.44189H20.6232C21.5619 8.44545 22.322 9.2055 22.3256 10.1442Z" fill="black"/>
<path opacity="0.2" d="M21.3954 11.0744V13.0744C21.0814 13.0536 20.77 13.0038 20.4652 12.9256C18.5814 12.4795 17.0252 11.1584 16.2791 9.3721H19.6931C20.6317 9.37565 21.3918 10.1357 21.3954 11.0744Z" fill="black"/>
<path opacity="0.2" d="M21.3954 11.0744V13.0744C21.0814 13.0536 20.77 13.0038 20.4652 12.9256C18.5814 12.4795 17.0252 11.1584 16.2791 9.3721H19.6931C20.6317 9.37565 21.3918 10.1357 21.3954 11.0744Z" fill="black"/>
<path opacity="0.2" d="M20.4651 11.0744V12.9256C18.5814 12.4795 17.0251 11.1584 16.2791 9.3721H18.7628C19.7015 9.37567 20.4615 10.1357 20.4651 11.0744Z" fill="black"/>
<path d="M1.70511 9.3721H18.76C19.7017 9.3721 20.4651 10.1355 20.4651 11.0772V28.1321C20.4651 29.0738 19.7017 29.8372 18.76 29.8372H1.70511C0.763395 29.8372 0 29.0738 0 28.1321V11.0772C0 10.1355 0.763413 9.3721 1.70511 9.3721Z" fill="url(#paint0_linear)"/>
<path d="M14.72 15.8633H11.3107V25.147H9.13861V15.8633H5.74512V14.0623H14.72V15.8633Z" fill="white"/>
</g>
<defs>
<linearGradient id="paint0_linear" x1="3.55521" y1="8.03976" x2="16.9099" y2="31.1696" gradientUnits="userSpaceOnUse">
<stop stop-color="#5A62C3"/>
<stop offset="0.5" stop-color="#4D55BD"/>
<stop offset="1" stop-color="#3940AB"/>
</linearGradient>
<clipPath id="clip0">
<rect width="40" height="37.2093" fill="white" transform="translate(0 1)"/>
</clipPath>
</defs>
</svg>
