<svg width="140" height="80" viewBox="0 0 140 80" fill="none" xmlns="http://www.w3.org/2000/svg">
<g clip-path="url(#clip0)">
<g clip-path="url(#clip1)">
<rect width="80" height="80.0003" fill="#EEEBEA"/>
<circle cx="39.5239" cy="39.5239" r="14.5239" fill="#F1BD6C"/>
<path d="M62 81.2858C62 69.9771 52.3741 60.8096 40.5 60.8096C28.6259 60.8096 19 69.9771 19 81.2858" stroke="#0D0E10" stroke-width="2"/>
</g>
<path d="M64.3354 27.812V31.808H79.3834L66.4234 56H71.5354L84.4594 31.448V27.812H64.3354ZM106.812 48.008C106.812 44.408 104.688 42.5 101.952 41.456V41.42C104.328 40.268 106.2 38.432 106.2 34.976C106.2 30.692 102.708 27.344 96.6598 27.344C90.4318 27.344 87.4798 31.232 86.8318 34.904L91.0438 35.84C91.5118 32.816 93.8878 31.304 96.6598 31.304C99.8638 31.304 101.592 32.996 101.592 35.444C101.592 37.712 99.5758 39.656 96.6598 39.656H93.8878V43.652H96.9118C100.08 43.652 102.168 45.308 102.168 48.08C102.168 50.564 99.8278 52.328 96.8398 52.328C94.7518 52.328 91.3678 51.248 90.8638 47.468L86.6158 48.368C87.4798 53.984 92.3398 56.324 96.7318 56.324C102.744 56.324 106.812 52.364 106.812 48.008ZM122.54 33.896C122.54 30.368 119.696 27.524 116.168 27.524C112.676 27.524 109.832 30.368 109.832 33.896C109.832 37.388 112.676 40.268 116.168 40.268C119.696 40.268 122.54 37.388 122.54 33.896ZM135.536 27.812H131.324L112.964 56H117.212L135.536 27.812ZM118.94 33.896C118.94 35.408 117.68 36.632 116.168 36.632C114.656 36.632 113.432 35.408 113.432 33.896C113.432 32.384 114.656 31.16 116.168 31.16C117.68 31.16 118.94 32.384 118.94 33.896ZM138.668 49.844C138.668 46.316 135.824 43.472 132.332 43.472C128.804 43.472 125.96 46.316 125.96 49.844C125.96 53.336 128.804 56.18 132.332 56.18C135.824 56.18 138.668 53.336 138.668 49.844ZM135.068 49.844C135.068 51.356 133.844 52.58 132.332 52.58C130.82 52.58 129.56 51.356 129.56 49.844C129.56 48.332 130.82 47.108 132.332 47.108C133.844 47.108 135.068 48.332 135.068 49.844Z" fill="#0D0E10"/>
</g>
<defs>
<clipPath id="clip0">
<rect width="140" height="80" fill="white"/>
</clipPath>
<clipPath id="clip1">
<rect width="80" height="80.0003" fill="white"/>
</clipPath>
</defs>
</svg>
