<svg width="40" height="40" viewBox="0 0 40 40" fill="none" xmlns="http://www.w3.org/2000/svg">
<g clip-path="url(#clip0)">
<path d="M8.40391 25.2769C8.40391 27.5896 6.51466 29.4788 4.20195 29.4788C1.88925 29.4788 0 27.5896 0 25.2769C0 22.9642 1.88925 21.0749 4.20195 21.0749H8.40391V25.2769Z" fill="#E01E5A"/>
<path d="M10.5212 25.2769C10.5212 22.9642 12.4104 21.0749 14.7231 21.0749C17.0358 21.0749 18.9251 22.9642 18.9251 25.2769V35.798C18.9251 38.1107 17.0358 40 14.7231 40C12.4104 40 10.5212 38.1107 10.5212 35.798V25.2769Z" fill="#E01E5A"/>
<path d="M14.7231 8.40391C12.4104 8.40391 10.5212 6.51466 10.5212 4.20195C10.5212 1.88925 12.4104 0 14.7231 0C17.0358 0 18.9251 1.88925 18.9251 4.20195V8.40391H14.7231Z" fill="#36C5F0"/>
<path d="M14.7231 10.5212C17.0358 10.5212 18.9251 12.4104 18.9251 14.7231C18.9251 17.0358 17.0358 18.9251 14.7231 18.9251H4.20196C1.88925 18.9251 0 17.0358 0 14.7231C0 12.4104 1.88925 10.5212 4.20196 10.5212H14.7231Z" fill="#36C5F0"/>
<path d="M31.5961 14.7231C31.5961 12.4104 33.4853 10.5212 35.798 10.5212C38.1107 10.5212 40 12.4104 40 14.7231C40 17.0358 38.1107 18.9251 35.798 18.9251H31.5961V14.7231Z" fill="#2EB67D"/>
<path d="M29.4788 14.7231C29.4788 17.0358 27.5895 18.9251 25.2768 18.9251C22.9641 18.9251 21.0749 17.0358 21.0749 14.7231V4.20196C21.0749 1.88925 22.9641 0 25.2768 0C27.5895 0 29.4788 1.88925 29.4788 4.20196V14.7231Z" fill="#2EB67D"/>
<path d="M25.2768 31.5961C27.5895 31.5961 29.4788 33.4853 29.4788 35.798C29.4788 38.1107 27.5895 40 25.2768 40C22.9641 40 21.0749 38.1107 21.0749 35.798V31.5961H25.2768Z" fill="#ECB22E"/>
<path d="M25.2768 29.4788C22.9641 29.4788 21.0749 27.5896 21.0749 25.2769C21.0749 22.9642 22.9641 21.0749 25.2768 21.0749H35.798C38.1107 21.0749 40 22.9642 40 25.2769C40 27.5896 38.1107 29.4788 35.798 29.4788H25.2768Z" fill="#ECB22E"/>
</g>
<defs>
<clipPath id="clip0">
<rect width="40" height="40" fill="white"/>
</clipPath>
</defs>
</svg>
