<svg width="40" height="40" viewBox="0 0 40 40" fill="none" xmlns="http://www.w3.org/2000/svg">
<path d="M16.6488 9.06462C17.9375 7.72441 19.7318 6.89325 21.7161 6.89325C24.3539 6.89325 26.6553 8.36128 27.8808 10.5406C28.9459 10.0656 30.1248 9.80146 31.3651 9.80146C36.1227 9.80146 39.9799 13.6846 39.9799 18.4744C39.9799 23.2648 36.1227 27.1479 31.3651 27.1479C30.7845 27.1479 30.217 27.09 29.6683 26.9792C28.589 28.9006 26.5323 30.1987 24.1718 30.1987C23.1836 30.1987 22.2489 29.9709 21.4167 29.5658C20.3226 32.1343 17.7736 33.9352 14.8028 33.9352C11.709 33.9352 9.07234 31.9815 8.06027 29.2414C7.61796 29.3352 7.15971 29.3841 6.68954 29.3841C3.00605 29.3841 0.0198669 26.373 0.0198669 22.658C0.0198669 20.1686 1.36154 17.9949 3.35499 16.832C2.94458 15.8895 2.71632 14.8492 2.71632 13.7556C2.71632 9.48332 6.19147 6.02005 10.4777 6.02005C12.9943 6.02005 15.2309 7.21424 16.6488 9.06462Z" fill="#00A1E0"/>
<path d="M5.80673 20.4961C5.78168 20.5614 5.81584 20.5751 5.8238 20.5865C5.89894 20.641 5.97522 20.6802 6.05206 20.7239C6.45964 20.9398 6.84444 21.0029 7.24688 21.0029C8.0666 21.0029 8.57544 20.5677 8.57544 19.8672V19.8536C8.57544 19.2059 8.00112 18.9707 7.46204 18.8009L7.392 18.7781C6.9856 18.6463 6.63495 18.5327 6.63495 18.2657V18.2514C6.63495 18.0231 6.83988 17.8549 7.15747 17.8549C7.51046 17.8549 7.9294 17.9719 8.19923 18.1208C8.19923 18.1208 8.27832 18.1719 8.30737 18.0952C8.3233 18.0543 8.45993 17.6873 8.47411 17.6475C8.48947 17.6044 8.46218 17.5726 8.43432 17.5555C8.12632 17.3686 7.70056 17.2408 7.26 17.2408L7.17803 17.2413C6.42775 17.2413 5.90406 17.6936 5.90406 18.3418V18.3555C5.90406 19.0389 6.48183 19.2604 7.02316 19.415L7.11025 19.4417C7.50477 19.5627 7.84456 19.6667 7.84456 19.9439V19.9576C7.84456 20.2109 7.62372 20.3995 7.26737 20.3995C7.12905 20.3995 6.6879 20.3967 6.21145 20.0962C6.15396 20.0626 6.12037 20.0382 6.07597 20.0115C6.05263 19.9967 5.99401 19.9712 5.96839 20.0484L5.80673 20.4961Z" fill="white"/>
<path d="M17.8058 20.4961C17.7807 20.5614 17.8149 20.5751 17.8229 20.5865C17.898 20.641 17.9742 20.6802 18.0511 20.7239C18.4587 20.9398 18.8435 21.0029 19.246 21.0029C20.0656 21.0029 20.5745 20.5677 20.5745 19.8672V19.8536C20.5745 19.2059 20.0001 18.9707 19.4611 18.8009L19.3911 18.7781C18.9846 18.6463 18.634 18.5327 18.634 18.2657V18.2514C18.634 18.0231 18.8389 17.8549 19.1566 17.8549C19.5095 17.8549 19.9284 17.9719 20.1982 18.1208C20.1982 18.1208 20.2774 18.1719 20.3064 18.0952C20.3224 18.0543 20.4589 17.6873 20.4732 17.6475C20.4886 17.6044 20.4613 17.5726 20.4333 17.5555C20.1254 17.3686 19.6996 17.2408 19.259 17.2408L19.1771 17.2413C18.4268 17.2413 17.9031 17.6936 17.9031 18.3418V18.3555C17.9031 19.0389 18.4809 19.2604 19.0222 19.415L19.1093 19.4417C19.5038 19.5627 19.8442 19.6667 19.8442 19.9439V19.9576C19.8442 20.2109 19.6227 20.3995 19.2665 20.3995C19.1281 20.3995 18.6869 20.3967 18.2105 20.0962C18.153 20.0626 18.1189 20.0393 18.0756 20.0115C18.0608 20.0018 17.9914 19.9752 17.9674 20.0484L17.8058 20.4961Z" fill="white"/>
<path d="M25.9952 19.1237C25.9952 19.5197 25.9212 19.8316 25.7754 20.052C25.6314 20.2702 25.4134 20.3764 25.1095 20.3764C24.8049 20.3764 24.588 20.2707 24.4463 20.052C24.3029 19.8321 24.23 19.5197 24.23 19.1237C24.23 18.7283 24.3029 18.4169 24.4463 18.1988C24.588 17.9829 24.8049 17.8778 25.1095 17.8778C25.4134 17.8778 25.6314 17.9829 25.776 18.1988C25.9212 18.4169 25.9952 18.7283 25.9952 19.1237ZM26.6794 18.3897C26.6122 18.163 26.5075 17.963 26.368 17.7966C26.2286 17.6295 26.0521 17.4954 25.8426 17.3978C25.6337 17.3006 25.3867 17.2512 25.1095 17.2512C24.8316 17.2512 24.5846 17.3006 24.3757 17.3978C24.1662 17.4954 23.9898 17.6295 23.8498 17.7966C23.7109 17.9636 23.6061 18.1636 23.5384 18.3897C23.4718 18.6152 23.4382 18.8618 23.4382 19.1237C23.4382 19.3856 23.4718 19.6327 23.5384 19.8577C23.6061 20.0838 23.7102 20.2838 23.8503 20.4508C23.9897 20.6178 24.1668 20.7514 24.3757 20.8462C24.5852 20.9411 24.8316 20.9894 25.1095 20.9894C25.3867 20.9894 25.6331 20.9411 25.8426 20.8462C26.0515 20.7514 26.2286 20.6178 26.368 20.4508C26.5075 20.2844 26.6122 20.0844 26.6794 19.8577C26.7465 19.6321 26.7801 19.385 26.7801 19.1237C26.7801 18.8623 26.7465 18.6152 26.6794 18.3897Z" fill="white"/>
<path d="M32.3032 20.2712C32.2805 20.2046 32.2161 20.2297 32.2161 20.2297C32.1166 20.2677 32.0107 20.3029 31.898 20.3206C31.7836 20.3382 31.6577 20.3472 31.5229 20.3472C31.1916 20.3472 30.9286 20.249 30.7401 20.0547C30.5511 19.8603 30.4453 19.5462 30.4464 19.1213C30.4476 18.7344 30.5409 18.4435 30.7088 18.2219C30.8756 18.0015 31.1295 17.8884 31.4682 17.8884C31.7505 17.8884 31.9657 17.9208 32.1911 17.9918C32.1911 17.9918 32.2452 18.0151 32.2708 17.9447C32.3306 17.7788 32.3749 17.6601 32.4387 17.4777C32.4569 17.426 32.4126 17.4038 32.3966 17.3975C32.3078 17.3629 32.0983 17.3067 31.9401 17.2828C31.7921 17.2601 31.619 17.2481 31.4267 17.2481C31.1392 17.2481 30.883 17.297 30.6639 17.3947C30.4453 17.4919 30.2597 17.626 30.1128 17.793C29.966 17.96 29.8544 18.16 29.7799 18.3861C29.7059 18.6116 29.6683 18.8594 29.6683 19.1213C29.6683 19.6876 29.8214 20.1455 30.1237 20.4808C30.4265 20.8171 30.8813 20.9881 31.4744 20.9881C31.8251 20.9881 32.1848 20.9171 32.4433 20.8154C32.4433 20.8154 32.4928 20.7915 32.4712 20.7342L32.3032 20.2712Z" fill="white"/>
<path d="M33.4986 18.7446C33.531 18.5248 33.5919 18.3418 33.6859 18.1992C33.8276 17.9828 34.0439 17.8641 34.3479 17.8641C34.6519 17.8641 34.8528 17.9834 34.9968 18.1992C35.0924 18.3418 35.134 18.5328 35.1505 18.7446H33.4986ZM35.8023 18.2612C35.7442 18.0425 35.6002 17.8215 35.5057 17.7203C35.3566 17.5601 35.2109 17.4482 35.0662 17.3857C34.8773 17.3051 34.6507 17.2516 34.4025 17.2516C34.1133 17.2516 33.8509 17.2999 33.638 17.3999C33.4246 17.4999 33.2453 17.6363 33.1047 17.8061C32.9641 17.9754 32.8582 18.1771 32.791 18.406C32.7233 18.6339 32.6891 18.8822 32.6891 19.1441C32.6891 19.4105 32.7244 19.6587 32.7945 19.882C32.865 20.107 32.9777 20.3053 33.1303 20.4695C33.2823 20.6348 33.4781 20.7643 33.7126 20.8547C33.9455 20.9444 34.2283 20.991 34.5534 20.9905C35.2222 20.9882 35.5746 20.8394 35.7197 20.7592C35.7453 20.7451 35.7698 20.72 35.7391 20.6484L35.5877 20.2252C35.5649 20.1621 35.5006 20.1854 35.5006 20.1854C35.3349 20.2468 35.0993 20.357 34.55 20.3559C34.1908 20.3553 33.9243 20.2496 33.7576 20.0843C33.5862 19.915 33.5026 19.6662 33.4878 19.3151L35.804 19.3173C35.804 19.3173 35.8649 19.3162 35.8712 19.2571C35.8735 19.2321 35.9509 18.7822 35.8023 18.2612Z" fill="white"/>
<path d="M14.9507 18.7446C14.9838 18.5248 15.0441 18.3418 15.138 18.1992C15.2798 17.9828 15.4961 17.8641 15.8001 17.8641C16.104 17.8641 16.305 17.9834 16.4495 18.1992C16.5446 18.3418 16.5862 18.5328 16.6027 18.7446H14.9507ZM17.2539 18.2612C17.1958 18.0425 17.0523 17.8215 16.9579 17.7203C16.8087 17.5601 16.663 17.4482 16.5184 17.3857C16.3295 17.3051 16.1029 17.2516 15.8547 17.2516C15.5661 17.2516 15.3031 17.2999 15.0902 17.3999C14.8768 17.4999 14.6975 17.6363 14.5568 17.8061C14.4163 17.9754 14.3104 18.1771 14.2432 18.406C14.176 18.6339 14.1413 18.8822 14.1413 19.1441C14.1413 19.4105 14.1766 19.6587 14.2466 19.882C14.3172 20.107 14.4299 20.3053 14.5825 20.4695C14.7345 20.6348 14.9302 20.7643 15.1648 20.8547C15.3976 20.9444 15.6805 20.991 16.0055 20.9905C16.6744 20.9882 17.0267 20.8394 17.1719 20.7592C17.1975 20.7451 17.222 20.72 17.1912 20.6484L17.0404 20.2252C17.017 20.1621 16.9528 20.1854 16.9528 20.1854C16.7871 20.2468 16.552 20.357 16.0015 20.3559C15.6429 20.3553 15.3766 20.2496 15.2097 20.0843C15.0385 19.915 14.9547 19.6662 14.9399 19.3151L17.2561 19.3173C17.2561 19.3173 17.317 19.3162 17.3233 19.2571C17.3256 19.2321 17.403 18.7822 17.2539 18.2612Z" fill="white"/>
<path d="M9.94472 20.2583C9.85419 20.1861 9.8417 20.1679 9.81096 20.1213C9.76542 20.0503 9.74205 19.9492 9.74205 19.8209C9.74205 19.6174 9.80921 19.4715 9.94872 19.3731C9.94696 19.3737 10.1479 19.1999 10.6204 19.2061C10.9522 19.2107 11.2489 19.2595 11.2489 19.2595V20.3105H11.2494C11.2494 20.3105 10.9551 20.3736 10.6238 20.3935C10.1525 20.4219 9.94303 20.2577 9.94472 20.2583ZM10.8663 18.634C10.7724 18.6272 10.6505 18.6232 10.5049 18.6232C10.3062 18.6232 10.1143 18.6482 9.93447 18.6965C9.75342 18.7448 9.59068 18.8204 9.45061 18.9204C9.30998 19.0209 9.19671 19.1493 9.11475 19.3016C9.03279 19.4538 8.99124 19.6333 8.99124 19.8345C8.99124 20.039 9.02654 20.2168 9.09714 20.3623C9.16773 20.5083 9.26963 20.6298 9.39938 20.7236C9.52801 20.8173 9.68682 20.886 9.87131 20.9275C10.0529 20.969 10.259 20.99 10.4844 20.99C10.7217 20.99 10.9585 20.9708 11.1879 20.9315C11.415 20.8929 11.694 20.8366 11.7714 20.819C11.8482 20.8009 11.9336 20.7776 11.9336 20.7776C11.9911 20.7634 11.9865 20.702 11.9865 20.702L11.9854 18.588C11.9854 18.1244 11.8613 17.7806 11.6171 17.5677C11.374 17.3552 11.016 17.2478 10.5532 17.2478C10.3796 17.2478 10.1001 17.2717 9.93279 17.3051C9.93279 17.3051 9.42668 17.4029 9.2184 17.5653C9.2184 17.5653 9.17286 17.5938 9.19791 17.6574L9.36184 18.0971C9.38233 18.1539 9.43749 18.1346 9.43749 18.1346C9.43749 18.1346 9.45517 18.1278 9.47566 18.1159C9.92135 17.8738 10.4849 17.8812 10.4849 17.8812C10.7354 17.8812 10.9278 17.9312 11.0576 18.0307C11.1839 18.1272 11.2482 18.2733 11.2482 18.5812V18.6789C11.049 18.6505 10.8663 18.634 10.8663 18.634Z" fill="white"/>
<path d="M29.5474 17.4429C29.5651 17.3906 29.5281 17.3656 29.5127 17.3599C29.4735 17.3446 29.2765 17.3031 29.1245 17.2935C28.8336 17.2759 28.672 17.3247 28.5274 17.3895C28.3839 17.4543 28.2246 17.5587 28.1358 17.6775V17.3963C28.1358 17.3571 28.1079 17.3258 28.0692 17.3258H27.4754C27.4368 17.3258 27.4088 17.3571 27.4088 17.3963V20.8442C27.4088 20.8828 27.4407 20.9147 27.4794 20.9147H28.0879C28.1267 20.9147 28.158 20.8828 28.158 20.8442V19.1217C28.158 18.8905 28.1836 18.6598 28.2348 18.5149C28.2849 18.3717 28.3532 18.257 28.4375 18.1746C28.5222 18.0928 28.6185 18.0354 28.7238 18.003C28.8314 17.9701 28.9503 17.9593 29.0346 17.9593C29.1558 17.9593 29.2891 17.9905 29.2891 17.9905C29.3334 17.9957 29.3585 17.9684 29.3733 17.928C29.4131 17.8224 29.5258 17.5059 29.5474 17.4429Z" fill="white"/>
<path d="M23.8342 15.8448C23.7603 15.8221 23.693 15.8067 23.6054 15.7903C23.5166 15.7744 23.4107 15.7664 23.2907 15.7664C22.8717 15.7664 22.5415 15.8846 22.3099 16.1175C22.0793 16.3493 21.9228 16.7021 21.8442 17.1662L21.8158 17.3225H21.2898C21.2898 17.3225 21.226 17.3202 21.2124 17.3895L21.1264 17.8707C21.1202 17.9162 21.1401 17.9452 21.2015 17.9452H21.7133L21.1942 20.838C21.1537 21.0709 21.1071 21.2624 21.0553 21.4079C21.0046 21.551 20.9551 21.6584 20.8936 21.7368C20.8344 21.8118 20.7787 21.8675 20.6819 21.8999C20.6022 21.9265 20.51 21.9391 20.4092 21.9391C20.3534 21.9391 20.2789 21.93 20.2236 21.9186C20.169 21.9078 20.14 21.8959 20.0984 21.8782C20.0984 21.8782 20.0387 21.8556 20.0147 21.9152C19.9959 21.9646 19.8594 22.339 19.8428 22.385C19.8269 22.431 19.8497 22.4669 19.8787 22.4776C19.947 22.5015 19.9977 22.5174 20.0904 22.5396C20.2191 22.5697 20.3278 22.5714 20.4297 22.5714C20.6426 22.5714 20.8373 22.5413 20.9984 22.4833C21.16 22.4248 21.3012 22.3231 21.4264 22.1856C21.5613 22.0368 21.6462 21.8811 21.7269 21.6681C21.8072 21.4579 21.8761 21.1965 21.9307 20.892L22.4527 17.9452H23.2155C23.2155 17.9452 23.2798 17.9474 23.2929 17.8775L23.3794 17.3969C23.3851 17.3509 23.3657 17.3225 23.3037 17.3225H22.5631C22.5671 17.306 22.6007 17.0458 22.6855 16.801C22.722 16.697 22.7903 16.6123 22.8478 16.5544C22.9047 16.4976 22.9702 16.4573 23.0419 16.434C23.1153 16.4101 23.199 16.3987 23.2907 16.3987C23.3601 16.3987 23.429 16.4067 23.4808 16.4175C23.5525 16.4328 23.5803 16.4408 23.5991 16.4464C23.6749 16.4692 23.6851 16.447 23.6999 16.4107L23.8769 15.9255C23.8951 15.8733 23.8502 15.8511 23.8342 15.8448Z" fill="white"/>
<path d="M13.4881 20.8441C13.4881 20.8827 13.4601 20.914 13.4215 20.914H12.8072C12.7685 20.914 12.7412 20.8827 12.7412 20.8441V15.9105C12.7412 15.8719 12.7685 15.8406 12.8072 15.8406H13.4215C13.4601 15.8406 13.4881 15.8719 13.4881 15.9105V20.8441Z" fill="white"/>
</svg>
