<svg width="40" height="40" viewBox="0 0 40 40" fill="none" xmlns="http://www.w3.org/2000/svg">
<g clip-path="url(#clip0)">
<path d="M34.3656 4.28491H17.167C17.167 6.34397 17.985 8.3187 19.4409 9.77468C20.8969 11.2307 22.8716 12.0486 24.9307 12.0486H28.0989V15.1075C28.1017 19.3914 31.5737 22.8636 35.8575 22.8663V5.77689C35.8575 4.95313 35.1897 4.28491 34.3656 4.28491Z" fill="#2684FF"/>
<path d="M25.8557 12.8543H8.65732C8.65998 17.1382 12.132 20.6103 16.416 20.6131H19.5842V23.6818C19.5896 27.9657 23.064 31.4355 27.3479 31.4355V14.3466C27.3479 13.5225 26.6798 12.8544 25.8557 12.8544V12.8543Z" fill="url(#paint0_linear)"/>
<path d="M17.341 21.4189H0.142456C0.142456 25.7066 3.61851 29.1826 7.90616 29.1826H11.0843V32.2413C11.0871 36.5213 14.553 39.9919 18.8331 40V22.911C18.8331 22.0869 18.1651 21.4189 17.341 21.4189Z" fill="url(#paint1_linear)"/>
</g>
<defs>
<linearGradient id="paint0_linear" x1="26.9798" y1="12.8842" x2="19.7083" y2="20.4718" gradientUnits="userSpaceOnUse">
<stop offset="0.18" stop-color="#0052CC"/>
<stop offset="1" stop-color="#2684FF"/>
</linearGradient>
<linearGradient id="paint1_linear" x1="18.9574" y1="21.5034" x2="10.5461" y2="29.7791" gradientUnits="userSpaceOnUse">
<stop offset="0.18" stop-color="#0052CC"/>
<stop offset="1" stop-color="#2684FF"/>
</linearGradient>
<clipPath id="clip0">
<rect width="40" height="40" fill="white"/>
</clipPath>
</defs>
</svg>
