<svg width="40" height="40" viewBox="0 0 40 40" fill="none" xmlns="http://www.w3.org/2000/svg">
<path d="M0 10C0 4.47715 4.47715 0 10 0H30C35.5228 0 40 4.47715 40 10V30C40 35.5228 35.5228 40 30 40H10C4.47715 40 0 35.5228 0 30V10Z" fill="#2D8CFF"/>
<path d="M27.7381 24.0685L29.9903 25.9612C30.542 26.425 30.8183 26.6569 31.0405 26.712C31.2621 26.7672 31.4959 26.7442 31.7024 26.6468C31.909 26.5495 32.0755 26.3837 32.1739 26.1777C32.2705 25.9699 32.2705 25.6076 32.2705 24.883V15.1535C32.2705 14.4289 32.2705 14.0665 32.1739 13.8588C32.0754 13.6533 31.9092 13.4879 31.7031 13.3906C31.497 13.2933 31.2637 13.27 31.0425 13.3245C30.8202 13.3796 30.5439 13.6144 29.9922 14.0752L27.7381 15.9728C27.3719 16.281 27.1884 16.4347 27.0405 16.6115C26.7443 16.966 26.5464 17.3922 26.4666 17.8472C26.427 18.0743 26.427 18.3149 26.427 18.797V21.2482C26.427 21.7313 26.427 21.9709 26.4666 22.1979C26.5464 22.653 26.7443 23.0791 27.0405 23.4337C27.1884 23.6057 27.3719 23.7603 27.7381 24.0685Z" fill="white"/>
<path d="M7.92267 15.7381C7.92267 14.8289 7.92267 14.3748 8.09851 14.027C8.25184 13.722 8.49817 13.4737 8.8019 13.3178C9.14586 13.14 9.59707 13.14 10.4985 13.14H18.7111C21.0715 13.14 22.2521 13.14 23.1555 13.6038C23.9508 14.0131 24.5958 14.6639 24.998 15.4628C25.4579 16.3719 25.4579 17.5623 25.4579 19.9439V24.2985C25.4579 25.2077 25.4579 25.6627 25.2821 26.0096C25.1288 26.3148 24.8825 26.5635 24.5787 26.7198C24.2347 26.8966 23.7835 26.8966 22.8821 26.8966H14.6695C12.3091 26.8966 11.1285 26.8966 10.2251 26.4328C9.42778 26.0238 8.78092 25.3722 8.37774 24.5719C7.92267 23.6656 7.92267 22.4743 7.92267 20.0937V15.7381Z" fill="white"/>
</svg>
