<svg width="80" height="80" viewBox="0 0 80 80" fill="none" xmlns="http://www.w3.org/2000/svg">
<path d="M40 80C62.0914 80 80 62.0914 80 40C80 17.9086 62.0914 0 40 0C17.9086 0 0 17.9086 0 40C0 62.0914 17.9086 80 40 80Z" fill="url(#paint0_linear)"/>
<path d="M40.0001 71.0374C57.1415 71.0374 71.0374 57.1415 71.0374 40.0001C71.0374 22.8587 57.1415 8.96289 40.0001 8.96289C22.8587 8.96289 8.96289 22.8587 8.96289 40.0001C8.96289 57.1415 22.8587 71.0374 40.0001 71.0374Z" fill="url(#paint1_linear)"/>
<path d="M15.4957 66.4071C15.6104 66.2925 15.6562 66.1779 15.6333 66.0404C15.6104 65.9028 15.5416 65.6965 15.3811 65.4444C15.2207 65.1922 15.1519 64.9859 15.1061 64.8255C15.0602 64.5962 15.129 64.4128 15.2665 64.2524C15.4041 64.0919 15.5874 64.0461 15.8167 64.069C16.0459 64.0919 16.2522 64.2065 16.4356 64.3899C16.5731 64.5275 16.6648 64.665 16.7106 64.8025C16.7565 64.963 16.7794 65.1005 16.7565 65.261C16.7336 65.3985 16.6648 65.5361 16.5502 65.6507L16.3897 65.4902C16.5273 65.3527 16.5731 65.1922 16.5731 65.0318C16.5502 64.8484 16.4814 64.6879 16.321 64.5504C16.1605 64.4129 16.023 64.3212 15.8625 64.2982C15.702 64.2753 15.5645 64.3212 15.4728 64.4358C15.3811 64.5275 15.3353 64.665 15.3582 64.8025C15.3811 64.9401 15.4499 65.1235 15.5874 65.3527C15.725 65.5819 15.8167 65.7653 15.8396 65.9028C15.8854 66.0404 15.8854 66.1779 15.8625 66.2925C15.8396 66.4071 15.7708 66.5217 15.6791 66.6134C15.5187 66.7739 15.3353 66.8427 15.129 66.8197C14.9227 66.7968 14.6935 66.6822 14.4871 66.4759C14.3496 66.3384 14.235 66.2008 14.1662 66.0174C14.0975 65.857 14.0745 65.6965 14.0975 65.559C14.1204 65.3985 14.1892 65.2839 14.3038 65.1693L14.4642 65.3298C14.3267 65.4673 14.2808 65.6278 14.3038 65.8111C14.3267 65.9945 14.4413 66.1779 14.6018 66.3384C14.7622 66.4988 14.9227 66.5676 15.0831 66.5905C15.2436 66.5676 15.3811 66.5217 15.4957 66.4071Z" fill="white"/>
<path d="M18.0172 67.851C17.8568 68.0573 17.6734 68.1948 17.49 68.2865C17.3066 68.3782 17.1003 68.4011 16.9169 68.3782C16.7336 68.3553 16.5502 68.2636 16.3897 68.126C16.1376 67.9197 16.0229 67.6676 16.0229 67.3467C16.0229 67.0257 16.1376 66.7277 16.3897 66.4298L16.5731 66.2005C16.7336 66.0171 16.9169 65.8567 17.1003 65.765C17.2837 65.6733 17.49 65.6504 17.6734 65.6733C17.8568 65.6962 18.0401 65.7879 18.2006 65.9255C18.3611 66.063 18.4757 66.2235 18.5444 66.4068C18.6132 66.5902 18.6132 66.7736 18.5444 66.9799C18.4986 67.1862 18.384 67.3696 18.2235 67.5759L18.0172 67.851ZM18.0401 67.4613C18.2464 67.2091 18.3611 66.957 18.3611 66.7048C18.3611 66.4527 18.2694 66.2464 18.0631 66.0859C17.8568 65.9255 17.6505 65.8567 17.3983 65.9025C17.1691 65.9484 16.9399 66.1088 16.7106 66.361L16.5272 66.5902C16.3209 66.8424 16.2063 67.0945 16.2063 67.3467C16.2063 67.5988 16.298 67.8051 16.5043 67.9656C16.7106 68.126 16.9169 68.1948 17.1691 68.1489C17.4212 68.1031 17.6275 67.9426 17.8568 67.6905L18.0401 67.4613Z" fill="white"/>
<path d="M19.8968 69.6846C19.6905 69.9139 19.4842 70.0285 19.255 70.0514C19.0258 70.0743 18.7736 70.0055 18.5444 69.8222C18.3839 69.7076 18.2693 69.5471 18.2006 69.3866C18.1318 69.2033 18.1089 69.0199 18.1547 68.8136C18.2006 68.6073 18.2922 68.401 18.4298 68.2176L18.6361 67.9196C18.7736 67.7133 18.9341 67.5757 19.1175 67.4611C19.3008 67.3465 19.4842 67.3007 19.6676 67.3236C19.851 67.3236 20.0344 67.3924 20.2177 67.5299C20.4699 67.7133 20.6074 67.8967 20.6533 68.1259C20.6991 68.3551 20.6533 68.5843 20.5157 68.8365L20.3324 68.699C20.5616 68.2864 20.4928 67.9425 20.1261 67.6674C19.9198 67.5299 19.7135 67.4841 19.4842 67.5528C19.255 67.6216 19.0487 67.7821 18.8424 68.0571L18.6361 68.3322C18.4527 68.5843 18.361 68.8365 18.361 69.0886C18.361 69.3408 18.4756 69.5242 18.6819 69.6617C18.8882 69.7992 19.0716 69.868 19.2321 69.8451C19.3925 69.8222 19.5759 69.7305 19.7364 69.5471L19.8968 69.6846Z" fill="white"/>
<path d="M20.8828 71.3354L21.8456 69.7308L21.5476 69.5474L21.6393 69.3869L21.9373 69.5703L22.0748 69.364C22.1894 69.1806 22.304 69.066 22.4645 69.0202C22.6249 68.9743 22.7625 68.9973 22.9458 69.1119C23.0146 69.1577 23.0834 69.2036 23.1292 69.2723L23.0146 69.4328C22.9688 69.3869 22.9229 69.3411 22.8542 69.2953C22.7395 69.2265 22.6479 69.2036 22.5332 69.2494C22.4186 69.2953 22.3499 69.364 22.2811 69.4786L22.1436 69.7079L22.5562 69.96L22.4645 70.1205L22.0519 69.8683L21.0891 71.4729L20.8828 71.3354Z" fill="white"/>
<path d="M22.3037 70.9686C22.3954 70.7852 22.51 70.6477 22.6705 70.556C22.808 70.4413 22.9685 70.3955 23.1289 70.3955C23.2894 70.3955 23.4498 70.4184 23.6103 70.5101C23.8624 70.6477 24 70.831 24.0688 71.0832C24.1375 71.3353 24.0917 71.5875 23.9312 71.8855L23.9083 71.9313C23.8166 72.1147 23.702 72.2522 23.5415 72.3439C23.404 72.4585 23.2435 72.5044 23.0831 72.5044C22.9226 72.5044 22.7622 72.4815 22.6017 72.3898C22.3725 72.2522 22.212 72.0689 22.1433 71.8167C22.0745 71.5646 22.1203 71.3124 22.2808 71.0144L22.3037 70.9686ZM22.4871 71.129C22.3725 71.3353 22.3266 71.5646 22.3725 71.7479C22.4183 71.9542 22.51 72.0918 22.6934 72.1835C22.8768 72.2752 23.0602 72.2981 23.2435 72.2064C23.4269 72.1147 23.5874 71.9772 23.702 71.7479L23.7249 71.7021C23.7937 71.5646 23.8395 71.427 23.8624 71.2895C23.8624 71.152 23.8395 71.0144 23.7937 70.8998C23.7249 70.7852 23.6561 70.6935 23.5186 70.6247C23.3352 70.533 23.1518 70.5101 22.9685 70.6018C22.7851 70.6706 22.6246 70.831 22.51 71.0603L22.4871 71.129Z" fill="white"/>
<path d="M25.6045 71.7249C25.5587 71.702 25.5128 71.6791 25.467 71.6562C25.3294 71.5874 25.2148 71.5874 25.1002 71.6103C24.9856 71.6333 24.871 71.7249 24.7564 71.8396L24.1375 73.1232L23.9312 73.0315L24.8251 71.1748L25.0314 71.2665L24.8939 71.5645C25.1002 71.404 25.3294 71.3582 25.5816 71.4728C25.6274 71.4957 25.6733 71.5186 25.6962 71.5645L25.6045 71.7249Z" fill="white"/>
<path d="M27.8741 73.9255C27.9199 73.7879 27.9199 73.6504 27.8512 73.5358C27.7824 73.4212 27.6219 73.2607 27.3927 73.0773C27.1635 72.894 26.9801 72.7335 26.8884 72.596C26.7509 72.4126 26.7279 72.2063 26.8196 72C26.8884 71.7937 27.0489 71.6791 27.2552 71.6103C27.4615 71.5415 27.6907 71.5645 27.9428 71.6561C28.1262 71.7249 28.2638 71.8166 28.3554 71.9312C28.4701 72.0458 28.5388 72.1834 28.5618 72.3209C28.5847 72.4584 28.5847 72.6189 28.5159 72.7564L28.2867 72.6647C28.3554 72.4814 28.3554 72.3209 28.2638 72.1604C28.195 72 28.0345 71.8854 27.8282 71.8166C27.6219 71.7478 27.4615 71.7249 27.301 71.7708C27.1405 71.8166 27.0489 71.9083 27.003 72.0458C26.9572 72.1834 26.9572 72.298 27.0489 72.4355C27.1405 72.573 27.2552 72.6877 27.4615 72.8481C27.6678 73.0086 27.8282 73.1232 27.9199 73.2378C28.0116 73.3524 28.0804 73.467 28.1033 73.5816C28.1262 73.6963 28.1262 73.8338 28.0575 73.9484C27.9887 74.1547 27.8282 74.2922 27.6219 74.3381C27.4156 74.4069 27.1635 74.3839 26.9113 74.2693C26.7279 74.2006 26.5675 74.1089 26.4529 73.9713C26.3153 73.8567 26.2466 73.7192 26.2007 73.5587C26.1778 73.4212 26.1778 73.2607 26.2466 73.1003L26.4758 73.192C26.407 73.3753 26.4299 73.5358 26.5216 73.6963C26.6133 73.8567 26.7738 73.9713 27.003 74.063C27.2093 74.1318 27.3927 74.1547 27.5302 74.1089C27.7136 74.1776 27.8282 74.0859 27.8741 73.9255Z" fill="white"/>
<path d="M29.1346 75.0945C28.9741 75.0487 28.8366 74.957 28.722 74.8194C28.6074 74.6819 28.5386 74.5444 28.5157 74.3839C28.4927 74.2235 28.4927 74.0401 28.5615 73.8567L28.5844 73.7879C28.6532 73.6045 28.722 73.4441 28.8595 73.3065C28.9741 73.169 29.1117 73.1002 29.2721 73.0544C29.4326 73.0086 29.593 73.0086 29.7306 73.0544C29.9598 73.1232 30.1432 73.2607 30.2119 73.467C30.3036 73.6733 30.3036 73.9255 30.2119 74.2005L30.1661 74.3151L28.7678 73.8796L28.7449 73.9255C28.6761 74.1547 28.6761 74.361 28.7678 74.5444C28.8595 74.7278 28.997 74.8653 29.1804 74.9111C29.295 74.957 29.4096 74.957 29.5013 74.9341C29.593 74.9111 29.7076 74.8653 29.7993 74.7965L29.9139 74.9341C29.7076 75.1633 29.4555 75.2091 29.1346 75.0945ZM29.6847 73.2378C29.5243 73.1919 29.3638 73.2149 29.2033 73.2836C29.0429 73.3753 28.9283 73.5129 28.8366 73.6962L30.0286 74.063V74.0401C30.0744 73.8567 30.0744 73.6733 30.0056 73.5358C29.9598 73.3982 29.8452 73.2836 29.6847 73.2378Z" fill="white"/>
<path d="M31.7938 73.8569C31.7479 73.834 31.7021 73.8111 31.6562 73.8111C31.5187 73.7653 31.3812 73.7882 31.2665 73.834C31.1519 73.8799 31.0602 73.9716 30.9685 74.1091L30.6018 75.4844L30.3726 75.4386L30.8998 73.4443L31.1061 73.4902L31.0373 73.8111C31.2207 73.6048 31.427 73.536 31.7021 73.6048C31.7708 73.6277 31.8167 73.6506 31.8396 73.6736L31.7938 73.8569Z" fill="white"/>
<path d="M32.4813 75.5989L33.4441 74.0172L33.6733 74.0631L32.5043 75.9198L32.3209 75.8739L31.9771 73.6963L32.2063 73.7421L32.4813 75.5989Z" fill="white"/>
<path d="M33.9485 76.195L33.7192 76.1492L34.0631 74.1091L34.2923 74.1549L33.9485 76.195ZM34.1318 73.536C34.1318 73.4902 34.1548 73.4672 34.2006 73.4443C34.2235 73.4214 34.2694 73.4214 34.3152 73.4214C34.3611 73.4214 34.4069 73.4443 34.4298 73.4902C34.4528 73.5131 34.4528 73.5589 34.4528 73.6048C34.4528 73.6506 34.4298 73.6735 34.384 73.6965C34.3381 73.7194 34.3152 73.7194 34.2694 73.7194C34.2235 73.7194 34.1777 73.6965 34.1548 73.6506C34.1318 73.6048 34.1089 73.5818 34.1318 73.536Z" fill="white"/>
<path d="M35.4157 76.2637C35.5762 76.2866 35.7137 76.2637 35.8283 76.172C35.9429 76.0803 36.0117 75.9886 36.0346 75.851L36.2409 75.874C36.218 75.9886 36.1721 76.1032 36.0805 76.1949C35.9888 76.2866 35.8971 76.3553 35.7595 76.4012C35.622 76.447 35.5074 76.447 35.3699 76.447C35.0948 76.4241 34.9114 76.2866 34.7739 76.0803C34.6363 75.874 34.5905 75.6218 34.6363 75.3009V75.2321C34.6593 75.0258 34.728 74.8654 34.8197 74.7049C34.9114 74.5445 35.026 74.4528 35.1636 74.384C35.3011 74.3152 35.4615 74.2923 35.6449 74.3152C35.8742 74.3382 36.0346 74.4298 36.1721 74.5903C36.3097 74.7508 36.3555 74.9341 36.3326 75.1404L36.1263 75.1175C36.1263 74.9571 36.1034 74.8195 36.0117 74.7049C35.92 74.5903 35.7825 74.5215 35.622 74.4986C35.4157 74.4757 35.2552 74.5215 35.1177 74.6591C34.9802 74.7966 34.9114 75.0029 34.8656 75.2551V75.3238C34.8426 75.576 34.8656 75.8052 34.9572 75.9657C35.0489 76.1261 35.2094 76.2407 35.4157 76.2637Z" fill="white"/>
<path d="M37.5244 76.6533C37.341 76.6303 37.2035 76.5845 37.066 76.4928C36.9284 76.4011 36.8367 76.2636 36.768 76.1031C36.6992 75.9427 36.6763 75.7593 36.6763 75.5759V75.4842C36.6992 75.2779 36.745 75.1174 36.8367 74.957C36.9284 74.7965 37.043 74.6819 37.1806 74.6131C37.3181 74.5215 37.4786 74.4985 37.639 74.4985C37.8912 74.5215 38.0745 74.6131 38.2121 74.7965C38.3496 74.9799 38.3955 75.2091 38.3725 75.5071V75.6447L36.9055 75.553V75.5988C36.8826 75.828 36.9513 76.0344 37.066 76.1948C37.1806 76.3553 37.341 76.447 37.5473 76.4699C37.6619 76.4699 37.7766 76.4699 37.8682 76.424C37.9599 76.3782 38.0516 76.3323 38.1433 76.2177L38.2809 76.3323C38.0975 76.5616 37.8453 76.6762 37.5244 76.6533ZM37.6161 74.7048C37.4556 74.6819 37.2952 74.7507 37.1806 74.8653C37.066 74.9799 36.9743 75.1404 36.9284 75.3467L38.1662 75.4384V75.4154C38.1662 75.2091 38.1204 75.0487 38.0287 74.9111C37.9141 74.7965 37.7766 74.7278 37.6161 74.7048Z" fill="white"/>
<path d="M41.9257 75.4157C41.9257 75.6679 41.9028 75.8971 41.8111 76.0805C41.7194 76.2638 41.6048 76.4243 41.4443 76.5389C41.2839 76.6535 41.1005 76.6994 40.8713 76.6994C40.5503 76.6994 40.2753 76.6077 40.069 76.3785C39.8627 76.1492 39.748 75.8512 39.748 75.4386V75.1636C39.748 74.9114 39.771 74.6822 39.8627 74.4988C39.9544 74.2925 40.069 74.155 40.2294 74.0403C40.3899 73.9257 40.5733 73.8799 40.8025 73.8799C41.0088 73.8799 41.2151 73.9257 41.3756 74.0174C41.536 74.1091 41.6735 74.2696 41.7652 74.4529C41.8569 74.6363 41.9028 74.8656 41.9257 75.0948V75.4157ZM41.6736 75.1406C41.6736 74.7968 41.5819 74.5446 41.4214 74.3613C41.2609 74.1779 41.0546 74.0862 40.8025 74.0862C40.5503 74.0862 40.344 74.2008 40.1836 74.3842C40.046 74.5676 39.9544 74.8426 39.9773 75.1865V75.4845C39.9773 75.8054 40.069 76.0805 40.2294 76.2638C40.3899 76.4472 40.5962 76.5389 40.8483 76.5389C41.1234 76.5389 41.3297 76.4243 41.4672 76.2409C41.6048 76.0575 41.6736 75.7825 41.6736 75.4386V75.1406Z" fill="white"/>
<path d="M43.3929 74.6819C43.3471 74.6819 43.3012 74.6819 43.2325 74.6819C43.0949 74.6819 42.9803 74.7506 42.8886 74.8194C42.7969 74.9111 42.7282 75.0257 42.7052 75.1862L42.8199 76.6074L42.5906 76.6303L42.4302 74.5672L42.6594 74.5443L42.6823 74.8652C42.774 74.6131 42.9574 74.4756 43.2325 74.4526C43.3012 74.4526 43.3471 74.4526 43.3929 74.4756V74.6819Z" fill="white"/>
<path d="M43.7593 75.4615C43.7134 75.1406 43.7593 74.8884 43.8739 74.6821C43.9885 74.4758 44.1719 74.3612 44.424 74.3154C44.6991 74.2695 44.9283 74.3612 45.1117 74.5675L45.0888 74.2695L45.2951 74.2466L45.5472 76.2409C45.5702 76.493 45.5243 76.7222 45.4097 76.9056C45.2722 77.089 45.0888 77.1807 44.8366 77.2036C44.6991 77.2265 44.5616 77.2036 44.424 77.1578C44.2865 77.1119 44.1719 77.0431 44.0802 76.9515L44.1948 76.791C44.3782 76.9744 44.5845 77.0431 44.8137 77.0202C44.9971 76.9973 45.1346 76.9285 45.2263 76.791C45.318 76.6764 45.3639 76.493 45.3409 76.3096L45.318 76.0575C45.2034 76.2867 44.9971 76.4013 44.722 76.4472C44.4928 76.4701 44.2865 76.4013 44.126 76.2409C43.9656 76.0804 43.851 75.8282 43.8051 75.5073L43.7593 75.4615ZM43.9885 75.4615C44.0114 75.7136 44.1031 75.9199 44.2177 76.0575C44.3323 76.195 44.4928 76.2409 44.6991 76.2179C44.9742 76.1721 45.1575 76.0345 45.2492 75.7595L45.1346 74.8196C45.0659 74.705 44.9742 74.6133 44.8596 74.5446C44.7449 74.4987 44.6303 74.4758 44.4928 74.4987C44.3094 74.5217 44.1719 74.6133 44.0802 74.7738C43.9656 74.9572 43.9426 75.1864 43.9885 75.4615Z" fill="white"/>
<path d="M47.5185 75.9196C47.4727 75.8509 47.4497 75.7592 47.4268 75.6446C47.3581 75.7592 47.2893 75.8509 47.1747 75.9426C47.0601 76.0113 46.9455 76.0801 46.8079 76.103C46.6245 76.1489 46.4412 76.1259 46.3036 76.0343C46.1661 75.9426 46.0744 75.828 46.0515 75.6675C46.0056 75.4612 46.0744 75.3007 46.2119 75.1632C46.3495 75.0257 46.5787 74.911 46.8538 74.8652L47.2664 74.7964L47.2205 74.5672C47.1976 74.4297 47.1288 74.3151 47.0142 74.2463C46.8996 74.1775 46.7621 74.1546 46.6016 74.2004C46.4412 74.2234 46.3265 74.2921 46.2348 74.3838C46.1432 74.4755 46.1202 74.5901 46.1432 74.7047L45.9139 74.7506C45.891 74.5901 45.9369 74.4297 46.0515 74.2921C46.1661 74.1546 46.3495 74.04 46.5787 74.0171C46.8079 73.9712 46.9913 73.9941 47.1518 74.0858C47.3122 74.1775 47.4039 74.3151 47.4497 74.5214L47.6331 75.4841C47.679 75.6904 47.7248 75.828 47.7707 75.9196V75.9426L47.5185 75.9196ZM46.785 75.8967C46.9455 75.8738 47.0601 75.805 47.1747 75.7133C47.2893 75.6216 47.3351 75.507 47.381 75.3695L47.2893 74.934L46.8996 75.0027C46.6704 75.0486 46.5099 75.1174 46.3953 75.232C46.2807 75.3466 46.2349 75.4612 46.2578 75.5987C46.2807 75.7133 46.3495 75.805 46.4412 75.8509C46.5328 75.8967 46.6475 75.9196 46.785 75.8967Z" fill="white"/>
<path d="M48.0916 73.6964L48.1832 74.0402C48.2291 73.9027 48.2979 73.7881 48.3896 73.6964C48.4812 73.6047 48.5959 73.5359 48.7334 73.513C48.9397 73.4672 49.1231 73.4672 49.2606 73.5818C49.3981 73.6735 49.4898 73.8339 49.5586 74.0861L49.9024 75.3927L49.6732 75.4385L49.3294 74.1319C49.2835 73.9485 49.2148 73.8339 49.1231 73.7652C49.0314 73.6964 48.8939 73.6735 48.7334 73.7193C48.5959 73.7652 48.4812 73.8339 48.4125 73.9485C48.3437 74.0632 48.2749 74.2007 48.2749 74.3612L48.6188 75.7365L48.3896 75.7824L47.8853 73.7881L48.0916 73.6964Z" fill="white"/>
<path d="M49.7421 72.6189C49.7192 72.5731 49.7421 72.5502 49.7421 72.5043C49.7421 72.4585 49.788 72.4355 49.8338 72.4355C49.8797 72.4355 49.9255 72.4355 49.9484 72.4355C49.9713 72.4355 50.0172 72.4814 50.0172 72.5272C50.0172 72.5731 50.0172 72.596 50.0172 72.6418C49.9943 72.6877 49.9713 72.7106 49.9255 72.7106C49.8797 72.7335 49.8338 72.7106 49.8109 72.7106C49.788 72.7106 49.765 72.6648 49.7421 72.6189ZM50.7736 75.0946L50.5444 75.1633L49.9484 73.192L50.1777 73.1232L50.7736 75.0946Z" fill="white"/>
<path d="M51.5073 74.6591L52.7681 74.2236L52.8368 74.4069L51.301 74.9342L51.2552 74.7737L51.8741 72.7565L50.7279 73.1462L50.6592 72.9628L52.0804 72.4814L52.1262 72.6419L51.5073 74.6591Z" fill="white"/>
<path d="M54.5101 73.7191C54.4642 73.6732 54.4184 73.5815 54.3496 73.4669C54.3267 73.6045 54.2579 73.6961 54.1662 73.8108C54.0746 73.9254 53.9599 73.9941 53.8453 74.04C53.6619 74.1088 53.5015 74.1317 53.341 74.0629C53.1806 74.0171 53.066 73.9024 53.0201 73.742C52.9513 73.5586 52.9513 73.3752 53.066 73.2148C53.1806 73.0543 53.3639 72.8939 53.639 72.7792L54.0287 72.6188L53.937 72.4125C53.8912 72.2749 53.7995 72.1833 53.6849 72.1374C53.5703 72.0916 53.4327 72.1145 53.2723 72.1832C53.1347 72.252 53.0201 72.3208 52.9513 72.4354C52.8826 72.55 52.8826 72.6646 52.9284 72.7563L52.7221 72.848C52.6533 72.6875 52.6763 72.5271 52.768 72.3666C52.8596 72.2062 53.0201 72.0686 53.2264 71.9769C53.4327 71.8853 53.639 71.8623 53.7995 71.9311C53.9599 71.9769 54.0975 72.1145 54.1662 72.2979L54.533 73.1918C54.6018 73.3752 54.6935 73.5128 54.7622 73.5815V73.6045L54.5101 73.7191ZM53.7766 73.8337C53.9141 73.7649 54.0287 73.6961 54.1204 73.5815C54.2121 73.4669 54.235 73.3523 54.2579 73.2148L54.0745 72.8022L53.7078 72.9626C53.5015 73.0543 53.341 73.1689 53.2723 73.2835C53.2035 73.3982 53.1576 73.5357 53.2264 73.6732C53.2723 73.7878 53.341 73.8566 53.4556 73.8795C53.5473 73.9024 53.6619 73.9024 53.7766 73.8337Z" fill="white"/>
<path d="M54.5328 70.877L54.7621 71.3583L55.1517 71.1749L55.2205 71.3354L54.8308 71.5188L55.4268 72.7566C55.4727 72.8712 55.5414 72.9171 55.5873 72.9629C55.656 72.9858 55.7248 72.9858 55.8165 72.94C55.8623 72.9171 55.9082 72.8941 55.977 72.8483L56.0686 73.0088C56.0228 73.0546 55.954 73.1004 55.8623 73.1463C55.7248 73.2151 55.6102 73.2151 55.4956 73.1692C55.4039 73.1234 55.3122 73.0088 55.2205 72.8483L54.6245 71.6105L54.2807 71.7709L54.2119 71.6105L54.5558 71.45L54.3265 70.9686L54.5328 70.877Z" fill="white"/>
<path d="M55.2666 70.4411C55.2437 70.3953 55.2437 70.3724 55.2437 70.3265C55.2437 70.2807 55.2895 70.2578 55.3353 70.2348C55.3812 70.2119 55.427 70.2119 55.45 70.2119C55.4729 70.2119 55.5187 70.2578 55.5416 70.2807C55.5646 70.3265 55.5646 70.3495 55.5416 70.3953C55.5187 70.4411 55.4958 70.4641 55.45 70.487C55.4041 70.5099 55.3583 70.5099 55.3353 70.5099C55.3124 70.5099 55.2895 70.4641 55.2666 70.4411ZM56.7107 72.6876L56.5044 72.8022L55.5646 70.9684L55.7709 70.8538L56.7107 72.6876Z" fill="white"/>
<path d="M56.7108 71.4957C56.6191 71.3124 56.5503 71.1519 56.5503 70.9685C56.5503 70.7851 56.5732 70.6247 56.642 70.4872C56.7108 70.3496 56.8483 70.235 56.9858 70.1433C57.2151 70.0058 57.4672 69.9829 57.7193 70.0745C57.9715 70.1662 58.1549 70.3496 58.3153 70.6247L58.3383 70.6705C58.4299 70.8539 58.4987 71.0144 58.4987 71.1978C58.4987 71.3811 58.4758 71.5416 58.407 71.6791C58.3383 71.8167 58.2007 71.9313 58.0632 72.023C57.834 72.1605 57.5818 72.1834 57.3526 72.0917C57.1004 72 56.9171 71.8396 56.7566 71.5416L56.7108 71.4957ZM56.94 71.4499C57.0546 71.6562 57.215 71.8167 57.3984 71.8854C57.5818 71.9542 57.7652 71.9542 57.9486 71.8396C58.132 71.7479 58.2236 71.5874 58.2695 71.3811C58.2924 71.1748 58.2466 70.9685 58.132 70.7393L58.109 70.6935C58.0403 70.5559 57.9257 70.4413 57.811 70.3496C57.6964 70.2579 57.5818 70.2121 57.4443 70.2121C57.3067 70.2121 57.1921 70.235 57.0775 70.3038C56.8941 70.3955 56.8024 70.5559 56.7566 70.7622C56.7337 70.9685 56.7795 71.1748 56.8941 71.4041L56.94 71.4499Z" fill="white"/>
<path d="M58.3841 69.3641L58.5904 69.6621C58.5904 69.5246 58.6133 69.3871 58.6821 69.2495C58.7509 69.1349 58.8425 69.0432 58.9572 68.9515C59.1405 68.8369 59.3239 68.7911 59.4615 68.8369C59.6219 68.8827 59.7594 69.0203 59.897 69.2266L60.6305 70.3498L60.4471 70.4644L59.7136 69.3183C59.6219 69.1578 59.5073 69.0661 59.3927 69.0432C59.2781 69.0203 59.1405 69.0432 59.003 69.1349C58.8884 69.2037 58.7967 69.3183 58.7509 69.4558C58.705 69.5934 58.705 69.7309 58.7509 69.8913L59.5302 71.0833L59.3468 71.1979L58.2236 69.4787L58.3841 69.3641Z" fill="white"/>
<path d="M61.8681 68.8136C61.7994 68.7219 61.7077 68.6761 61.5931 68.6761C61.4784 68.6761 61.3409 68.7219 61.1575 68.7907C60.9971 68.8594 60.8366 68.9053 60.7449 68.9282C60.6532 68.9511 60.5386 68.9511 60.4469 68.9053C60.3552 68.8594 60.2865 68.8136 60.2406 68.7448C60.1489 68.6073 60.126 68.4698 60.1718 68.3093C60.2177 68.1488 60.3323 67.9884 60.4928 67.8738C60.6761 67.7362 60.8595 67.6675 61.0429 67.6904C61.2263 67.6904 61.3638 67.7821 61.4784 67.9196L61.2951 68.0571C61.2263 67.9655 61.1346 67.9196 60.9971 67.8967C60.8595 67.8967 60.7449 67.9425 60.6074 68.0342C60.4928 68.1259 60.4011 68.2176 60.3782 68.3322C60.3552 68.4468 60.3552 68.5385 60.424 68.6302C60.4928 68.7219 60.5615 68.7448 60.6532 68.7448C60.7449 68.7448 60.8825 68.699 61.0888 68.6302C61.2951 68.5614 61.4326 68.4927 61.5472 68.4927C61.6618 68.4697 61.7535 68.4927 61.8452 68.5156C61.9369 68.5385 62.0057 68.6073 62.0744 68.699C62.189 68.8365 62.212 68.997 62.1432 69.1574C62.0974 69.3179 61.9827 69.4784 61.7994 69.6159C61.616 69.7534 61.4097 69.8222 61.2263 69.8222C61.0429 69.8222 60.8825 69.7534 60.7908 69.593L60.9741 69.4554C61.0658 69.5471 61.1575 69.6159 61.2951 69.6159C61.4326 69.6159 61.5472 69.57 61.6847 69.4554C61.8223 69.3637 61.891 69.2491 61.9369 69.1345C61.9369 68.997 61.9369 68.9053 61.8681 68.8136Z" fill="white"/>
<path d="M64.8713 67.6905L64.7338 67.828L62.5332 65.3753L62.6707 65.2378L64.8713 67.6905Z" fill="white"/>
<path d="M66.911 63.8856C66.8193 63.7939 66.7276 63.771 66.613 63.7939C66.4984 63.8168 66.3609 63.8856 66.1545 64.0002C65.9482 64.1148 65.7878 64.2065 65.6273 64.2523C65.3293 64.3211 65.1001 64.2753 64.9167 64.1148C64.7563 63.9543 64.6875 63.771 64.6875 63.5417C64.6875 63.3125 64.8021 63.0833 65.0084 62.877C65.146 62.7394 65.2835 62.6248 65.4439 62.579C65.6044 62.5102 65.7419 62.4873 65.9024 62.5331C66.0629 62.5561 66.2004 62.6248 66.315 62.7394L65.9941 63.0833C65.8795 62.9916 65.7649 62.9457 65.6502 62.9457C65.5356 62.9687 65.421 63.0145 65.3064 63.152C65.1918 63.2667 65.146 63.3813 65.123 63.4959C65.123 63.6105 65.146 63.7022 65.2376 63.7939C65.3064 63.8626 65.3981 63.8856 65.5127 63.8626C65.6273 63.8397 65.7878 63.771 65.9712 63.6563C66.1545 63.5417 66.3379 63.473 66.4755 63.4271C66.613 63.3813 66.7505 63.3813 66.8881 63.4042C67.0027 63.4271 67.1173 63.4959 67.2319 63.5876C67.3924 63.748 67.4841 63.9314 67.4611 64.1606C67.4382 64.3899 67.3236 64.5962 67.1173 64.8254C66.9798 64.9629 66.8193 65.0775 66.6588 65.1692C66.4984 65.238 66.315 65.2609 66.1775 65.2609C66.017 65.238 65.8795 65.1692 65.7419 65.0546L66.0629 64.6879C66.1775 64.8025 66.315 64.8483 66.4296 64.8254C66.5672 64.8025 66.7047 64.7337 66.8193 64.5732C66.9339 64.4586 67.0027 64.344 67.0027 64.2294C67.0256 64.069 66.9798 63.9773 66.911 63.8856Z" fill="white"/>
<path d="M68.6761 62.9683C68.4927 63.1975 68.2635 63.335 68.0114 63.3579C67.7592 63.3809 67.5071 63.2892 67.2549 63.1058L67.2091 63.06C67.0486 62.9224 66.934 62.7849 66.8652 62.6244C66.7965 62.464 66.7506 62.3035 66.7735 62.1201C66.7965 61.9597 66.8652 61.7992 66.9798 61.6617C67.1632 61.4324 67.3695 61.3408 67.5988 61.3178C67.828 61.2949 68.0801 61.4095 68.3323 61.6158L68.4698 61.7304L67.6217 62.7849C67.7592 62.8766 67.8967 62.9224 68.0343 62.8995C68.1718 62.8766 68.2864 62.8078 68.3781 62.6932C68.5157 62.5327 68.5615 62.3494 68.4927 62.1201L68.8366 62.0743C68.8824 62.2118 68.8824 62.3723 68.8595 62.5098C68.8595 62.6932 68.7907 62.8307 68.6761 62.9683ZM67.2549 61.8909C67.1861 61.9826 67.1403 62.0972 67.1632 62.2118C67.1862 62.3264 67.2549 62.441 67.3695 62.5557L67.9197 61.868L67.8968 61.8451C67.7592 61.7534 67.6446 61.7075 67.5529 61.7304C67.4383 61.7534 67.3466 61.7992 67.2549 61.8909Z" fill="white"/>
<path d="M68.745 60.1032C68.6991 60.149 68.6533 60.1949 68.6304 60.2407C68.5157 60.4012 68.4928 60.5846 68.5845 60.7221L69.7307 61.5473L69.4556 61.9141L67.7822 60.6992L68.0344 60.3324L68.2178 60.47C68.149 60.2637 68.149 60.1032 68.2636 59.9427C68.3094 59.8969 68.3324 59.851 68.3782 59.8281L68.745 60.1032Z" fill="white"/>
<path d="M70.2118 59.8053L69.2262 58.6363L69.4783 58.2466L70.8078 59.9658L70.5786 60.3096L68.4697 59.7824L68.7219 59.3698L70.2118 59.8053Z" fill="white"/>
<path d="M69.1578 57.6964C69.089 57.6506 69.0661 57.6047 69.0432 57.5589C69.0203 57.4901 69.0432 57.4214 69.089 57.3526C69.1349 57.2838 69.1807 57.238 69.2495 57.2151C69.3182 57.1921 69.387 57.2151 69.4329 57.238C69.5016 57.2838 69.5245 57.3297 69.5475 57.3755C69.5704 57.4443 69.5475 57.5131 69.5016 57.5818C69.4558 57.6506 69.4099 57.6964 69.3412 57.7194C69.2724 57.7423 69.2036 57.7423 69.1578 57.6964ZM71.6334 58.6133L71.4042 59.003L69.6392 57.9486L69.8684 57.5589L71.6334 58.6133Z" fill="white"/>
<path d="M72.0458 57.2148C72.0916 57.1231 72.1145 57.0085 72.0916 56.9168C72.0687 56.8251 72.0229 56.7334 71.9312 56.6876L72.1375 56.2979C72.2521 56.3667 72.3438 56.4583 72.3896 56.573C72.4584 56.6876 72.4813 56.8251 72.4813 56.9626C72.4813 57.1002 72.4355 57.2377 72.3667 57.3753C72.2292 57.6274 72.0458 57.7879 71.7936 57.8566C71.5415 57.9254 71.2893 57.8795 70.9913 57.7191L70.9455 57.6962C70.6704 57.5357 70.487 57.3523 70.3953 57.1231C70.3037 56.8939 70.3266 56.6417 70.4641 56.3896C70.5787 56.1833 70.7392 56.0228 70.9455 55.954C71.1518 55.8853 71.3581 55.9082 71.5644 55.9999L71.3581 56.3896C71.2435 56.3437 71.1518 56.3208 71.0372 56.3667C70.9226 56.3896 70.8538 56.4583 70.808 56.573C70.7392 56.7105 70.7392 56.8251 70.785 56.9626C70.8309 57.0773 70.9684 57.1919 71.1518 57.3065L71.2206 57.3523C71.4269 57.4669 71.5873 57.5128 71.7249 57.4899C71.8624 57.4669 71.9541 57.3523 72.0458 57.2148Z" fill="white"/>
<path d="M73.3526 55.427C73.238 55.7021 73.0546 55.8626 72.8024 55.9542C72.5503 56.0459 72.2981 56.023 72.0231 55.8855L71.9772 55.8626C71.7938 55.7709 71.6334 55.6563 71.5188 55.5187C71.4042 55.3812 71.3354 55.2207 71.3125 55.0603C71.2895 54.8998 71.3125 54.7393 71.4042 54.5789C71.5188 54.3267 71.7021 54.1663 71.9314 54.0975C72.1606 54.0287 72.4128 54.0746 72.7107 54.2121L72.8712 54.2809L72.2981 55.4958C72.4586 55.5646 72.5961 55.5646 72.7337 55.5187C72.8712 55.4729 72.9629 55.3812 73.0317 55.2436C73.1234 55.0603 73.1234 54.854 73.0087 54.6706L73.3297 54.556C73.3984 54.6935 73.4443 54.831 73.4443 54.9686C73.4672 55.1061 73.4213 55.2666 73.3526 55.427ZM71.7251 54.7164C71.6792 54.831 71.6792 54.9456 71.7251 55.0603C71.7709 55.1749 71.8626 55.2666 72.0001 55.3583L72.3669 54.556L72.344 54.533C72.2064 54.4872 72.0689 54.4643 71.9772 54.4872C71.8626 54.533 71.7709 54.6018 71.7251 54.7164Z" fill="white"/>
<path d="M73.7649 50.7049C74.017 50.7965 74.2233 50.9112 74.3838 51.0716C74.5443 51.2321 74.6589 51.4155 74.7047 51.5988C74.7506 51.7822 74.7276 52.0115 74.6589 52.2178C74.5901 52.4241 74.4755 52.6074 74.2921 52.7221C74.1317 52.8596 73.9483 52.9284 73.719 52.9513C73.4898 52.9742 73.2606 52.9513 73.0084 52.8596L72.8709 52.8137C72.6188 52.722 72.4125 52.6074 72.252 52.447C72.0915 52.2865 71.9769 52.1031 71.9311 51.8968C71.8852 51.6905 71.9082 51.4842 71.9769 51.2779C72.0457 51.0716 72.1603 50.8882 72.3208 50.7736C72.4812 50.6361 72.6646 50.5673 72.8938 50.5444C73.1231 50.5215 73.3523 50.5444 73.6044 50.6361L73.7649 50.7049ZM73.4669 51.0945C73.1689 51.0029 72.9397 50.9799 72.7334 51.0258C72.55 51.0716 72.4125 51.2092 72.3437 51.4155C72.2749 51.6218 72.2978 51.7822 72.4125 51.9656C72.5271 52.1261 72.7334 52.2636 73.0084 52.3553L73.1689 52.4011C73.4669 52.4928 73.6961 52.5157 73.9024 52.4699C74.1087 52.4241 74.2233 52.2865 74.2921 52.0802C74.3609 51.8739 74.338 51.6905 74.2233 51.5301C74.1087 51.3696 73.9024 51.2321 73.6044 51.1404L73.4669 51.0945Z" fill="white"/>
<path d="M73.8571 49.1233C73.8342 49.1692 73.8112 49.238 73.7883 49.3067C73.7195 49.513 73.7654 49.6735 73.9029 49.7881L75.2554 50.1778L75.1178 50.6133L73.1465 50.0403L73.2611 49.6047L73.4903 49.6506C73.3528 49.4901 73.3069 49.3297 73.3528 49.1233C73.3757 49.0546 73.3986 49.0087 73.4216 48.9629L73.8571 49.1233Z" fill="white"/>
<path d="M74.4987 49.0543C74.1778 48.9856 73.9486 48.848 73.8111 48.6646C73.6506 48.4813 73.6048 48.252 73.6735 48.0228C73.7194 47.7936 73.8569 47.6331 74.0403 47.5414L73.834 47.4727L73.9257 47.0601L75.8741 47.5185C76.1262 47.5873 76.3326 47.7019 76.4472 47.9082C76.5618 48.1145 76.5847 48.3437 76.5159 48.6188C76.493 48.7563 76.4242 48.8939 76.3326 49.0314C76.2409 49.1689 76.1262 49.2377 76.0116 49.3065L75.7824 49.0314C75.9887 48.9397 76.1033 48.7793 76.1492 48.573C76.195 48.4125 76.1721 48.2979 76.1033 48.1833C76.0346 48.0687 75.9429 47.9999 75.7824 47.977L75.6449 47.954C75.7595 48.1145 75.7824 48.2979 75.7366 48.5271C75.6907 48.7563 75.5532 48.9397 75.324 49.0314C75.1177 49.1231 74.8426 49.1231 74.4987 49.0543ZM74.6363 48.6188C74.8426 48.6646 75.003 48.6646 75.1406 48.5959C75.2781 48.5271 75.3698 48.4354 75.3927 48.2979C75.4386 48.1145 75.3927 47.954 75.2552 47.8394L74.3612 47.6331C74.1778 47.679 74.0861 47.7936 74.0403 47.977C73.9944 48.1145 74.0403 48.252 74.132 48.3666C74.2237 48.4813 74.4071 48.573 74.6363 48.6188Z" fill="white"/>
<path d="M76.2638 45.7306C76.2179 45.7535 76.1492 45.7536 76.0575 45.7536C76.195 45.914 76.2408 46.1203 76.195 46.3266C76.1492 46.5329 76.0804 46.6934 75.9428 46.808C75.8053 46.9226 75.6449 46.9684 75.4844 46.9226C75.2781 46.8768 75.1176 46.7851 75.0259 46.6017C74.9343 46.4183 74.9113 46.1891 74.9801 45.8911L75.0259 45.616L74.8884 45.5931C74.7738 45.5702 74.705 45.5931 74.6133 45.6389C74.5446 45.6848 74.4987 45.7765 74.4758 45.8911C74.4529 46.0057 74.4758 46.0745 74.5217 46.1662C74.5675 46.2349 74.6133 46.2808 74.705 46.3037L74.6363 46.7621C74.5217 46.7392 74.43 46.6934 74.3383 46.6017C74.2466 46.51 74.2007 46.3954 74.1549 46.2578C74.132 46.1203 74.109 45.9828 74.1549 45.8223C74.2007 45.5931 74.2924 45.4097 74.43 45.2722C74.5675 45.1576 74.7509 45.1117 74.9801 45.1346L75.897 45.2951C76.0804 45.318 76.2408 45.318 76.3555 45.2951H76.3784L76.2638 45.7306ZM75.8282 46.1891C75.8512 46.0974 75.8282 46.0057 75.8053 45.914C75.7824 45.8223 75.7366 45.7535 75.6678 45.7077L75.2781 45.6389L75.2323 45.8911C75.2093 46.0515 75.2093 46.1891 75.2552 46.2808C75.301 46.3725 75.3698 46.4412 75.4844 46.4412C75.5761 46.4642 75.6449 46.4412 75.7136 46.3954C75.7824 46.3495 75.8282 46.2808 75.8282 46.1891Z" fill="white"/>
<path d="M74.3843 44.1032L74.6135 44.1261C74.453 43.9656 74.3843 43.7364 74.4072 43.5072C74.453 43.0716 74.7281 42.8883 75.2095 42.9341L76.5619 43.0716L76.5161 43.5301L75.1865 43.3926C75.049 43.3696 74.9573 43.3926 74.8886 43.4384C74.8198 43.4842 74.7739 43.5759 74.7739 43.7135C74.751 43.8968 74.8198 44.0573 74.9802 44.149L76.4473 44.3095L76.4014 44.7679L74.3613 44.5616L74.3843 44.1032Z" fill="white"/>
<path d="M74.0173 42.3612C73.9485 42.3612 73.8798 42.3383 73.8339 42.2924C73.7881 42.2466 73.7651 42.1778 73.7651 42.0861C73.7651 41.9944 73.7881 41.9486 73.8568 41.9028C73.9256 41.8569 73.9714 41.834 74.0402 41.834C74.109 41.834 74.1777 41.8569 74.2007 41.9028C74.2465 41.9486 74.2694 42.0174 74.2694 42.1091C74.2694 42.2007 74.2465 42.2466 74.1777 42.2924C74.1548 42.3383 74.0861 42.3612 74.0173 42.3612ZM76.6305 42.0174L76.6075 42.4758L74.5445 42.3612L74.5674 41.9028L76.6305 42.0174Z" fill="white"/>
<path d="M76.3096 40.9396L76.3325 39.8394H76.6992L76.6763 41.5127H76.3783L75.003 40.4353L74.98 41.4669H74.6133L74.6362 39.8623H74.9342L76.3096 40.9396Z" fill="white"/>
<path d="M76.6534 38.1664C76.6075 38.1894 76.5617 38.2123 76.47 38.2352C76.6304 38.3727 76.7221 38.5561 76.7221 38.7624C76.7221 38.9687 76.6763 39.1292 76.5617 39.2667C76.4471 39.4043 76.3095 39.473 76.1262 39.473C75.8969 39.473 75.7365 39.4043 75.6219 39.2438C75.5072 39.0833 75.4385 38.8541 75.4155 38.5561V38.281H75.278C75.1634 38.281 75.0946 38.3269 75.0259 38.3727C74.9571 38.4415 74.9342 38.5332 74.9342 38.6478C74.9342 38.7624 74.9571 38.8312 75.0259 38.9C75.0717 38.9687 75.1405 38.9917 75.2322 38.9917L75.2551 39.4501C75.1405 39.4501 75.0259 39.4272 74.9342 39.3584C74.8425 39.2896 74.7508 39.198 74.682 39.0604C74.6133 38.9229 74.5903 38.7853 74.5903 38.6249C74.5903 38.3727 74.6362 38.1894 74.7508 38.0518C74.8654 37.9143 75.0259 37.8226 75.2551 37.8226L76.1949 37.7768C76.3783 37.7768 76.5158 37.7309 76.6304 37.6851H76.6534V38.1664ZM76.3325 38.6937C76.3325 38.602 76.3095 38.5103 76.2637 38.4415C76.2178 38.3727 76.1491 38.304 76.0803 38.2581L75.6906 38.281V38.5332C75.6906 38.6937 75.7365 38.8312 75.8052 38.9229C75.874 39.0146 75.9657 39.0375 76.0574 39.0375C76.1491 39.0375 76.2178 38.9916 76.2637 38.9458C76.3095 38.9 76.3325 38.7853 76.3325 38.6937Z" fill="white"/>
<path d="M73.9946 36.8597L74.4989 36.8138L74.476 36.4471L74.8198 36.4242L74.8428 36.7909L75.9889 36.6992C76.0577 36.6992 76.1264 36.6763 76.1494 36.6305C76.1723 36.6075 76.1952 36.5388 76.1952 36.47C76.1952 36.4242 76.1723 36.3554 76.1723 36.3095L76.539 36.2866C76.5849 36.3783 76.6078 36.4929 76.6078 36.5846C76.6307 36.9285 76.4474 37.1348 76.0577 37.1577L74.8886 37.2494L74.9115 37.5932L74.5677 37.6161L74.5448 37.2723L74.0405 37.3181L73.9946 36.8597Z" fill="white"/>
<path d="M73.8796 36.1719C73.8108 36.1719 73.742 36.1719 73.6962 36.1261C73.6503 36.0802 73.6045 36.0344 73.6045 35.9427C73.6045 35.851 73.6045 35.7822 73.6503 35.7364C73.6962 35.6905 73.742 35.6447 73.8108 35.6447C73.8796 35.6447 73.9483 35.6447 73.9942 35.6905C74.04 35.7364 74.0859 35.7822 74.0859 35.8739C74.0859 35.9656 74.0859 36.0344 74.04 36.0802C74.0171 36.1261 73.9483 36.1719 73.8796 36.1719ZM76.401 35.3696L76.4469 35.8281L74.4068 36.0802L74.3609 35.6218L76.401 35.3696Z" fill="white"/>
<path d="M75.3236 35.0485C75.1173 35.0714 74.9339 35.0714 74.7735 35.0256C74.5901 34.9797 74.4525 34.888 74.3608 34.7505C74.2462 34.613 74.1775 34.4754 74.1545 34.2691C74.1087 33.9941 74.1545 33.7648 74.315 33.5585C74.4755 33.3522 74.6818 33.2376 74.9798 33.1688L75.0944 33.1459C75.3007 33.123 75.4841 33.123 75.6445 33.1688C75.805 33.2147 75.9654 33.3064 76.0571 33.4439C76.1717 33.5814 76.2405 33.7419 76.2634 33.9253C76.3093 34.2233 76.2634 34.4525 76.08 34.6588C75.8967 34.8651 75.6674 35.0026 75.3236 35.0485ZM75.2778 34.59C75.4841 34.5442 75.6445 34.4754 75.7362 34.3837C75.8508 34.2691 75.8737 34.1545 75.8508 33.9941C75.8279 33.8336 75.7362 33.719 75.6216 33.6731C75.507 33.6273 75.3007 33.6044 75.0714 33.6273C74.8651 33.6502 74.7047 33.7419 74.613 33.8336C74.4984 33.9482 74.4755 34.0628 74.4984 34.2233C74.5213 34.3837 74.613 34.4754 74.7276 34.5442C74.8651 34.613 75.0485 34.6359 75.2778 34.59Z" fill="white"/>
<path d="M73.8341 32.5503L74.0634 32.4815C73.8571 32.3669 73.7195 32.2064 73.6507 31.9543C73.5591 31.5417 73.7424 31.2666 74.2238 31.152L75.5533 30.854L75.6679 31.3125L74.3614 31.6104C74.2238 31.6334 74.1551 31.6792 74.0863 31.748C74.0404 31.8168 74.0175 31.9084 74.0634 32.046C74.1092 32.2294 74.2238 32.344 74.4072 32.3898L75.8284 32.0689L75.943 32.5274L73.9258 32.9858L73.8341 32.5503Z" fill="white"/>
<path d="M74.5446 29.341C74.4758 29.3639 74.4071 29.4098 74.3841 29.5015C74.3612 29.5702 74.3612 29.7078 74.3612 29.8682C74.3841 30.0287 74.3612 30.1662 74.3612 30.2808C74.3154 30.533 74.2008 30.6934 73.9945 30.7622C73.834 30.808 73.6506 30.7851 73.5131 30.6705C73.3526 30.5559 73.238 30.3954 73.1693 30.1662C73.1005 29.937 73.1005 29.7307 73.1693 29.5473C73.238 29.3639 73.3756 29.2493 73.5589 29.2035L73.6965 29.639C73.6048 29.6619 73.5589 29.7078 73.5131 29.7994C73.4672 29.8682 73.4672 29.9828 73.5131 30.0745C73.536 30.1662 73.5819 30.235 73.6506 30.3037C73.7194 30.3496 73.7882 30.3725 73.8569 30.3496C73.9257 30.3267 73.9715 30.2808 73.9945 30.2121C74.0174 30.1433 74.0174 30.0058 73.9945 29.8224C73.9715 29.639 73.9945 29.4785 74.0174 29.3639C74.0403 29.2493 74.0862 29.1576 74.132 29.0888C74.2008 29.0201 74.2695 28.9742 74.3841 28.9284C74.5675 28.8825 74.728 28.9055 74.8884 29.0201C75.0489 29.1347 75.1635 29.3181 75.2323 29.5473C75.2781 29.7078 75.3011 29.8682 75.2781 30.0058C75.2552 30.1433 75.2094 30.2808 75.1177 30.3725C75.026 30.4642 74.9343 30.533 74.8197 30.5788L74.6821 30.1433C74.7738 30.0974 74.8655 30.0516 74.8884 29.9599C74.9114 29.8682 74.9343 29.7536 74.8884 29.639C74.8426 29.5244 74.7968 29.4327 74.7509 29.3868C74.6821 29.3181 74.6134 29.3181 74.5446 29.341Z" fill="white"/>
<path d="M25.5581 31.1976H19.9191L18.6354 34.6819H17.5352L22.2343 22.2578H23.2429L27.942 34.6819H26.8417L25.5581 31.1976ZM20.24 30.3037H25.2142L22.7157 23.5415L20.24 30.3037Z" fill="white"/>
<path d="M30.8762 34.6819H29.8218V22.2578H30.8762V34.6819Z" fill="white"/>
<path d="M42.8647 30.8078C42.7272 32.1144 42.2458 33.123 41.4665 33.8107C40.6871 34.4983 39.6097 34.8422 38.3031 34.8422C37.3862 34.8422 36.561 34.613 35.8504 34.1545C35.1398 33.696 34.5897 33.0313 34.2 32.2061C33.8103 31.3579 33.6269 30.3952 33.604 29.3178V27.7132C33.604 26.613 33.7874 25.6273 34.1771 24.7791C34.5668 23.931 35.1169 23.2662 35.8504 22.8078C36.5839 22.3493 37.4092 22.1201 38.349 22.1201C39.6785 22.1201 40.7329 22.4869 41.5123 23.1975C42.2917 23.9081 42.7272 24.9167 42.8647 26.1774H41.8103C41.5582 24.0685 40.412 23.0141 38.3719 23.0141C37.2487 23.0141 36.3547 23.4267 35.667 24.2748C35.0023 25.123 34.6584 26.292 34.6584 27.7591V29.272C34.6584 30.7161 34.9794 31.8622 35.6441 32.7104C36.286 33.5585 37.1799 33.994 38.2802 33.994C39.3805 33.994 40.2057 33.7419 40.7559 33.2147C41.306 32.6875 41.6498 31.9081 41.7874 30.8536H42.8647V30.8078Z" fill="white"/>
<path d="M46.303 29.616V34.6819H45.2485V22.2578H49.4892C50.7729 22.2578 51.8044 22.5787 52.5609 23.2435C53.3173 23.9082 53.6841 24.8022 53.6841 25.9713C53.6841 27.1403 53.3173 28.0343 52.6067 28.6762C51.8961 29.318 50.8417 29.6389 49.4892 29.6389H46.303V29.616ZM46.303 28.722H49.4892C50.4978 28.722 51.2772 28.4698 51.8273 27.9885C52.3546 27.5071 52.6296 26.8194 52.6296 25.9713C52.6296 25.1002 52.3546 24.4355 51.8273 23.9082C51.3001 23.4039 50.5437 23.1289 49.558 23.1289H46.303V28.722Z" fill="white"/>
<path d="M61.3633 31.1976H55.7243L54.4406 34.6819H53.3403L58.0395 22.2578H59.0481L63.7472 34.6819H62.6469L61.3633 31.1976ZM56.0452 30.3037H61.0423L58.5438 23.5415L56.0452 30.3037Z" fill="white"/>
<path d="M32.6642 51.8048C32.6642 51.1172 32.4121 50.567 31.9307 50.1773C31.4493 49.7647 30.5553 49.398 29.2717 49.0312C27.988 48.6644 27.0482 48.2747 26.4522 47.8392C25.6041 47.2432 25.1914 46.4409 25.1914 45.4553C25.1914 44.5154 25.5811 43.7361 26.3605 43.1401C27.1399 42.5441 28.1485 42.2461 29.3634 42.2461C30.1886 42.2461 30.9221 42.4066 31.5869 42.7275C32.2287 43.0484 32.733 43.4839 33.0998 44.057C33.4665 44.63 33.627 45.2719 33.627 45.9596H32.5725C32.5725 45.1114 32.2745 44.4237 31.7015 43.9194C31.1284 43.4151 30.349 43.1401 29.3634 43.1401C28.4235 43.1401 27.6671 43.3464 27.094 43.7819C26.521 44.2174 26.2459 44.7676 26.2459 45.4553C26.2459 46.0971 26.498 46.6014 27.0023 47.014C27.5066 47.4037 28.3089 47.7704 29.4321 48.0684C30.5553 48.3664 31.4035 48.6874 31.9765 49.0083C32.5496 49.3292 32.9851 49.7189 33.2831 50.1773C33.5811 50.6358 33.7187 51.163 33.7187 51.7819C33.7187 52.7676 33.329 53.547 32.5496 54.1429C31.7702 54.7389 30.7387 55.0369 29.4551 55.0369C28.584 55.0369 27.7817 54.8765 27.0482 54.5785C26.3147 54.2576 25.7645 53.822 25.3748 53.2719C24.9851 52.6988 24.8018 52.057 24.8018 51.3235H25.8562C25.8562 52.1945 26.1771 52.8822 26.8419 53.4094C27.5066 53.9137 28.3777 54.1659 29.4551 54.1659C30.4178 54.1659 31.1972 53.9596 31.7932 53.524C32.3662 53.0885 32.6642 52.5154 32.6642 51.8048Z" fill="white"/>
<path d="M44.9966 49.3292C44.9966 50.4753 44.7903 51.4839 44.4006 52.3321C44.0109 53.2031 43.4379 53.8679 42.7043 54.3264C41.9708 54.7848 41.1227 55.037 40.1599 55.037C38.7158 55.037 37.5467 54.5097 36.6528 53.4782C35.7588 52.4467 35.3232 51.0484 35.3232 49.2834V47.9997C35.3232 46.8765 35.5295 45.8679 35.9192 44.9968C36.3318 44.1258 36.882 43.461 37.6155 42.9796C38.349 42.5212 39.1972 42.269 40.1599 42.269C41.1227 42.269 41.9708 42.4983 42.6814 42.9567C43.4149 43.4152 43.988 44.0799 44.3777 44.9051C44.7674 45.7533 44.9737 46.716 44.9966 47.8392V49.3292ZM43.9422 47.9768C43.9422 46.4868 43.5983 45.3178 42.9336 44.4696C42.2459 43.6215 41.329 43.2089 40.1599 43.2089C39.0138 43.2089 38.074 43.6444 37.4092 44.4925C36.7215 45.3407 36.3777 46.5327 36.3777 48.0685V49.3751C36.3777 50.8421 36.7215 52.0112 37.4092 52.8822C38.0969 53.7533 39.0138 54.1659 40.1828 54.1659C41.3748 54.1659 42.2917 53.7304 42.9565 52.8822C43.6212 52.0341 43.9651 50.8421 43.9651 49.3292V47.9768H43.9422Z" fill="white"/>
<path d="M56.2515 51.0026C56.1139 52.3092 55.6326 53.3178 54.8532 54.0055C54.0738 54.6932 52.9965 55.037 51.6899 55.037C50.773 55.037 49.9477 54.8078 49.2371 54.3493C48.5265 53.8909 47.9764 53.2261 47.5867 52.4009C47.197 51.5528 47.0136 50.59 46.9907 49.5126V47.9081C46.9907 46.8078 47.1741 45.8221 47.5638 44.974C47.9535 44.1258 48.5036 43.4611 49.2371 43.0026C49.9707 42.5442 50.7959 42.3149 51.7357 42.3149C53.0652 42.3149 54.1197 42.6817 54.899 43.3923C55.6784 44.1029 56.1139 45.1115 56.2515 46.3722H55.197C54.9449 44.2634 53.7987 43.2089 51.7586 43.2089C50.6354 43.2089 49.7414 43.6215 49.0538 44.4697C48.389 45.3178 48.0452 46.4869 48.0452 47.9539V49.4668C48.0452 50.9109 48.3661 52.0571 49.0308 52.9052C49.6727 53.7533 50.5667 54.1889 51.6669 54.1889C52.7672 54.1889 53.5924 53.9367 54.1426 53.4095C54.6927 52.8823 55.0366 52.1029 55.1741 51.0485H56.2515V51.0026Z" fill="white"/>
<path d="M17.1455 38.7163H64.5266" stroke="white" stroke-width="0.9316" stroke-miterlimit="10" stroke-linecap="round" stroke-linejoin="round"/>
<path d="M24.9166 62.0743C24.8937 62.0285 24.8708 61.9368 24.8479 61.8222C24.6645 62.0285 24.4353 62.1202 24.1602 62.1202C23.931 62.1202 23.7247 62.0514 23.5871 61.9139C23.4267 61.7763 23.3579 61.6159 23.3579 61.4096C23.3579 61.1574 23.4496 60.974 23.633 60.8365C23.8164 60.699 24.0914 60.6302 24.4353 60.6302H24.825V60.4468C24.825 60.3093 24.7791 60.1947 24.6874 60.103C24.5957 60.0113 24.4811 59.9654 24.2977 59.9654C24.1602 59.9654 24.0227 60.0113 23.931 60.0801C23.8393 60.1488 23.7934 60.2405 23.7934 60.3551H23.3808C23.3808 60.2405 23.4267 60.1259 23.5184 60.0113C23.6101 59.8967 23.7247 59.805 23.8622 59.7362C23.9997 59.6675 24.1602 59.6445 24.3436 59.6445C24.6187 59.6445 24.825 59.7133 24.9854 59.8508C25.1459 59.9884 25.2146 60.1718 25.2376 60.4239V61.5242C25.2376 61.7534 25.2605 61.9139 25.3293 62.0514V62.0972H24.9166V62.0743ZM24.229 61.7534C24.3665 61.7534 24.4811 61.7305 24.5957 61.6617C24.7103 61.593 24.802 61.5013 24.8479 61.4096V60.9282H24.527C24.0227 60.9282 23.7705 61.0657 23.7705 61.3637C23.7705 61.5013 23.8164 61.593 23.9081 61.6617C23.9768 61.7305 24.0914 61.7534 24.229 61.7534Z" fill="white"/>
<path d="M25.7876 59.0486C25.7876 58.9798 25.8105 58.9339 25.8564 58.8881C25.9022 58.8423 25.9481 58.8193 26.0397 58.8193C26.1085 58.8193 26.1773 58.8423 26.2231 58.8881C26.269 58.9339 26.2919 58.9798 26.2919 59.0486C26.2919 59.1173 26.269 59.1632 26.2231 59.209C26.1773 59.2549 26.1314 59.2778 26.0397 59.2778C25.971 59.2778 25.9022 59.2549 25.8564 59.209C25.8105 59.1632 25.7876 59.0944 25.7876 59.0486ZM26.2231 62.0743H25.8105V59.6675H26.2231V62.0743Z" fill="white"/>
<path d="M27.7361 61.7763C27.8736 61.7763 28.0112 61.7305 28.1258 61.6388C28.2404 61.5471 28.2862 61.4325 28.3091 61.3179H28.6988C28.6988 61.4554 28.653 61.593 28.5613 61.7076C28.4696 61.8222 28.355 61.9368 28.2175 62.0056C28.0799 62.0743 27.9195 62.1202 27.759 62.1202C27.4381 62.1202 27.163 62.0056 26.9796 61.7993C26.7963 61.57 26.6816 61.295 26.6816 60.9053V60.8365C26.6816 60.6073 26.7275 60.401 26.8192 60.2176C26.9109 60.0342 27.0255 59.8967 27.1859 59.805C27.3464 59.7133 27.5298 59.6445 27.759 59.6445C28.0341 59.6445 28.2404 59.7362 28.4238 59.8967C28.6071 60.0571 28.6988 60.2634 28.6988 60.5156H28.3091C28.2862 60.3551 28.2404 60.2405 28.1258 60.1259C28.0112 60.0342 27.8965 59.9654 27.7361 59.9654C27.5298 59.9654 27.3693 60.0342 27.2547 60.1947C27.1401 60.3551 27.0942 60.5614 27.0942 60.8365V60.9053C27.0942 61.1803 27.1401 61.3866 27.2547 61.5471C27.3464 61.7076 27.5298 61.7763 27.7361 61.7763Z" fill="white"/>
<path d="M31.0601 60.9053C31.0601 61.272 30.9684 61.57 30.808 61.7763C30.6475 62.0055 30.4183 62.1201 30.1203 62.1201C29.8223 62.1201 29.5931 62.0285 29.4326 61.8451V62.9912H29.02V59.6674H29.3868L29.4097 59.9425C29.5702 59.7362 29.7994 59.6216 30.0974 59.6216C30.3954 59.6216 30.6017 59.7362 30.7851 59.9425C30.9455 60.1488 31.0372 60.4697 31.0372 60.8594V60.9053H31.0601ZM30.6475 60.8594C30.6475 60.5843 30.5788 60.378 30.4641 60.2176C30.3495 60.0571 30.1891 59.9883 29.9828 59.9883C29.7306 59.9883 29.5472 60.103 29.4326 60.3093V61.4554C29.5472 61.6846 29.7535 61.7763 30.0057 61.7763C30.212 61.7763 30.3495 61.7075 30.4641 61.5471C30.5788 61.3866 30.6475 61.1574 30.6475 60.8594Z" fill="white"/>
<path d="M32.9396 62.0743C32.9167 62.0285 32.8938 61.9368 32.8708 61.8222C32.6874 62.0285 32.4582 62.1202 32.1832 62.1202C31.9539 62.1202 31.7476 62.0514 31.6101 61.9139C31.4496 61.7763 31.3809 61.6159 31.3809 61.4096C31.3809 61.1574 31.4726 60.974 31.6559 60.8365C31.8393 60.699 32.1144 60.6302 32.4582 60.6302H32.8479V60.4468C32.8479 60.3093 32.8021 60.1947 32.7104 60.103C32.6187 60.0113 32.5041 59.9654 32.3207 59.9654C32.1832 59.9654 32.0456 60.0113 31.9539 60.0801C31.8622 60.1488 31.8164 60.2405 31.8164 60.3551H31.4038C31.4038 60.2405 31.4496 60.1259 31.5413 60.0113C31.633 59.8967 31.7476 59.805 31.8852 59.7362C32.0227 59.6675 32.1832 59.6445 32.3665 59.6445C32.6416 59.6445 32.8479 59.7133 33.0084 59.8508C33.1688 59.9884 33.2376 60.1718 33.2605 60.4239V61.5242C33.2605 61.7534 33.2834 61.9139 33.3522 62.0514V62.0972H32.9396V62.0743ZM32.2519 61.7534C32.3895 61.7534 32.5041 61.7305 32.6187 61.6617C32.7333 61.593 32.825 61.5013 32.8708 61.4096V60.9282H32.5499C32.0456 60.9282 31.7935 61.0657 31.7935 61.3637C31.7935 61.5013 31.8393 61.593 31.931 61.6617C32.0227 61.7305 32.1373 61.7534 32.2519 61.7534Z" fill="white"/>
<path d="M33.8335 61.8449C33.8335 61.7761 33.8564 61.7074 33.9023 61.6615C33.9481 61.6157 34.0169 61.5928 34.0856 61.5928C34.1544 61.5928 34.2232 61.6157 34.269 61.6615C34.3149 61.7074 34.3378 61.7761 34.3378 61.8449C34.3378 61.9137 34.3149 61.9595 34.269 62.0054C34.2232 62.0512 34.1544 62.0741 34.0856 62.0741C34.0169 62.0741 33.9481 62.0512 33.9023 62.0054C33.8564 61.9595 33.8335 61.9137 33.8335 61.8449Z" fill="white"/>
<path d="M34.7964 60.8594C34.7964 60.6302 34.8422 60.4239 34.9339 60.2176C35.0256 60.0113 35.1631 59.8966 35.3236 59.782C35.4841 59.6903 35.6674 59.6216 35.8967 59.6216C36.2176 59.6216 36.4927 59.7362 36.699 59.9654C36.9053 60.1946 36.997 60.4926 36.997 60.8594V60.8823C36.997 61.1116 36.9511 61.3179 36.8594 61.5012C36.7677 61.6846 36.6531 61.8222 36.4697 61.9368C36.3093 62.0514 36.103 62.0972 35.8967 62.0972C35.5758 62.0972 35.3007 61.9826 35.1173 61.7534C34.911 61.5242 34.8193 61.2262 34.8193 60.8594H34.7964ZM35.209 60.9053C35.209 61.1803 35.2778 61.3866 35.3924 61.5471C35.507 61.7075 35.6904 61.7992 35.8967 61.7992C36.103 61.7992 36.2634 61.7075 36.401 61.5471C36.5385 61.3866 36.5844 61.1574 36.5844 60.8594C36.5844 60.6073 36.5156 60.378 36.401 60.2176C36.2864 60.0571 36.103 59.9654 35.8967 59.9654C35.6904 59.9654 35.5299 60.0571 35.4153 60.2176C35.3007 60.378 35.209 60.6073 35.209 60.9053Z" fill="white"/>
<path d="M38.5328 60.0342C38.4641 60.0342 38.3953 60.0112 38.3265 60.0112C38.0514 60.0112 37.8681 60.1259 37.7764 60.3551V62.0514H37.3638V59.6445H37.7535V59.9195C37.891 59.7132 38.0744 59.5986 38.3265 59.5986C38.3953 59.5986 38.4641 59.5986 38.5099 59.6216V60.0342H38.5328Z" fill="white"/>
<path d="M38.6934 60.8594C38.6934 60.4927 38.785 60.1947 38.9455 59.9654C39.1289 59.7362 39.3581 59.6445 39.6332 59.6445C39.9312 59.6445 40.1604 59.7591 40.3209 59.9654L40.3438 59.6904H40.7106V62.0285C40.7106 62.3494 40.6189 62.5786 40.4355 62.762C40.2521 62.9454 39.9999 63.0371 39.702 63.0371C39.5186 63.0371 39.3581 62.9912 39.1977 62.9225C39.0372 62.8537 38.8997 62.7391 38.808 62.6245L39.0143 62.3723C39.1977 62.5786 39.404 62.6932 39.6561 62.6932C39.8624 62.6932 39.9999 62.6474 40.1146 62.5328C40.2292 62.4182 40.275 62.2577 40.275 62.0514V61.8451C40.1146 62.0285 39.8853 62.1202 39.6103 62.1202C39.3352 62.1202 39.106 62.0056 38.9226 61.7763C38.785 61.5471 38.6934 61.2491 38.6934 60.8594ZM39.106 60.9053C39.106 61.1803 39.1518 61.3866 39.2664 61.5471C39.381 61.7076 39.5415 61.7763 39.7249 61.7763C39.977 61.7763 40.1833 61.6617 40.2979 61.4325V60.3322C40.1833 60.103 39.977 59.9884 39.7249 59.9884C39.5186 59.9884 39.381 60.0571 39.2664 60.2176C39.1518 60.3551 39.106 60.5844 39.106 60.9053Z" fill="white"/>
<path d="M41.3062 62.3494H40.9624L42.3148 58.8423H42.6587L41.3062 62.3494Z" fill="white"/>
<path d="M44.3777 61.4325C44.3777 61.3179 44.3319 61.2262 44.2631 61.1803C44.1714 61.1116 44.0339 61.0657 43.8275 61.0199C43.6212 60.974 43.4608 60.9282 43.3233 60.8594C43.2086 60.7906 43.1169 60.7219 43.0482 60.6302C42.9794 60.5385 42.9565 60.4468 42.9565 60.3322C42.9565 60.1259 43.0482 59.9654 43.2086 59.8279C43.3691 59.6903 43.5983 59.6216 43.8505 59.6216C44.1255 59.6216 44.3318 59.6903 44.5152 59.8279C44.6757 59.9654 44.7674 60.1488 44.7674 60.3551H44.3548C44.3548 60.2405 44.3089 60.1488 44.2172 60.0571C44.1255 59.9654 44.0109 59.9425 43.8505 59.9425C43.69 59.9425 43.5754 59.9654 43.5066 60.0342C43.4149 60.103 43.3691 60.1946 43.3691 60.2863C43.3691 60.378 43.4149 60.4697 43.4837 60.5156C43.5525 60.5614 43.7129 60.6073 43.9192 60.6531C44.1255 60.6989 44.286 60.7448 44.4235 60.8136C44.5611 60.8823 44.6528 60.9511 44.6986 61.0428C44.7445 61.1345 44.7903 61.2491 44.7903 61.3637C44.7903 61.57 44.6986 61.7534 44.5382 61.868C44.3777 62.0055 44.1485 62.0514 43.8734 62.0514C43.69 62.0514 43.5066 62.0285 43.3691 61.9597C43.2316 61.8909 43.1169 61.7992 43.0253 61.6846C42.9336 61.57 42.9106 61.4325 42.9106 61.2949H43.3233C43.3233 61.4325 43.392 61.5471 43.4837 61.6158C43.5754 61.6846 43.7129 61.7305 43.8963 61.7305C44.0568 61.7305 44.1714 61.7075 44.2631 61.6388C44.3548 61.57 44.3777 61.5471 44.3777 61.4325Z" fill="white"/>
<path d="M45.0884 60.8594C45.0884 60.6302 45.1342 60.4239 45.2259 60.2176C45.3176 60.0113 45.4551 59.8966 45.6156 59.782C45.7761 59.6903 45.9594 59.6216 46.1887 59.6216C46.5096 59.6216 46.7847 59.7362 46.991 59.9654C47.1973 60.1946 47.289 60.4926 47.289 60.8594V60.8823C47.289 61.1116 47.2431 61.3179 47.1514 61.5012C47.0597 61.6846 46.9451 61.8222 46.7617 61.9368C46.6013 62.0514 46.395 62.0972 46.1887 62.0972C45.8677 62.0972 45.5927 61.9826 45.4093 61.7534C45.203 61.5242 45.1113 61.2262 45.1113 60.8594H45.0884ZM45.501 60.9053C45.501 61.1803 45.5698 61.3866 45.6844 61.5471C45.799 61.7075 45.9824 61.7992 46.1887 61.7992C46.395 61.7992 46.5554 61.7075 46.693 61.5471C46.8305 61.3866 46.8763 61.1574 46.8763 60.8594C46.8763 60.6073 46.8076 60.378 46.693 60.2176C46.5784 60.0571 46.395 59.9654 46.1887 59.9654C45.9824 59.9654 45.8219 60.0571 45.7073 60.2176C45.5927 60.378 45.501 60.6073 45.501 60.9053Z" fill="white"/>
<path d="M48.6418 61.7763C48.7794 61.7763 48.9169 61.7305 49.0315 61.6388C49.1461 61.5471 49.192 61.4325 49.2149 61.3179H49.6046C49.6046 61.4554 49.5587 61.593 49.4671 61.7076C49.3754 61.8222 49.2608 61.9368 49.1232 62.0056C48.9857 62.0743 48.8252 62.1202 48.6648 62.1202C48.3438 62.1202 48.0688 62.0056 47.8854 61.7993C47.702 61.57 47.5874 61.295 47.5874 60.9053V60.8365C47.5874 60.6073 47.6332 60.401 47.7249 60.2176C47.8166 60.0342 47.9312 59.8967 48.0917 59.805C48.2522 59.7133 48.4355 59.6445 48.6648 59.6445C48.9398 59.6445 49.1461 59.7362 49.3295 59.8967C49.5129 60.0571 49.6046 60.2634 49.6046 60.5156H49.2149C49.192 60.3551 49.1461 60.2405 49.0315 60.1259C48.9169 60.0342 48.8023 59.9654 48.6418 59.9654C48.4355 59.9654 48.2751 60.0342 48.1605 60.1947C48.0459 60.3551 48 60.5614 48 60.8365V60.9053C48 61.1803 48.0459 61.3866 48.1605 61.5471C48.2751 61.7076 48.4355 61.7763 48.6418 61.7763Z" fill="white"/>
<path d="M51.6214 60.997H52.0798V61.3409H51.6214V62.0973H51.2087V61.3409H49.7417V61.0887L51.1858 58.8423H51.6214V60.997ZM50.2231 60.997H51.2317V59.4154L51.1858 59.507L50.2231 60.997Z" fill="white"/>
<path d="M53.7761 61.4325C53.7761 61.3179 53.7303 61.2262 53.6615 61.1803C53.5698 61.1116 53.4323 61.0657 53.226 61.0199C53.0197 60.974 52.8592 60.9282 52.7217 60.8594C52.6071 60.7906 52.5154 60.7219 52.4466 60.6302C52.3779 60.5385 52.3549 60.4468 52.3549 60.3322C52.3549 60.1259 52.4466 59.9654 52.6071 59.8279C52.7675 59.6903 52.9968 59.6216 53.2489 59.6216C53.524 59.6216 53.7303 59.6903 53.9137 59.8279C54.0741 59.9654 54.1658 60.1488 54.1658 60.3551H53.7532C53.7532 60.2405 53.7074 60.1488 53.6157 60.0571C53.524 59.9654 53.4094 59.9425 53.2489 59.9425C53.0885 59.9425 52.9738 59.9654 52.9051 60.0342C52.8134 60.103 52.7675 60.1946 52.7675 60.2863C52.7675 60.378 52.8134 60.4697 52.8821 60.5156C52.9509 60.5614 53.1114 60.6073 53.3177 60.6531C53.524 60.6989 53.6844 60.7448 53.822 60.8136C53.9595 60.8823 54.0512 60.9511 54.097 61.0428C54.1429 61.1345 54.1887 61.2491 54.1887 61.3637C54.1887 61.57 54.097 61.7534 53.9366 61.868C53.7761 62.0055 53.5469 62.0514 53.2718 62.0514C53.0885 62.0514 52.9051 62.0285 52.7675 61.9597C52.63 61.8909 52.5154 61.7992 52.4237 61.6846C52.332 61.57 52.3091 61.4325 52.3091 61.2949H52.7217C52.7217 61.4325 52.7905 61.5471 52.8821 61.6158C52.9738 61.7075 53.1114 61.7305 53.2948 61.7305C53.4552 61.7305 53.5698 61.7075 53.6615 61.6388C53.7532 61.57 53.7761 61.5471 53.7761 61.4325Z" fill="white"/>
<path d="M54.4868 60.8594C54.4868 60.6302 54.5327 60.4239 54.6244 60.2176C54.716 60.0342 54.8536 59.8966 55.014 59.782C55.1745 59.6903 55.3579 59.6216 55.5871 59.6216C55.908 59.6216 56.1831 59.7362 56.3894 59.9654C56.5957 60.1946 56.6874 60.4926 56.6874 60.8594V60.8823C56.6874 61.1116 56.6415 61.3179 56.5499 61.5012C56.4582 61.6846 56.3436 61.8222 56.1602 61.9368C55.9997 62.0514 55.7934 62.0972 55.5871 62.0972C55.2662 62.0972 54.9911 61.9826 54.8077 61.7534C54.6014 61.5242 54.5097 61.2262 54.5097 60.8594H54.4868ZM54.8994 60.9053C54.8994 61.1803 54.9682 61.3866 55.0828 61.5471C55.1974 61.7075 55.3808 61.7992 55.5871 61.7992C55.7934 61.7992 55.9539 61.7075 56.0914 61.5471C56.206 61.3866 56.2748 61.1574 56.2748 60.8594C56.2748 60.6073 56.206 60.378 56.0914 60.2176C55.9768 60.0571 55.7934 59.9654 55.5871 59.9654C55.3808 59.9654 55.2203 60.0571 55.1057 60.2176C54.9911 60.378 54.8994 60.6073 54.8994 60.9053Z" fill="white"/>
<path d="M73.8798 71.5185V71.7936H73.3525V73.1919H73.0316V71.7936H72.5044V71.5185H73.8798ZM75.6677 73.169L75.599 72.1833C75.599 72.0457 75.599 71.8853 75.576 71.7248H75.5531C75.5073 71.8624 75.4614 72.0687 75.4156 72.2291L75.1176 73.146H74.7737L74.4987 72.2062C74.4757 72.0687 74.4299 71.8853 74.3841 71.7248H74.3611C74.3611 71.8853 74.3611 72.0457 74.3382 72.1833L74.2694 73.169H73.9485L74.0631 71.4956H74.5674L74.8654 72.3208C74.9113 72.4584 74.9342 72.573 74.98 72.7334C75.0259 72.573 75.0488 72.4354 75.0947 72.3208L75.3926 71.4956H75.874L76.0116 73.169H75.6677Z" fill="#231F20"/>
<defs>
<linearGradient id="paint0_linear" x1="79.9953" y1="39.9977" x2="0" y2="39.9977" gradientUnits="userSpaceOnUse">
<stop stop-color="#2161AD"/>
<stop offset="0.1797" stop-color="#206AB3"/>
<stop offset="0.4727" stop-color="#1C82C5"/>
<stop offset="0.8404" stop-color="#17AAE1"/>
<stop offset="1" stop-color="#14BDEF"/>
</linearGradient>
<linearGradient id="paint1_linear" x1="8.96009" y1="39.9978" x2="71.0355" y2="39.9978" gradientUnits="userSpaceOnUse">
<stop stop-color="#2161AD"/>
<stop offset="0.1797" stop-color="#206AB3"/>
<stop offset="0.4727" stop-color="#1C82C5"/>
<stop offset="0.8404" stop-color="#17AAE1"/>
<stop offset="1" stop-color="#14BDEF"/>
</linearGradient>
</defs>
</svg>
