<svg width="140" height="80" viewBox="0 0 140 80" fill="none" xmlns="http://www.w3.org/2000/svg">
<g clip-path="url(#clip0)">
<g clip-path="url(#clip1)">
<rect width="80" height="80.0003" fill="#EEEBEA"/>
<path d="M51.8426 28.5145L47.4386 46.433L43.0288 64.3572L29.5143 50.8427L15.9999 37.3283L33.9241 32.9185L51.8426 28.5145Z" fill="#938CE1"/>
<path d="M14.9786 55.546L28.1095 52.3187L24.8822 65.4496L24.8821 65.4498L21.6796 78.4669L11.8205 68.6077L1.96133 58.7486L14.9784 55.5461L14.9786 55.546Z" stroke="#0D0E10" stroke-width="2"/>
</g>
<path d="M60.6457 49.772H75.1537V56H79.5097V49.772H83.6857V45.776H79.5097V27.812H74.0737L60.6457 44.84V49.772ZM64.8217 45.776L75.1537 32.744V45.776H64.8217ZM86.5866 54.776V56H106.747V52.004H92.0946C92.6706 49.628 95.0826 48.224 96.0906 47.612L101.239 44.624C104.515 42.68 106.495 39.512 106.495 36.164C106.495 31.628 102.931 27.416 96.7746 27.416C89.8266 27.416 86.7666 32.6 86.8386 36.596L91.3386 37.208C91.3386 36.236 91.4106 35.156 91.8786 34.22C92.6706 32.708 94.2906 31.484 96.7026 31.484C99.9426 31.484 101.923 33.68 101.923 36.236C101.923 38.936 100.231 40.52 97.6386 42.032L93.2826 44.624C87.9186 47.756 86.5146 51.572 86.5866 54.776ZM122.54 33.896C122.54 30.368 119.696 27.524 116.168 27.524C112.676 27.524 109.832 30.368 109.832 33.896C109.832 37.388 112.676 40.268 116.168 40.268C119.696 40.268 122.54 37.388 122.54 33.896ZM135.536 27.812H131.324L112.964 56H117.212L135.536 27.812ZM118.94 33.896C118.94 35.408 117.68 36.632 116.168 36.632C114.656 36.632 113.432 35.408 113.432 33.896C113.432 32.384 114.656 31.16 116.168 31.16C117.68 31.16 118.94 32.384 118.94 33.896ZM138.668 49.844C138.668 46.316 135.824 43.472 132.332 43.472C128.804 43.472 125.96 46.316 125.96 49.844C125.96 53.336 128.804 56.18 132.332 56.18C135.824 56.18 138.668 53.336 138.668 49.844ZM135.068 49.844C135.068 51.356 133.844 52.58 132.332 52.58C130.82 52.58 129.56 51.356 129.56 49.844C129.56 48.332 130.82 47.108 132.332 47.108C133.844 47.108 135.068 48.332 135.068 49.844Z" fill="#0D0E10"/>
</g>
<defs>
<clipPath id="clip0">
<rect width="140" height="80" fill="white"/>
</clipPath>
<clipPath id="clip1">
<rect width="80" height="80.0003" fill="white"/>
</clipPath>
</defs>
</svg>
