<svg width="80" height="80" viewBox="0 0 80 80" fill="none" xmlns="http://www.w3.org/2000/svg">
<rect width="80" height="80.0003" rx="40" fill="#103A89"/>
<path d="M40.0001 9.07129L40.9623 12.0326H44.076L41.5569 13.8629L42.5191 16.8242L40.0001 14.994L37.481 16.8242L38.4432 13.8629L35.9241 12.0326H39.0379L40.0001 9.07129Z" fill="#F1BD6C"/>
<path d="M52.857 12.5L53.8192 15.4614H56.933L54.4139 17.2916L55.3761 20.2529L52.857 18.4227L50.3379 20.2529L51.3001 17.2916L48.781 15.4614H51.8948L52.857 12.5Z" fill="#F1BD6C"/>
<path d="M62.2857 21.9282L63.2479 24.8896H66.3617L63.8426 26.7198L64.8048 29.6812L62.2857 27.8509L59.7666 29.6812L60.7288 26.7198L58.2098 24.8896H61.3235L62.2857 21.9282Z" fill="#F1BD6C"/>
<path d="M65.7144 34.7856L66.6766 37.747H69.7904L67.2713 39.5772L68.2335 42.5386L65.7144 40.7084L63.1953 42.5386L64.1575 39.5772L61.6385 37.747H64.7522L65.7144 34.7856Z" fill="#F1BD6C"/>
<path d="M62.2857 48.5L63.2479 51.4614H66.3617L63.8426 53.2916L64.8048 56.2529L62.2857 54.4227L59.7666 56.2529L60.7288 53.2916L58.2098 51.4614H61.3235L62.2857 48.5Z" fill="#F1BD6C"/>
<path d="M52.857 57.9282L53.8192 60.8896H56.933L54.4139 62.7198L55.3761 65.6812L52.857 63.8509L50.3379 65.6812L51.3001 62.7198L48.781 60.8896H51.8948L52.857 57.9282Z" fill="#F1BD6C"/>
<path d="M40.0001 61.3569L40.9623 64.3183H44.076L41.5569 66.1485L42.5191 69.1099L40.0001 67.2796L37.481 69.1099L38.4432 66.1485L35.9241 64.3183H39.0379L40.0001 61.3569Z" fill="#F1BD6C"/>
<path d="M27.1426 57.9282L28.1049 60.8896H31.2186L28.6995 62.7198L29.6617 65.6812L27.1426 63.8509L24.6236 65.6812L25.5858 62.7198L23.0667 60.8896H26.1804L27.1426 57.9282Z" fill="#F1BD6C"/>
<path d="M17.7144 48.5L18.6766 51.4614H21.7904L19.2713 53.2916L20.2335 56.2529L17.7144 54.4227L15.1953 56.2529L16.1575 53.2916L13.6385 51.4614H16.7522L17.7144 48.5Z" fill="#F1BD6C"/>
<path d="M14.2857 34.7856L15.2479 37.747H18.3617L15.8426 39.5772L16.8048 42.5386L14.2857 40.7084L11.7666 42.5386L12.7288 39.5772L10.2098 37.747H13.3235L14.2857 34.7856Z" fill="#F1BD6C"/>
<path d="M17.7144 21.9282L18.6766 24.8896H21.7904L19.2713 26.7198L20.2335 29.6812L17.7144 27.8509L15.1953 29.6812L16.1575 26.7198L13.6385 24.8896H16.7522L17.7144 21.9282Z" fill="#F1BD6C"/>
<path d="M27.1426 12.5L28.1049 15.4614H31.2186L28.6995 17.2916L29.6617 20.2529L27.1426 18.4227L24.6236 20.2529L25.5858 17.2916L23.0667 15.4614H26.1804L27.1426 12.5Z" fill="#F1BD6C"/>
<path d="M34 38V33C34 29.6863 36.6863 27 40 27V27C43.3137 27 46 29.6863 46 33V38" stroke="white" stroke-width="2"/>
<circle cx="40" cy="43" r="9" fill="white"/>
<circle cx="40" cy="43" r="3" fill="#103A89"/>
</svg>
