<svg width="80" height="80" viewBox="0 0 80 80" fill="none" xmlns="http://www.w3.org/2000/svg">
<rect width="80" height="80.0003" rx="40" fill="#345A77"/>
<path d="M29 39V26C29 19.9249 33.9249 15 40 15V15C46.0751 15 51 19.9249 51 26V39" stroke="#F1BD6C" stroke-width="2"/>
<circle cx="40" cy="48.1113" r="17" fill="#F1BD6C"/>
<path d="M46.7472 52.8054L39.5978 46.225V41.2885L34.3437 41C34.3033 41.0954 34.0429 41.37 34.0835 41.5239C34.132 41.707 34.3783 41.6485 34.4491 41.7662C34.5326 41.9053 34.3891 42.4704 34.346 42.6331C34.2643 42.9416 34.0772 43.1924 34.0231 43.5005C33.9321 44.0186 34.116 43.9773 34.4647 44.3017C35.0519 44.8481 34.5811 45.4143 34.7291 46.0563C34.8495 46.5789 35.3742 46.8493 35.5669 47.3721C35.7154 47.7744 35.9199 47.8773 36.2368 48.1723C36.2291 47.9935 36.0691 47.4661 36.3699 47.5125C36.668 47.5584 36.553 47.9985 36.6105 48.1825C36.6584 48.3354 36.9988 48.642 36.7161 48.7834C36.6222 48.8303 36.3551 48.6447 36.2472 48.5945C36.3232 48.8313 36.2747 49.0765 36.3949 49.3027C36.5382 49.5723 36.6928 49.4684 36.8836 49.6154C37.0796 49.7662 37.0588 49.9396 36.9717 50.1681C36.8811 50.406 36.7867 50.3691 36.9309 50.6565C37.0354 50.8642 37.2129 51.1265 37.3654 51.2846C37.4541 51.3765 37.55 51.3971 37.6387 51.5146C37.7126 51.6125 37.6839 51.74 37.7716 51.8281C37.922 51.9791 38.1763 51.9812 38.2955 52.1791C38.428 52.399 38.2776 52.5653 38.6667 52.5451C38.6867 52.9856 38.7704 53.3843 38.7658 53.8247C38.9825 53.9112 39.3335 53.8082 39.5614 53.7624C39.7874 54.0676 40.0796 53.8555 40.3386 54.0213C40.4515 54.0934 40.4279 54.2738 40.4963 54.3371C40.6365 54.4663 40.7408 54.3851 40.9148 54.4302C41.0437 54.4634 41.1437 54.558 41.2674 54.5927C41.3835 54.625 41.5753 54.5492 41.6615 54.6521C41.7651 54.7756 41.5915 55.0006 41.7476 55.1C41.8774 55.1827 42.0642 54.9856 42.1898 55.0144C42.3371 55.0483 42.7593 55.4333 42.8629 55.5607C42.9806 55.7053 43.0997 55.9759 43.1666 56.1625C43.2709 56.4536 43.2564 56.5969 43.472 56.81C43.6094 56.9458 43.4792 56.9558 43.7028 56.9958C43.8494 57.0222 44.0435 56.916 44.1914 56.8998C44.4995 56.866 44.8107 56.9247 45.1138 56.867C45.3965 56.8131 45.6658 56.7241 45.9562 56.6827C46.2074 56.6469 46.6486 56.6742 46.8715 56.5552C47.1123 56.4265 47.1344 56.1363 46.7859 56.19C46.7584 56.0044 46.8822 55.7484 46.7439 55.6195C46.9365 55.3566 47.0061 55.1708 47.0365 54.8492C47.0498 54.7083 47.0559 54.5515 47.1255 54.4327C47.194 54.3153 47.3863 54.2459 47.4234 54.1447C47.481 53.9886 47.3892 53.9187 47.3184 53.8316C47.273 53.7755 47.145 53.8022 47.1078 53.753C47.0392 53.662 47.1069 53.5683 47.0694 53.4764C46.9611 53.2102 46.8299 53.106 46.7472 52.8054C46.7491 52.8554 46.7516 52.9065 46.7489 52.9565L46.7472 52.8054Z" fill="#345A77"/>
</svg>
