<svg width="80" height="80" viewBox="0 0 80 80" fill="none" xmlns="http://www.w3.org/2000/svg">
<rect width="80" height="80.0003" rx="40" fill="#004F9D"/>
<circle cx="40" cy="40" r="30.5" stroke="white"/>
<path d="M41 27.6923C41 27.6923 42.8667 26 48 26C53.1333 26 55 27.6923 55 27.6923V48C55 48 52.2 46.7308 48 46.7308C44.2667 46.7308 41 48 41 48V27.6923Z" fill="white"/>
<path d="M25 27.6923C25 27.6923 26.8667 26 32 26C37.1333 26 39 27.6923 39 27.6923V48C39 48 36.2 46.7308 32 46.7308C28.2667 46.7308 25 48 25 48V27.6923Z" fill="white"/>
<rect x="25" y="51" width="30" height="2" fill="white"/>
</svg>
