<svg width="98" height="81" viewBox="0 0 98 81" fill="none" xmlns="http://www.w3.org/2000/svg">
<path d="M36.9921 13.2696L32.3456 9.71545H38.1496L40.0082 4.13975V0.275879C25.4494 0.275879 12.7002 8.05252 5.70615 19.693C9.70044 18.1116 13.3687 15.927 16.7923 13.2207C18.6346 11.7534 20.6399 10.4817 23.0039 9.97631C28.172 8.86769 31.2533 10.4817 32.6717 15.1933C33.0467 16.4324 33.389 17.6877 33.7477 18.9268C34.5955 21.8614 36.9595 23.8341 40.0245 24.5351V15.4542L35.2965 18.7148L36.9921 13.2696Z" fill="#4D63AC"/>
<path d="M32.1011 20.5408C31.5631 19.367 31.0577 18.1606 30.4218 17.0193C28.6448 13.7913 25.7102 12.7642 22.3028 14.1337C19.8247 15.1282 17.5912 16.5792 15.4555 18.1606C12.9122 20.0354 10.1569 21.519 7.20603 22.6277C5.98329 23.0842 4.76055 23.5406 3.5052 23.8993C1.25535 28.9044 0 34.4475 0 40.2841C0 62 17.2977 79.6727 38.8669 80.2759C38.0681 79.0858 36.7475 78.45 35.8671 77.325C35.1335 76.3794 34.5955 75.4012 34.7585 74.1296C34.9052 73.0047 35.4269 72.1569 36.3562 71.5211C37.4322 70.7711 37.4648 70.2168 36.4703 69.3527C35.2965 68.3419 34.2205 67.2333 33.3727 65.9291C32.3945 64.4455 32.3782 62.9619 33.3238 61.4294C34.0738 60.2066 35.0031 59.1795 36.0954 58.2828C37.0573 57.484 37.0736 57.2068 36.0954 56.4243C35.1498 55.658 34.1716 54.9244 33.1934 54.207C30.2099 51.9898 31.0251 49.153 32.7043 47.164C33.4869 46.2348 34.4977 45.6152 35.5737 45.0609C35.9649 44.8653 36.5682 44.7838 36.5356 44.2132C36.5193 43.6588 35.9323 43.5773 35.5411 43.3817C33.1934 42.2079 30.8294 41.0503 28.7589 39.42C26.6069 37.7245 25.5798 34.6268 26.346 32.1488C26.6721 31.089 27.3405 30.3065 28.335 29.8011C31.5631 28.1871 35.3128 29.3446 36.6986 31.9205C36.9921 32.4748 37.4648 32.8824 38.0518 33.1433C38.8017 33.4856 40.0081 34.529 40.0081 35.4746V25.7905C36.503 25.3829 33.6336 23.883 32.1011 20.5408Z" fill="#4D63AC"/>
<path d="M38.7528 37.5124C37.8072 38.0994 36.5682 37.4309 35.753 36.6647C35.1824 36.143 34.8237 35.4745 34.4487 34.8224C33.8455 33.7464 32.9814 33.0128 31.6935 32.9638C30.9435 32.9312 30.1936 32.9638 29.7697 33.7301C29.3295 34.4963 29.3784 35.2952 29.7697 36.0615C30.0632 36.6484 30.5523 37.0886 31.074 37.4798C32.9978 38.9145 35.0846 40.0558 37.3018 40.9524C37.905 41.197 38.4919 41.5067 38.981 41.9306C39.4375 42.3219 40.0081 42.7295 40.0081 44.0011V35.4419C40.0081 36.4038 39.519 37.0397 38.7528 37.5124Z" fill="#4D63AC"/>
<path d="M38.7365 46.3814C38.2148 46.8216 37.5953 47.1151 36.9757 47.3922C36.1443 47.7835 35.4595 48.3215 34.84 48.9899C34.1064 49.8051 34.0085 50.6366 34.5629 51.5985C35.0356 52.4299 35.753 52.9842 36.5192 53.5222C37.1877 53.995 37.8887 54.4026 38.5408 54.8917C39.1115 55.3319 40.0081 55.9677 40.0081 57.109V44.0175C40.0081 45.2728 39.2745 45.9086 38.7365 46.3814Z" fill="#4D63AC"/>
<path d="M37.5627 60.5164C36.8616 61.0707 36.2421 61.7228 35.7367 62.4728C35.1824 63.2879 35.1824 64.152 35.6389 64.9998C35.9976 65.6682 36.5356 66.2225 37.1225 66.6953C37.6931 67.1518 38.1985 67.6735 38.7365 68.1789C39.5354 68.9452 39.9919 69.5973 39.9919 70.3961V57.109C39.9919 58.2339 39.4865 58.7556 39.1441 59.1469C38.7039 59.6849 38.117 60.0762 37.5627 60.5164Z" fill="#4D63AC"/>
<path d="M38.4757 72.5644C38.0355 72.8742 37.6442 73.2491 37.3344 73.6893C36.8616 74.3741 36.7475 75.0751 37.2366 75.7924C37.6931 76.4609 38.1659 77.113 38.655 77.7651C39.0789 78.3357 39.356 78.9716 39.4049 79.6889C39.4375 79.9987 39.3723 80.2106 39.1115 80.2595C39.4049 80.2595 39.6984 80.2758 40.0082 80.2758V70.3798C40.0082 71.1949 39.03 72.1894 38.4757 72.5644Z" fill="#4D63AC"/>
<path d="M94.6077 52.4626C93.4502 49.8704 92.3253 47.2618 91.1677 44.6696C91.0536 44.4251 91.0536 44.0012 90.6786 44.0175C90.3689 44.0338 90.3689 44.4251 90.2711 44.6533C89.0646 47.4901 87.8908 50.3432 86.6843 53.1799C86.4887 53.6201 86.3583 54.2885 85.8692 54.2885C85.3475 54.3048 85.1192 53.6527 84.9073 53.1962C84.0595 51.354 83.2444 49.4954 82.4129 47.6368C81.9238 46.5445 81.451 45.4522 80.9782 44.3762C80.8967 44.2131 80.8641 43.9849 80.6195 44.0012C80.4239 44.0175 80.3913 44.1968 80.3261 44.3436C80.2609 44.4903 80.1956 44.637 80.1467 44.8001C78.9729 47.6205 77.7828 50.441 76.6089 53.2614C76.2829 54.044 75.8264 54.6146 74.8808 54.582C74.8482 54.582 74.7993 54.6798 74.7504 54.745H78.223C77.7665 54.5331 77.1795 54.5005 77.4567 53.7668C77.8317 52.756 78.0273 51.5496 78.7121 50.8159C79.2338 50.2453 80.4076 50.7018 81.3043 50.6529C81.4999 50.6366 81.6792 50.6529 81.8749 50.6529C82.1683 50.6366 82.3477 50.7507 82.4292 51.0279C82.8042 52.2343 83.7008 53.2614 83.7171 54.5983C83.7171 54.8102 83.8802 54.7939 83.9943 54.7939C85.4127 54.7939 86.8148 54.7939 88.2331 54.7939C87.1897 54.6146 87.4343 53.9625 87.6625 53.3429C87.9234 52.6256 88.2168 51.9409 88.4777 51.2235C88.6244 50.8159 88.8364 50.6203 89.3092 50.6366C90.1569 50.6692 90.9884 50.6529 91.8362 50.6529C92.0807 50.6529 92.3579 50.604 92.4557 50.8975C92.8633 52.1365 93.7762 53.1799 93.7762 54.5657C93.7762 54.7613 93.9067 54.7776 94.0208 54.7939C94.9664 54.8591 95.9283 54.8755 97.0369 54.7776C95.3577 54.1255 95.3414 54.1255 94.6077 52.4626ZM81.4999 50.1475C80.6358 50.1312 79.7718 50.1475 78.8099 50.1475C79.3316 48.7291 79.8207 47.4575 80.3424 46.0228C80.8804 47.3434 81.3369 48.5172 81.826 49.6747C81.9727 50.0334 81.8749 50.1475 81.4999 50.1475ZM88.9016 50.1149C89.407 48.778 89.8798 47.5064 90.4178 46.0391C91.0047 47.5064 91.5101 48.7454 92.0644 50.1149H88.9016Z" fill="#4D63AC"/>
<path d="M61.5773 52.9028C61.5447 50.5225 61.561 48.1259 61.5447 45.7457C61.5447 45.0446 61.5447 44.3762 62.4414 44.1805C61.3654 44.1805 60.2894 44.1805 59.1156 44.1805C60.3057 44.7512 60.3057 44.7512 60.3057 46.088C60.3057 46.7402 60.2894 47.3923 60.3057 48.0444C60.322 48.4683 60.159 48.5987 59.7351 48.5987C58.0885 48.5824 56.4255 48.5824 54.7789 48.5987C54.3061 48.5987 54.1594 48.4194 54.192 47.9792C54.2246 47.2782 54.2409 46.5771 54.2409 45.8598C54.2409 45.1587 54.1268 44.4088 55.105 44.1968C54.0289 44.1968 52.9692 44.1968 51.8932 44.1968C52.5127 44.3925 52.9855 44.6207 52.9692 45.387C52.9366 48.0118 52.9529 50.6529 52.9529 53.2778C52.9529 53.9299 52.904 54.582 52.0726 54.7613C53.2138 54.7613 54.355 54.7613 55.4799 54.7613C54.2572 54.3538 54.2572 54.3538 54.2409 52.9843C54.2246 51.9083 54.2246 50.816 54.192 49.7399C54.1757 49.3161 54.3224 49.1693 54.7463 49.1693C56.4255 49.1856 58.1048 49.1856 59.784 49.1693C60.1753 49.1693 60.3057 49.2998 60.3057 49.6747C60.2894 50.7507 60.3057 51.8431 60.2731 52.9191C60.2568 53.6527 60.4361 54.5005 59.409 54.7613C60.5339 54.7613 61.6752 54.7613 63.012 54.7613C61.61 54.3212 61.5937 54.3212 61.5773 52.9028Z" fill="#4D63AC"/>
<path d="M74.0493 44.4087C72.3212 43.8218 70.5604 44.2946 68.816 44.1805C69.892 44.6696 69.892 44.6696 69.892 45.9412C69.892 48.2237 69.9083 50.4898 69.892 52.7723C69.892 53.5548 70.1039 54.4678 69.0116 54.7939C70.1365 54.7939 71.2615 54.7939 72.3864 54.7939C72.419 54.7123 72.4516 54.6308 72.5005 54.5656C71.8158 54.5982 71.1963 54.533 71.1963 53.7178C71.1799 50.8485 71.1799 47.9791 71.1636 45.0934C71.1636 44.8163 71.2615 44.6532 71.5712 44.6043C72.9244 44.3598 74.245 45.3054 74.4569 46.7238C74.7178 48.3541 73.9515 49.4627 72.4679 49.691C72.256 49.7236 71.9788 49.6257 71.7995 49.8703C72.7614 50.1311 73.8863 49.8377 74.6851 49.104C76.2503 47.6693 75.9242 45.0608 74.0493 44.4087Z" fill="#4D63AC"/>
<path d="M66.3868 52.9843C66.2401 50.6366 66.3379 48.2726 66.3216 45.925C66.3216 45.2402 66.2564 44.4577 67.1857 44.2131C66.1749 44.2131 65.1641 44.2131 64.1696 44.2131C64.9521 44.3599 65.1314 44.9142 65.1151 45.55C65.0988 48.1422 65.213 50.7507 65.0662 53.3429C65.0336 53.9625 65.001 54.5657 64.2511 54.7939C65.3597 54.7939 66.4846 54.7939 67.5932 54.7939C66.4683 54.3374 66.4683 54.3374 66.3868 52.9843Z" fill="#4D63AC"/>
<path d="M69.0605 27.3555C68.0986 26.8012 67.153 26.2143 66.452 25.3176C66.3216 25.1546 66.1259 24.959 66.289 24.747C66.4357 24.5677 66.6476 24.747 66.8107 24.8122C68.9464 25.497 71.1147 26.1165 73.3483 26.361C74.7666 26.5241 76.185 26.6056 77.5871 26.2306C77.5708 26.035 77.4567 26.0024 77.3589 25.9698C74.9623 25.3502 72.7287 24.3231 70.5278 23.2145C67.0063 21.4375 63.3055 19.9702 60.0611 17.6714C59.2949 17.1171 58.5286 16.5465 57.6482 16.1878C54.6158 14.9651 52.1541 15.3727 50.6215 18.3725C49.9042 19.7745 49.2032 21.1766 48.5347 22.595C47.5076 24.8122 45.7469 26.1328 43.4318 26.7686C42.6493 26.9806 41.8504 27.111 41.0515 27.2903C40.0081 27.3718 40.0081 27.3718 40.0081 27.3718V29.4424C40.2527 29.1978 40.8233 29.263 41.1168 29.2467C42.1113 29.2304 43.1058 29.263 44.1655 29.2304L47.3283 29.1489C45.5838 29.475 44.0839 30.4695 43.3177 31.9041C43.0242 32.4585 42.5514 32.866 41.9645 33.1269C41.2146 33.4693 40.0081 34.5127 40.0081 35.4583C40.0081 36.4038 40.4809 37.056 41.2472 37.5125C42.1928 38.0994 43.4318 37.4309 44.247 36.6647C44.8176 36.143 45.1763 35.4746 45.5512 34.8061C46.1545 33.7301 47.0185 32.9965 48.3065 32.9476C49.0564 32.9149 49.8064 32.9639 50.2303 33.7138C50.6705 34.4801 50.6215 35.2789 50.2303 36.0452C49.9368 36.6321 49.4477 37.0723 48.926 37.4636C47.0022 38.8982 44.9154 40.0395 42.6982 40.9361C42.095 41.1807 41.508 41.4904 41.0189 41.9143C40.5624 42.3056 39.9918 42.7132 39.9918 43.9848C39.9918 45.2565 40.7255 45.8923 41.2635 46.3488C41.7852 46.789 42.4047 47.0825 43.0079 47.3596C43.8231 47.7509 44.5241 48.2889 45.1274 48.9573C45.861 49.7725 45.9588 50.604 45.4045 51.5659C44.9317 52.3973 44.2144 52.9516 43.4481 53.4896C42.7797 53.9624 42.0786 54.37 41.4265 54.8591C40.8559 55.2993 39.9592 55.9351 39.9592 57.0763C39.9592 58.2176 40.4646 58.723 40.807 59.1143C41.2635 59.6523 41.8504 60.0435 42.4047 60.4837C43.1058 61.038 43.7253 61.6902 44.2307 62.4401C44.785 63.2553 44.785 64.1193 44.3285 64.9671C43.9698 65.6518 43.4318 66.1899 42.8449 66.6627C42.2743 67.1191 41.7689 67.6408 41.2309 68.1462C40.432 68.9125 39.9755 69.5646 39.9755 70.3635C39.9755 71.1623 40.9537 72.1568 41.508 72.5318C41.9482 72.8416 42.3395 73.2166 42.6493 73.6567C43.1221 74.3415 43.2362 75.0425 42.7471 75.7599C42.2906 76.4283 41.8178 77.0804 41.3287 77.7326C40.9048 78.3032 40.6277 78.939 40.5787 79.6563C40.5461 80.0639 40.6603 80.2922 41.1005 80.2269C41.8993 79.0368 43.2362 78.401 44.1003 77.2761C44.8339 76.3305 45.3719 75.3523 45.2089 74.0806C45.0621 72.9557 44.5404 72.1079 43.6112 71.4721C42.5351 70.7222 42.5025 70.1678 43.497 69.3038C44.6709 68.2767 45.7469 67.1844 46.5946 65.8801C47.5728 64.3965 47.5891 62.9129 46.6436 61.3804C45.8936 60.1577 44.9643 59.1306 43.8557 58.2339C42.8938 57.435 42.8775 57.1579 43.8557 56.3753C44.8013 55.6091 45.7795 54.8754 46.7577 54.1418C49.7412 51.9245 48.926 49.0878 47.2468 47.0988C46.4642 46.1695 45.4534 45.55 44.3774 44.9956C43.9861 44.8 43.3829 44.7185 43.4155 44.1479C43.4318 43.5936 44.0187 43.5121 44.41 43.3164C46.7577 42.1263 49.1216 40.985 51.1922 39.3547C53.3442 37.6592 54.3713 34.5616 53.605 32.0835C53.279 31.0238 52.6105 30.2249 51.616 29.7358C50.8824 29.3608 50.0998 29.1489 49.3499 29.0511L51.9258 28.9859C53.1812 28.9859 54.2735 28.9859 55.6429 28.9859C55.1049 28.4968 54.7137 28.187 54.3876 27.7957C54.0778 27.4371 53.6866 27.0132 54.0615 26.5078C54.4365 25.9861 54.9745 26.0187 55.5125 26.2795C56.6864 26.8338 57.8602 27.4045 59.0503 27.9099C60.3383 28.4642 61.6588 28.8554 63.2239 29.0022C62.7022 28.2848 62.0827 27.8772 61.5936 27.3555C61.1045 26.8501 60.485 26.4589 60.0774 25.6926C63.3218 26.7523 66.3216 28.2522 69.7289 27.8609C69.5822 27.6164 69.3214 27.486 69.0605 27.3555Z" fill="#4D63AC"/>
<path d="M46.2686 18.9105C45.4208 21.845 43.0569 23.8177 39.9919 24.5188C39.9919 24.5188 39.9919 25.3013 39.9919 25.7741C43.497 25.3828 46.3501 23.8829 47.8989 20.5408C48.4369 19.3669 48.9423 18.1605 49.5782 17.0193C51.3715 13.7912 54.2898 12.7641 57.7135 14.1336C60.1916 15.1281 62.4251 16.5954 64.5608 18.1605C67.1204 20.0354 69.8757 21.519 72.8266 22.6276C75.5166 23.6384 78.2229 24.6329 81.1575 24.584C83.2443 24.5514 85.0703 23.7525 86.7659 22.1711C83.815 22.3993 81.1901 21.8287 78.5816 21.1114C72.9081 19.5463 67.8378 16.8562 63.2403 13.2043C61.398 11.737 59.3927 10.4491 57.0287 9.95997C51.8606 8.85135 48.7793 10.4654 47.3609 15.177C46.9696 16.4161 46.6436 17.6714 46.2686 18.9105Z" fill="#4D63AC"/>
<path d="M43.0242 13.2696L47.6707 9.71548H41.8667L40.0081 4.13977V15.4542L44.7361 18.7149L43.0242 13.2696Z" fill="#4D63AC"/>
</svg>
