<svg width="40" height="40" viewBox="0 0 40 40" fill="none" xmlns="http://www.w3.org/2000/svg">
<path d="M4.16669 33.3333H10V19.1667L1.66669 12.9167V30.8333C1.66669 32.2146 2.78544 33.3333 4.16669 33.3333Z" fill="#4285F4"/>
<path d="M30 33.3333H35.8333C37.2146 33.3333 38.3333 32.2146 38.3333 30.8333V12.9167L30 19.1667V33.3333Z" fill="#34A853"/>
<path d="M30 8.33334V19.1667L38.3333 12.9167V9.58334C38.3333 6.49375 34.8062 4.72917 32.3333 6.58334L30 8.33334Z" fill="#FBBC04"/>
<path fill-rule="evenodd" clip-rule="evenodd" d="M10 19.1667V8.33334L20 15.8333L30 8.33334V19.1667L20 26.6667L10 19.1667Z" fill="#EA4335"/>
<path d="M1.66669 9.58334V12.9167L10 19.1667V8.33334L7.66669 6.58334C5.19377 4.72917 1.66669 6.49375 1.66669 9.58334Z" fill="#C5221F"/>
</svg>
