<svg width="140" height="80" viewBox="0 0 140 80" fill="none" xmlns="http://www.w3.org/2000/svg">
<g clip-path="url(#clip0)">
<rect width="80" height="80.0003" fill="#EEEBEA"/>
<path d="M81.4829 48.008C81.4829 44.408 79.3589 42.5 76.6229 41.456V41.42C78.9989 40.268 80.8709 38.432 80.8709 34.976C80.8709 30.692 77.3789 27.344 71.3309 27.344C65.1029 27.344 62.1509 31.232 61.5029 34.904L65.7149 35.84C66.1829 32.816 68.5589 31.304 71.3309 31.304C74.5349 31.304 76.2629 32.996 76.2629 35.444C76.2629 37.712 74.2469 39.656 71.3309 39.656H68.5589V43.652H71.5829C74.7509 43.652 76.8389 45.308 76.8389 48.08C76.8389 50.564 74.4989 52.328 71.5109 52.328C69.4229 52.328 66.0389 51.248 65.5349 47.468L61.2869 48.368C62.1509 53.984 67.0109 56.324 71.4029 56.324C77.4149 56.324 81.4829 52.364 81.4829 48.008ZM84.2871 49.772H98.7951V56H103.151V49.772H107.327V45.776H103.151V27.812H97.7151L84.2871 44.84V49.772ZM88.4631 45.776L98.7951 32.744V45.776H88.4631ZM122.54 33.896C122.54 30.368 119.696 27.524 116.168 27.524C112.676 27.524 109.832 30.368 109.832 33.896C109.832 37.388 112.676 40.268 116.168 40.268C119.696 40.268 122.54 37.388 122.54 33.896ZM135.536 27.812H131.324L112.964 56H117.212L135.536 27.812ZM118.94 33.896C118.94 35.408 117.68 36.632 116.168 36.632C114.656 36.632 113.432 35.408 113.432 33.896C113.432 32.384 114.656 31.16 116.168 31.16C117.68 31.16 118.94 32.384 118.94 33.896ZM138.668 49.844C138.668 46.316 135.824 43.472 132.332 43.472C128.804 43.472 125.96 46.316 125.96 49.844C125.96 53.336 128.804 56.18 132.332 56.18C135.824 56.18 138.668 53.336 138.668 49.844ZM135.068 49.844C135.068 51.356 133.844 52.58 132.332 52.58C130.82 52.58 129.56 51.356 129.56 49.844C129.56 48.332 130.82 47.108 132.332 47.108C133.844 47.108 135.068 48.332 135.068 49.844Z" fill="#0D0E10"/>
<path d="M-12 40.5C-12 56.7924 1.20765 70 17.5 70C33.7924 70 47 56.7924 47 40.5C47 24.2076 33.7924 11 17.5 11C1.20765 11 -12 24.2076 -12 40.5Z" stroke="#0D0E10" stroke-width="2"/>
<path d="M17.5 18C21.5295 18 25.4851 19.0821 28.9534 21.1333C32.4218 23.1845 35.2757 26.1295 37.2169 29.6605C39.1581 33.1916 40.1155 37.1792 39.9889 41.2067C39.8623 45.2342 38.6565 49.1539 36.4974 52.5561L17.5 40.5V18Z" fill="#5DA283"/>
</g>
<defs>
<clipPath id="clip0">
<rect width="140" height="80" fill="white"/>
</clipPath>
</defs>
</svg>
