<svg width="150" height="100" viewBox="0 0 150 100" fill="none" xmlns="http://www.w3.org/2000/svg">
<path d="M75 78C90.464 78 103 65.464 103 50C103 34.536 90.464 22 75 22C59.536 22 47 34.536 47 50C47 65.464 59.536 78 75 78Z" fill="url(#paint0_radial)"/>
<path d="M54.4356 49.9928C54.4356 37.1673 62.5322 26.2317 73.8956 22.0239C58.9467 22.6073 47 34.9039 47 50.0006C47 65.1128 58.97 77.425 73.9422 77.9773C62.5633 73.7773 54.4356 62.8339 54.4356 49.9928Z" fill="url(#paint1_radial)"/>
<path d="M54.4356 49.9928C54.4356 37.1673 62.5322 26.2317 73.8956 22.0239C58.9467 22.6073 47 34.9039 47 50.0006C47 65.1128 58.97 77.425 73.9422 77.9773C62.5633 73.7773 54.4356 62.8339 54.4356 49.9928Z" fill="url(#paint2_radial)"/>
<path d="M74.5256 47.3324C76.3845 42.7513 72.9079 41.5068 70.6445 41.5068H63.1468C63.769 41.9346 63.6679 42.5024 63.5434 42.8524L59.1723 56.8135C59.0012 57.3657 58.3479 57.9491 57.9979 58.0346H64.0645C63.7301 57.9724 63.2556 57.4979 63.4268 56.8524L65.0134 51.8046C65.0212 51.8046 72.3168 52.7924 74.5256 47.3324V47.3324ZM68.6301 42.7902C69.4234 42.7902 71.6245 42.8991 70.2012 47.0602C68.7156 51.4313 65.4179 50.5291 65.4179 50.5291L67.8445 42.7902H68.6301Z" fill="white"/>
<path d="M79.379 58.0425H83.4623C82.1556 57.6225 80.2267 56.3859 79.4567 55.507C80.079 54.8303 80.849 53.9747 80.989 52.2403H78.8734C78.8734 52.2403 79.2779 52.4736 79.2779 52.9714C79.2779 53.4303 79.0912 54.0681 78.7334 54.5114C78.1112 53.5936 77.4501 52.5436 77.2167 51.0036C78.049 50.5914 79.2156 50.1403 80.1412 49.3314C81.0201 48.5614 81.2223 47.8303 81.2379 47.3559V47.2936C81.2379 46.7959 81.0434 46.3292 80.6856 45.9792C80.0712 45.3725 79.1068 45.1236 78.0879 45.3103C77.2712 45.4659 76.579 45.9014 76.229 46.2203C75.0001 47.3792 74.8445 49.2847 74.8445 50.1481C74.8445 50.3581 74.8523 50.5136 74.8601 50.607C74.7901 50.6381 74.6656 50.6847 74.6656 50.6847C73.7634 51.0192 71.3601 51.657 70.5045 53.6325C70.3956 53.8814 70.2401 54.4259 70.2401 55.0559C70.2401 55.6003 70.3567 56.207 70.7067 56.7592C71.3134 57.7081 72.3401 58.307 73.989 58.2759C75.7779 58.2447 77.5434 57.0236 77.8545 56.7981C78.1579 57.0859 78.959 57.8403 79.379 58.0425V58.0425ZM79.379 46.9981C79.169 48.3281 77.4423 49.6736 77.0223 49.8525C76.9445 49.1059 76.9834 47.9236 77.6056 46.9592C78.0179 46.3214 78.5701 46.0414 79.0134 46.197C79.3712 46.3214 79.4101 46.6481 79.379 46.9981ZM76.9834 55.8959C76.7423 56.0436 75.7934 56.5259 74.9067 56.6114C74.0823 56.6892 72.7134 56.3703 72.7212 54.7214C72.7212 53.3136 74.2534 52.2792 75.0856 51.9214C75.4201 53.2825 76.1745 54.8225 76.9834 55.8959V55.8959Z" fill="white"/>
<path d="M91.7845 42.8057C94.2112 42.2224 96.2101 44.1202 96.389 44.2524L97.0812 42.0513C96.1245 41.7635 89.1634 39.4068 84.2401 45.0224C81.2145 48.4757 80.4756 55.5535 84.3101 57.4513C88.4168 59.4813 92.9512 57.1402 93.2856 56.9768L95.1601 51.0035C95.3623 50.2802 95.8212 49.8135 96.6301 49.5102H90.1123C91.0612 49.9068 90.9912 50.6224 90.9212 50.9179L89.0467 56.8913C88.7979 56.9379 83.5556 58.2446 86.4879 49.0746C87.1334 47.1068 88.899 43.4979 91.7845 42.8057Z" fill="white"/>
<defs>
<radialGradient id="paint0_radial" cx="0" cy="0" r="1" gradientUnits="userSpaceOnUse" gradientTransform="translate(58.8764 32.8974) scale(52.291)">
<stop stop-color="#00A1DF"/>
<stop offset="0.13" stop-color="#0092D7"/>
<stop offset="0.37" stop-color="#006CC1"/>
<stop offset="0.62" stop-color="#003DA6"/>
<stop offset="0.73" stop-color="#043799"/>
<stop offset="0.93" stop-color="#102777"/>
<stop offset="1" stop-color="#152169"/>
</radialGradient>
<radialGradient id="paint1_radial" cx="0" cy="0" r="1" gradientUnits="userSpaceOnUse" gradientTransform="translate(55.0697 26.3181) scale(86.702)">
<stop offset="0.02" stop-color="white"/>
<stop offset="0.03" stop-color="#FBFEFF"/>
<stop offset="0.09" stop-color="#BAE7F9"/>
<stop offset="0.14" stop-color="#87D5F4"/>
<stop offset="0.19" stop-color="#63C9F1"/>
<stop offset="0.23" stop-color="#4CC1EF"/>
<stop offset="0.26" stop-color="#44BEEE"/>
<stop offset="0.28" stop-color="#37B8EB"/>
<stop offset="0.35" stop-color="#19ACE5"/>
<stop offset="0.41" stop-color="#07A4E0"/>
<stop offset="0.45" stop-color="#00A1DF"/>
<stop offset="0.79" stop-color="#0045AB"/>
<stop offset="0.82" stop-color="#003DA6"/>
<stop offset="0.96" stop-color="#0059B6"/>
</radialGradient>
<radialGradient id="paint2_radial" cx="0" cy="0" r="1" gradientUnits="userSpaceOnUse" gradientTransform="translate(68.7823 44.5373) scale(35.2279)">
<stop offset="0.32" stop-color="#44BEEE" stop-opacity="0"/>
<stop offset="0.48" stop-color="#2B99D9" stop-opacity="0.27"/>
<stop offset="0.67" stop-color="#1476C6" stop-opacity="0.58"/>
<stop offset="0.82" stop-color="#0561BA" stop-opacity="0.84"/>
<stop offset="0.92" stop-color="#0059B6"/>
</radialGradient>
</defs>
</svg>
