<svg width="150" height="100" viewBox="0 0 150 100" fill="none" xmlns="http://www.w3.org/2000/svg">
<path fill-rule="evenodd" clip-rule="evenodd" d="M137.339 66.3962C135.923 66.3962 134.779 66.1056 133.512 65.4285C133.453 65.3987 133.409 65.3473 133.388 65.2851C133.367 65.2229 133.371 65.1549 133.399 65.0956L134.614 62.4635C134.629 62.4314 134.65 62.4025 134.677 62.3788C134.703 62.355 134.734 62.3368 134.767 62.3251C134.837 62.3045 134.912 62.3115 134.976 62.3446C135.656 62.7129 136.322 62.8982 136.954 62.8982C137.733 62.8982 138.306 62.6454 138.887 61.3711L133.763 49.2438H130.417V61.3723C130.417 61.4419 130.389 61.5084 130.339 61.5572C130.29 61.6061 130.224 61.6334 130.155 61.6331H126.571C126.537 61.6332 126.503 61.6266 126.472 61.6136C126.44 61.6006 126.411 61.5814 126.387 61.5572C126.363 61.533 126.344 61.5042 126.33 61.4724C126.317 61.4407 126.31 61.4067 126.31 61.3723V49.2438H124.59C124.555 49.2441 124.521 49.2376 124.49 49.2247C124.458 49.2118 124.429 49.1928 124.405 49.1687C124.381 49.1446 124.361 49.1159 124.348 49.0842C124.334 49.0525 124.327 49.0185 124.327 48.9841V45.9311C124.328 45.8617 124.356 45.7955 124.405 45.7469C124.454 45.6983 124.521 45.6712 124.59 45.6715H126.31V44.9222C126.31 41.4448 128.06 39.6055 131.369 39.6055C132.729 39.6055 133.638 39.8205 134.348 40.0287C134.401 40.0445 134.448 40.077 134.481 40.1216C134.514 40.1661 134.532 40.2202 134.532 40.2758V43.2556C134.532 43.2972 134.523 43.3382 134.504 43.3754C134.485 43.4125 134.459 43.4448 134.425 43.4695C134.391 43.4929 134.352 43.508 134.31 43.5138C134.269 43.5195 134.227 43.5157 134.188 43.5027C133.516 43.2819 132.916 43.1343 132.17 43.1343C130.916 43.1343 130.358 43.7761 130.358 45.2139V45.7035H136.48C136.588 45.7035 136.687 45.7687 136.723 45.8694L140.91 56.6469L144.73 45.8774C144.748 45.8259 144.782 45.7815 144.827 45.7503C144.871 45.7191 144.924 45.7028 144.978 45.7035H148.709C148.797 45.7035 148.875 45.7447 148.925 45.8144C148.948 45.8493 148.963 45.8893 148.968 45.9312C148.973 45.973 148.967 46.0154 148.952 46.0547L142.736 61.9076C141.446 65.1791 139.984 66.3962 137.339 66.3962V66.3962ZM120.621 43.7337C119.203 43.7337 118.049 42.599 118.049 41.1978C118.049 39.7954 119.203 38.6618 120.621 38.6618C122.039 38.6618 123.191 39.7954 123.191 41.1978C123.191 42.599 122.039 43.7337 120.621 43.7337ZM112.679 49.2438V56.5543C112.679 57.7073 113.192 58.2221 114.341 58.2221C115.087 58.2221 115.754 58.0642 116.444 57.7222C116.484 57.7023 116.528 57.6929 116.573 57.6949C116.618 57.6969 116.661 57.7102 116.699 57.7336C116.737 57.7565 116.768 57.7889 116.79 57.8276C116.812 57.8663 116.823 57.91 116.823 57.9544V60.8495C116.823 60.8951 116.81 60.9397 116.787 60.9787C116.763 61.0178 116.73 61.0498 116.69 61.0714C115.686 61.6354 114.62 61.8973 113.334 61.8973C110.174 61.8973 108.572 60.2856 108.572 57.1091V49.2438H106.848C106.814 49.2439 106.78 49.2373 106.748 49.2244C106.717 49.2114 106.688 49.1923 106.664 49.1682C106.64 49.1441 106.621 49.1154 106.608 49.0838C106.594 49.0523 106.588 49.0184 106.587 48.9841V45.9471C106.587 45.803 106.705 45.6875 106.848 45.6875H108.572V41.7068C108.572 41.565 108.689 41.4494 108.834 41.4494H112.416C112.562 41.4494 112.679 41.565 112.679 41.7068V45.6875H116.621C116.765 45.6875 116.882 45.803 116.882 45.9471V48.9841C116.882 49.0185 116.875 49.0524 116.862 49.0841C116.849 49.1158 116.83 49.1445 116.805 49.1686C116.781 49.1927 116.752 49.2118 116.721 49.2247C116.689 49.2376 116.655 49.2441 116.621 49.2438H112.679V49.2438ZM97.6677 61.9843C92.872 61.9843 89.115 58.3547 89.115 53.7198C89.115 49.0333 92.8981 45.3638 97.7268 45.3638C102.54 45.3638 106.309 49.0081 106.309 53.6603C106.309 58.3284 102.515 61.9843 97.6677 61.9843V61.9843ZM97.6677 48.9807C95.0903 48.9807 93.222 50.9482 93.222 53.6603C93.222 56.3598 95.1585 58.3982 97.7268 58.3982C100.32 58.3982 102.202 56.4307 102.202 53.7198C102.202 51.0168 100.253 48.9807 97.6677 48.9807ZM80.4509 61.9557C78.4337 61.9557 76.7779 61.2156 75.4131 59.7034V66.0484C75.4128 66.0827 75.4058 66.1166 75.3924 66.1482C75.379 66.1797 75.3595 66.2083 75.3351 66.2322C75.3107 66.2561 75.2818 66.275 75.2502 66.2876C75.2185 66.3002 75.1847 66.3064 75.1506 66.3058H71.5686C71.5345 66.3064 71.5007 66.3002 71.469 66.2876C71.4373 66.275 71.4084 66.2561 71.384 66.2322C71.3596 66.2083 71.3402 66.1797 71.3268 66.1482C71.3134 66.1166 71.3063 66.0827 71.3061 66.0484V45.9471C71.3061 45.803 71.4231 45.6875 71.5686 45.6875H75.1506C75.296 45.6875 75.4131 45.803 75.4131 45.9471V47.7545C76.7779 46.1485 78.4337 45.3638 80.4509 45.3638C84.2011 45.3638 87.9979 48.212 87.9979 53.6603C87.9979 59.1063 84.2011 61.9557 80.4509 61.9557V61.9557ZM79.6224 48.9521C77.1711 48.9521 75.3233 50.9745 75.3233 53.6603C75.3233 56.345 77.1711 58.3685 79.6224 58.3685C82.0998 58.3685 83.8306 56.4319 83.8306 53.6603C83.8306 50.931 82.06 48.9521 79.6224 48.9521ZM63.0533 49.2587C67.9309 50.4277 69.9185 52.2465 69.9185 55.5294C69.9185 59.414 66.9081 61.9259 62.2533 61.9259C59.0052 61.9427 55.8651 60.7534 53.4335 58.5858C53.4081 58.5643 53.3872 58.5379 53.3721 58.5081C53.3569 58.4784 53.3478 58.4459 53.3453 58.4125C53.3427 58.3792 53.3468 58.3457 53.3573 58.314C53.3677 58.2823 53.3844 58.2529 53.4062 58.2278L55.5973 55.6552C55.6197 55.6288 55.6472 55.6071 55.678 55.5914C55.7088 55.5757 55.7424 55.5663 55.7768 55.5637C55.8465 55.5588 55.9155 55.5804 55.97 55.6243C58.1019 57.4465 60.0066 58.2221 62.3419 58.2221C64.4455 58.2221 65.7512 57.3264 65.7512 55.8805C65.7512 54.5765 65.1057 53.849 61.2748 52.9774C56.778 51.9033 54.1745 50.5135 54.1745 46.5866C54.1745 42.925 57.1928 40.3673 61.5124 40.3673C64.45 40.3673 66.9661 41.2264 69.1969 42.9948C69.306 43.0806 69.3275 43.235 69.248 43.346L67.2945 46.065C67.2527 46.1221 67.1902 46.1604 67.1206 46.1713C67.0508 46.1819 66.9797 46.1642 66.9229 46.1221C65.0478 44.7426 63.2579 44.0723 61.4533 44.0723C59.5918 44.0723 58.3406 44.9543 58.3406 46.2674C58.3406 47.6549 59.052 48.3172 63.0533 49.2587V49.2587ZM46.2956 51.3897C46.2786 51.6425 46.2627 51.8941 46.2377 52.1435C46.2229 52.2922 46.2013 52.4386 46.1843 52.585C46.157 52.8104 46.1309 53.0346 46.0979 53.2565C46.074 53.4121 46.0456 53.5665 46.0184 53.7209C45.982 53.9325 45.9468 54.1441 45.9047 54.3535C45.8729 54.5113 45.8365 54.6669 45.8013 54.8236C45.7558 55.0272 45.7104 55.2297 45.6592 55.431C45.6195 55.5889 45.5751 55.7444 45.532 55.9011C45.4774 56.0979 45.4229 56.2946 45.3626 56.4902C45.2561 56.8389 45.1409 57.1848 45.0172 57.5277C44.8381 58.0214 44.6429 58.5089 44.4319 58.9896C44.2848 59.3191 44.1317 59.6459 43.9728 59.9699C43.8819 60.1518 43.7875 60.3302 43.6932 60.5087C43.6182 60.6482 43.5444 60.7866 43.4671 60.925C43.3666 61.1028 43.2639 61.2794 43.1591 61.4546C43.0796 61.5873 43.0011 61.72 42.9193 61.8516C42.8091 62.0289 42.6943 62.2027 42.5784 62.3766C42.4954 62.5013 42.4147 62.6271 42.3295 62.7495C42.2068 62.9279 42.0784 63.1018 41.95 63.2768C41.8659 63.3912 41.7852 63.5056 41.6988 63.6189C41.5579 63.8042 41.4113 63.9837 41.2636 64.1645C41.1851 64.2617 41.109 64.3601 41.0295 64.4562C40.8488 64.6712 40.6612 64.8805 40.4737 65.0899C40.4215 65.1459 40.3737 65.2054 40.3215 65.2615C40.0771 65.5257 39.8282 65.7842 39.5714 66.037C39.526 66.0828 39.476 66.1262 39.4294 66.172C39.2203 66.3763 39.0074 66.5765 38.7907 66.7725C38.6986 66.856 38.6032 66.9338 38.5111 67.015C38.3338 67.1694 38.1577 67.3239 37.9759 67.4726C37.8656 67.5629 37.7531 67.6487 37.6418 67.7368C37.4713 67.8706 37.302 68.0045 37.1281 68.1349C37.0065 68.2252 36.8826 68.311 36.7599 68.3991L36.3747 68.6702C36.411 68.6439 36.4508 68.6222 36.4883 68.597C36.4451 68.6267 36.4008 68.6519 36.3576 68.6816C36.3212 68.7068 36.286 68.7331 36.2497 68.7571C36.119 68.8452 35.9871 68.9299 35.8553 69.0145C35.631 69.1601 35.404 69.3016 35.1746 69.4389L35.095 69.4846C35.1121 69.4755 35.1303 69.4663 35.1462 69.456L34.9087 69.5945C34.7405 69.6928 34.5723 69.7889 34.4018 69.8827L34.178 70.0017C34.0473 70.0714 33.9143 70.1401 33.7813 70.2076L33.712 70.2419C33.6097 70.2934 33.5097 70.346 33.4063 70.3963C33.2677 70.4627 33.129 70.529 32.9881 70.5942L32.8745 70.6445C32.7495 70.7017 32.6245 70.7578 32.4983 70.8127L32.4438 70.8367C32.3335 70.8847 32.221 70.9305 32.1097 70.9774C31.9156 71.0582 31.7201 71.1357 31.5233 71.2096C31.3903 71.2599 31.2585 71.3091 31.1255 71.3572L30.9539 71.4201C30.8073 71.4715 30.6584 71.5207 30.5096 71.5688C30.388 71.6088 30.2664 71.6489 30.1436 71.6866L30.0948 71.7015C29.963 71.7427 29.8311 71.7815 29.6982 71.8193L29.3186 71.9268C29.1561 71.9703 28.9947 72.0149 28.8311 72.0561L28.7481 72.0744L28.5436 72.1247C28.5799 72.1167 28.614 72.1053 28.6504 72.0972L28.414 72.151C28.4561 72.1407 28.5004 72.135 28.5436 72.1247C28.4436 72.1487 28.3424 72.167 28.2424 72.1899L28.2276 72.1933C28.0651 72.2288 27.9038 72.2665 27.7401 72.2986C27.5708 72.3317 27.4003 72.3603 27.2299 72.3889C27.1298 72.4061 27.031 72.4278 26.931 72.4438C26.9776 72.4358 27.023 72.4244 27.0696 72.4164L26.823 72.4576C26.8594 72.4519 26.8957 72.4496 26.931 72.4438L26.7639 72.4679L26.6298 72.4907C26.4037 72.5239 26.1753 72.5491 25.9468 72.5765C25.7991 72.5937 25.6514 72.6154 25.5014 72.6291L25.4673 72.6337H25.4457C25.3843 72.6394 25.3207 72.6417 25.2593 72.6475C25.1184 72.66 24.9775 72.668 24.8365 72.6783C24.3581 72.7127 23.8763 72.7344 23.3899 72.739C23.3467 72.739 23.3058 72.7447 23.2637 72.7447H23.0899C23.049 72.7447 23.0103 72.7401 22.9694 72.739C22.4719 72.7336 21.9746 72.7126 21.4784 72.676C21.3432 72.6658 21.2068 72.6577 21.0716 72.6463C21.017 72.6406 20.9613 72.6394 20.9057 72.6337H20.8852C20.4804 72.5922 20.0768 72.5396 19.6749 72.4759C19.7329 72.485 19.792 72.4896 19.8499 72.4976C19.7056 72.4759 19.5579 72.4633 19.4147 72.4404L19.2101 72.4038C19.2647 72.413 19.3181 72.4278 19.3726 72.437C19.2749 72.421 19.1794 72.3981 19.0817 72.3809L19.0476 72.3752C18.9874 72.3649 18.9294 72.35 18.8703 72.3398C18.4855 72.2707 18.1024 72.1921 17.7214 72.1041L17.8305 72.1258L17.6509 72.0847L17.7214 72.1041C17.5566 72.0652 17.3964 72.016 17.2327 71.9726L17.2589 71.9794C17.2418 71.976 17.2259 71.9703 17.2089 71.9657L17.2327 71.9726C16.902 71.8868 16.5713 71.801 16.2463 71.7015L16.2054 71.69C16.1611 71.6763 16.1179 71.6603 16.0736 71.6454L16.0531 71.6386C15.8702 71.5802 15.6906 71.5127 15.5088 71.4498L15.7452 71.531C15.6201 71.4887 15.4963 71.4441 15.3724 71.3995L15.5088 71.4498C15.2304 71.3537 14.9519 71.2576 14.6792 71.1513L14.5417 71.0975C14.5224 71.0895 14.5042 71.0803 14.4849 71.0735C14.2979 70.9977 14.1119 70.9195 13.9269 70.839C14.0485 70.8916 14.1712 70.9408 14.2928 70.9911C14.1121 70.9168 13.9326 70.8378 13.7541 70.7601C13.8121 70.7852 13.8689 70.8138 13.9269 70.839C13.736 70.7566 13.5428 70.6766 13.3541 70.5885L13.3132 70.5713C13.2882 70.5599 13.2621 70.5496 13.2371 70.537C13.1473 70.4958 13.0621 70.4455 12.9734 70.4032C12.7916 70.3139 12.6098 70.227 12.4302 70.1344C12.5836 70.2133 12.7404 70.2865 12.8961 70.3631C12.6732 70.2537 12.452 70.1408 12.2325 70.0246C12.2995 70.06 12.3632 70.0989 12.4302 70.1344C12.2791 70.0554 12.1291 69.9776 11.9802 69.8964L11.9256 69.8678C11.8699 69.8381 11.8154 69.8049 11.7609 69.774C11.6893 69.7351 11.6222 69.6905 11.5517 69.6494L11.4915 69.615L11.5222 69.6322C11.2756 69.4904 11.0324 69.3462 10.7926 69.1964C10.8642 69.241 10.9324 69.2913 11.0051 69.3359C10.8881 69.265 10.7744 69.1895 10.6597 69.1175L10.6494 69.1106L10.4744 68.9996C10.3858 68.9424 10.3017 68.8795 10.2142 68.8212C10.0267 68.6965 9.83461 68.5787 9.65051 68.4483C9.78802 68.5455 9.93462 68.6313 10.0744 68.7251C9.82893 68.5604 9.58119 68.3991 9.34254 68.2241L9.39254 68.2618C9.3755 68.2504 9.35959 68.2367 9.34254 68.2241C9.1198 68.0594 8.90274 67.8878 8.68569 67.7162L8.67546 67.7082L8.67319 67.7071C8.57773 67.6304 8.48 67.5572 8.38454 67.4794L8.3834 67.4783L8.3459 67.4463C8.08225 67.2289 7.82087 67.007 7.56745 66.7782L7.54699 66.7611L7.53108 66.7462C7.43789 66.6627 7.35153 66.5746 7.26061 66.4888C7.08106 66.3218 6.9015 66.1548 6.72763 65.9821L6.70604 65.9615L6.66399 65.9215L6.70604 65.9615C6.63444 65.8906 6.56626 65.8162 6.4958 65.7442C6.55262 65.8025 6.60603 65.8643 6.66399 65.9215C6.60603 65.8631 6.55148 65.8014 6.49353 65.7419L6.40034 65.6435C6.24238 65.4788 6.08328 65.3164 5.92986 65.1471L5.92759 65.1436C5.84008 65.0476 5.75485 64.9492 5.66962 64.8519L5.60371 64.7753C5.37229 64.5094 5.14647 64.2386 4.9264 63.9632C4.90367 63.9357 4.88208 63.906 4.86049 63.8774C4.64671 63.6076 4.43907 63.333 4.23772 63.0538C4.21272 63.0183 4.19 62.9817 4.16499 62.9474C4.03728 62.7664 3.91188 62.5837 3.78884 62.3995C3.72633 62.3057 3.66156 62.2119 3.60019 62.1158C3.57178 62.0723 3.54678 62.0277 3.51951 61.9843C3.40381 61.8022 3.29091 61.6184 3.18085 61.4329C3.16721 61.4077 3.1513 61.3837 3.13653 61.3597C3.09448 61.2899 3.0513 61.2213 3.01039 61.1504C2.9797 61.0978 2.95243 61.0428 2.92288 60.9891C2.81643 60.7991 2.71262 60.6077 2.6115 60.4149C2.56264 60.3245 2.5115 60.2364 2.4649 60.1449C2.43536 60.0877 2.40922 60.0294 2.38081 59.9722C2.28009 59.7696 2.18309 59.5652 2.08988 59.3591C2.05238 59.2801 2.01261 59.2012 1.97624 59.1211L1.91715 58.9827C1.81146 58.7448 1.71259 58.5034 1.61599 58.2609L1.53645 58.0676L1.50349 57.9773C1.39138 57.6849 1.28566 57.3901 1.18643 57.093L1.14779 56.9832L1.13642 56.9478C0.855444 56.0981 0.625471 55.2321 0.447751 54.3546L0.43866 54.3089C0.420477 54.2185 0.407976 54.127 0.39093 54.0378C0.340873 53.7786 0.295409 53.5185 0.254559 53.2576L0.237513 53.157C0.21933 53.0289 0.207966 52.8985 0.192056 52.7692C0.160349 52.5348 0.132692 52.2999 0.109097 52.0646C0.106824 52.0417 0.102278 52.0188 0.101142 51.9948C0.0977325 51.9639 0.0988689 51.9319 0.096596 51.8999C0.033986 51.2256 0.00175427 50.5489 0 49.8718C0 49.5778 0.0113642 49.285 0.0227285 48.9933C0.0181828 49.126 0.00681854 49.2575 0.0045457 49.3913C0.00681854 49.2575 0.0181828 49.126 0.0227285 48.9933C0.029547 48.8274 0.0363656 48.6615 0.045457 48.4957C0.0511391 48.4099 0.0511391 48.323 0.0579576 48.2372C0.0511391 48.323 0.0511391 48.4099 0.045457 48.4957C0.059094 48.2749 0.0772768 48.0564 0.096596 47.838C0.0840954 47.9706 0.067049 48.1033 0.0579576 48.2372C0.067049 48.1022 0.0852318 47.9695 0.096596 47.8345C0.11137 47.6698 0.126143 47.5062 0.144326 47.3427C0.169327 47.1253 0.197738 46.908 0.228421 46.6918C0.25115 46.5294 0.273878 46.3681 0.300016 46.2079V46.2068C0.335245 45.9929 0.37502 45.7801 0.415931 45.5685V45.5662C0.446615 45.4072 0.477298 45.2482 0.511391 45.0904V45.0892C0.557655 44.8788 0.606905 44.6691 0.659126 44.4601C0.696628 44.3045 0.735266 44.1478 0.777314 43.9934V43.9911C0.832999 43.7852 0.892093 43.5827 0.95346 43.3803L0.954596 43.3757C1.00005 43.2224 1.04551 43.068 1.09438 42.917L1.09551 42.9136C1.16029 42.7134 1.22961 42.5155 1.30007 42.3176L1.30234 42.3119C1.35575 42.1621 1.40803 42.0122 1.46485 41.8635L1.46599 41.8601C1.53985 41.6645 1.61827 41.4723 1.69668 41.2801L1.70009 41.2721C1.76032 41.1257 1.82055 40.9781 1.88305 40.8329L1.88533 40.8294C1.97045 40.6377 2.05796 40.447 2.14784 40.2575C2.21489 40.1145 2.2808 39.9704 2.35126 39.8297L2.35353 39.8251C2.44445 39.641 2.53991 39.4602 2.6365 39.2795L2.64219 39.2681C2.71605 39.1296 2.78878 38.9889 2.86606 38.8517L2.86833 38.8471C2.9672 38.6698 3.07175 38.4948 3.17517 38.3198L3.18312 38.3072C3.26381 38.1722 3.34336 38.0361 3.42632 37.9023L3.42973 37.8977C3.53655 37.7261 3.64792 37.558 3.75929 37.3898L3.76838 37.3749C3.85589 37.2445 3.94112 37.113 4.0309 36.9837L4.0343 36.978C4.14795 36.8133 4.26727 36.652 4.38546 36.4896L4.39796 36.4736C4.49115 36.3466 4.58206 36.2196 4.67752 36.0949L4.68207 36.0892C4.80253 35.9314 4.92867 35.7769 5.05481 35.6214L5.06845 35.6042C5.16732 35.4818 5.26505 35.3594 5.36619 35.2393C5.36736 35.2372 5.3689 35.2352 5.37074 35.2336C5.49802 35.0826 5.63098 34.9339 5.76281 34.7864L5.77985 34.7681C5.8844 34.6502 5.98668 34.5324 6.09351 34.4169L6.09919 34.4123C6.23328 34.267 6.37307 34.1263 6.51057 33.9856L6.52989 33.9662C6.64012 33.8541 6.74809 33.7409 6.86059 33.631C6.86243 33.6294 6.86397 33.6275 6.86514 33.6253L6.90605 33.5841L6.86741 33.6242C6.98901 33.5052 7.11515 33.3908 7.23902 33.2742C7.13674 33.3702 7.03106 33.4629 6.92991 33.5601C7.04924 33.4446 7.17424 33.3336 7.29584 33.2204L7.31743 33.2009C7.43335 33.0934 7.54699 32.9848 7.66404 32.8807L7.66972 32.8761L7.72996 32.82L7.66972 32.8761C7.79587 32.7628 7.92769 32.6553 8.05725 32.5444C7.94815 32.637 7.83678 32.7251 7.72996 32.82C7.85724 32.7079 7.98906 32.6016 8.11748 32.4929C8.12558 32.4857 8.13392 32.4789 8.14248 32.4723C8.2618 32.3716 8.37999 32.2687 8.50159 32.1703L8.50727 32.1657L8.56636 32.1166L8.50841 32.1646C8.64023 32.0582 8.77547 31.9564 8.90956 31.8535C8.79592 31.9415 8.67887 32.0262 8.56636 32.1166C8.69932 32.009 8.83797 31.9072 8.97434 31.8031L9.00048 31.7825C9.12548 31.6876 9.24708 31.5915 9.37322 31.4989L9.37777 31.4954L9.43573 31.452L9.38118 31.4931C9.51869 31.3925 9.65847 31.2975 9.79711 31.2003C9.67779 31.285 9.55392 31.365 9.43573 31.452C9.57551 31.349 9.72097 31.2529 9.86416 31.1546L9.89371 31.134C10.021 31.0447 10.1471 30.9544 10.2767 30.8686L10.2812 30.8652L10.3369 30.8274L10.2869 30.8617C10.429 30.7679 10.5756 30.6798 10.7188 30.5883C10.5926 30.6684 10.4619 30.745 10.3369 30.8274C10.4846 30.7302 10.6358 30.6398 10.7858 30.546L10.8188 30.5266C10.9494 30.4442 11.079 30.3596 11.212 30.2806L11.2165 30.2783C11.2339 30.2666 11.2517 30.2556 11.2699 30.2452L11.2245 30.2738C11.3722 30.1857 11.5233 30.1033 11.6733 30.0187C11.5392 30.0942 11.4017 30.1662 11.2699 30.2452C11.4233 30.1537 11.5824 30.069 11.7381 29.9821L11.7745 29.9615C11.9086 29.8871 12.0404 29.8094 12.1756 29.7361C12.1773 29.7358 12.1789 29.735 12.1802 29.7339L12.2313 29.7064L12.1904 29.7293C12.345 29.6469 12.5041 29.5703 12.6598 29.4914C12.5177 29.5634 12.3722 29.6309 12.2313 29.7064C12.3927 29.6206 12.5575 29.5428 12.72 29.4605C12.7336 29.4547 12.7469 29.4482 12.7598 29.441C12.8961 29.3735 13.0302 29.3026 13.1689 29.2374L13.1723 29.2351L13.2212 29.2111L13.1859 29.2294C13.3484 29.1528 13.5144 29.0819 13.6791 29.0086C13.5269 29.0773 13.3723 29.1402 13.2212 29.2111C13.3893 29.1322 13.5609 29.0613 13.7314 28.9858L13.7746 28.9663C13.9121 28.9057 14.0485 28.8416 14.1883 28.7844L14.1917 28.7822C14.207 28.7762 14.2222 28.7697 14.2371 28.7627L14.2076 28.7764C14.3803 28.7044 14.5565 28.6403 14.7315 28.5728C14.5667 28.6357 14.4008 28.6964 14.2371 28.7627C14.4121 28.6906 14.5917 28.6266 14.769 28.558L14.8178 28.5397C14.9565 28.4859 15.0928 28.4298 15.2338 28.3784H15.236C15.2502 28.3723 15.2646 28.367 15.2792 28.3624L15.2542 28.3715C15.4417 28.304 15.6338 28.2445 15.8236 28.1816C15.6417 28.2422 15.4588 28.2983 15.2792 28.3624C15.4622 28.2972 15.6486 28.24 15.8327 28.1782L15.8895 28.1599C16.0281 28.1141 16.1634 28.0649 16.302 28.0226H16.3043L16.344 28.01L16.3247 28.0169C16.5225 27.9563 16.7236 27.9037 16.9225 27.8488L16.8918 27.8579L16.9714 27.835L17.0407 27.8156C17.1589 27.7836 17.2748 27.7481 17.3941 27.7172H17.3952L17.4305 27.7081L17.4191 27.7115C17.6237 27.66 17.8316 27.6165 18.0385 27.5708L17.9657 27.5868C18.0703 27.5628 18.1737 27.5376 18.2794 27.5159L18.3794 27.493C18.4226 27.4839 18.4646 27.4724 18.5067 27.4644L18.5078 27.4633L18.5385 27.4587L18.5339 27.4598C18.7476 27.4164 18.9646 27.3821 19.1817 27.3455L19.0658 27.3649C19.259 27.3317 19.4499 27.2928 19.6431 27.2642L19.6442 27.2631L19.6635 27.2608H19.6681C19.8408 27.2345 20.017 27.2173 20.1908 27.1945C20.0738 27.2093 19.9545 27.2231 19.8374 27.2391C20.0102 27.215 20.1852 27.1945 20.359 27.1739L20.1908 27.1945C20.392 27.1693 20.592 27.1396 20.7954 27.119H20.7966L20.8204 27.1167H20.8216C20.9932 27.0995 21.167 27.0904 21.3398 27.0778L21.1704 27.0904C21.3136 27.0789 21.4557 27.0675 21.5989 27.0583L21.3398 27.0778C21.5477 27.0618 21.7546 27.0412 21.9637 27.0309H21.9648L21.9909 27.0297C22.1637 27.0206 22.3387 27.0206 22.5114 27.016L22.4148 27.0183C22.6682 27.0103 22.9205 27 23.1762 27C35.9769 27 46.3525 37.2388 46.3525 49.8718C46.3525 50.255 46.3411 50.6359 46.3229 51.0145C46.3161 51.1403 46.3036 51.265 46.2956 51.3897ZM9.73006 57.188C9.90621 57.9544 10.6824 58.4348 11.4597 58.2587C19.526 56.4399 26.3764 57.1811 31.8176 60.464C32.4995 60.8736 33.3893 60.6642 33.8052 59.9882C33.9039 59.8286 33.9698 59.6507 33.9991 59.4651C34.0284 59.2794 34.0204 59.0897 33.9757 58.9072C33.931 58.7247 33.8505 58.5531 33.7388 58.4024C33.6272 58.2517 33.4867 58.125 33.3256 58.0299C27.2162 54.3443 19.6442 53.4876 10.8153 55.4802C10.6319 55.519 10.4579 55.5943 10.3036 55.7015C10.1493 55.8088 10.0178 55.9459 9.9168 56.1049C9.81576 56.2639 9.74721 56.4416 9.71515 56.6275C9.68308 56.8135 9.68816 57.004 9.73006 57.188ZM8.80501 50.4952C9.09594 51.4366 10.1051 51.9673 11.062 51.6825C18.4305 49.476 27.9276 50.5695 34.1552 54.3489C35.0041 54.8625 36.1178 54.6005 36.6406 53.7632C36.7644 53.5637 36.8474 53.3413 36.8846 53.109C36.9218 52.8767 36.9125 52.6393 36.8572 52.4107C36.802 52.1821 36.7018 51.9669 36.5628 51.7778C36.4237 51.5888 36.2485 51.4296 36.0474 51.3096C28.8924 46.9732 18.4294 45.7504 10.0108 48.2715C9.78578 48.3366 9.57588 48.446 9.39321 48.5934C9.21053 48.7407 9.05873 48.9231 8.94658 49.1299C8.83443 49.3367 8.76417 49.5639 8.73987 49.7983C8.71557 50.0326 8.73771 50.2695 8.80501 50.4952V50.4952ZM39.0975 43.5965C30.4971 38.5577 16.8884 38.0841 8.7016 40.5378C8.43158 40.6156 8.17964 40.7467 7.96042 40.9234C7.7412 41.1001 7.55909 41.319 7.42468 41.5672C7.29027 41.8154 7.20625 42.0881 7.17749 42.3693C7.14874 42.6505 7.17584 42.9347 7.2572 43.2053C7.60381 44.3366 8.8141 44.9737 9.96076 44.6305C17.0918 42.4949 29.4141 42.8987 36.886 47.2763C37.3802 47.5666 37.9675 47.6508 38.5225 47.5107C39.0774 47.3707 39.5559 47.0177 39.8555 46.5271C40.0006 46.2855 40.0962 46.0172 40.1365 45.7379C40.1769 45.4586 40.1613 45.174 40.0907 44.9008C40.02 44.6277 39.8958 44.3716 39.7252 44.1475C39.5546 43.9235 39.3412 43.7361 39.0975 43.5965V43.5965ZM23.1149 27H23.1762C22.9535 27 22.733 27.0103 22.5114 27.016C22.7126 27.0103 22.9126 27 23.1149 27V27ZM122.394 45.6875C122.539 45.6875 122.657 45.803 122.657 45.9471V61.3723C122.656 61.4419 122.628 61.5084 122.579 61.5572C122.53 61.6061 122.463 61.6334 122.394 61.6331H118.811C118.742 61.6334 118.675 61.6061 118.626 61.5572C118.577 61.5084 118.549 61.4419 118.548 61.3723V45.9471C118.548 45.803 118.667 45.6875 118.811 45.6875H122.394ZM147.727 56.7373C149.006 56.7373 150 57.7645 150 59.0113C149.998 59.6197 149.757 60.2026 149.329 60.6318C148.9 61.061 148.32 61.3014 147.716 61.3002C147.418 61.3023 147.122 61.245 146.846 61.1315C146.57 61.018 146.319 60.8506 146.108 60.639C145.896 60.4274 145.728 60.1757 145.614 59.8985C145.5 59.6213 145.441 59.324 145.442 59.0239C145.442 57.7759 146.45 56.7373 147.727 56.7373V56.7373ZM147.716 61.0714C147.985 61.074 148.253 61.0225 148.502 60.9199C148.752 60.8173 148.978 60.6657 149.169 60.4738C149.359 60.282 149.51 60.0539 149.612 59.8028C149.714 59.5516 149.765 59.2826 149.762 59.0113C149.766 58.7415 149.715 58.4738 149.614 58.2239C149.513 57.974 149.363 57.747 149.173 57.5563C148.983 57.3655 148.758 57.2148 148.51 57.1131C148.261 57.0113 147.995 56.9606 147.727 56.9638C146.563 56.9638 145.682 57.8892 145.682 59.0239C145.682 60.1586 146.557 61.0714 147.716 61.0714V61.0714ZM148.785 58.5206C148.785 58.9107 148.559 59.1509 148.231 59.2458L148.874 60.146H148.332L147.753 59.319H147.256V60.146H146.801V57.7588H147.866C148.42 57.7588 148.785 58.0425 148.785 58.5206V58.5206ZM147.256 58.1671V58.9232H147.848C148.143 58.9232 148.319 58.7791 148.319 58.5446C148.319 58.2998 148.143 58.1671 147.848 58.1671H147.256V58.1671Z" fill="#00D150"/>
</svg>
