<svg width="150" height="100" viewBox="0 0 150 100" fill="none" xmlns="http://www.w3.org/2000/svg">
<path d="M28.593 39.3715C19.975 39.3715 13 46.2758 13 54.8063C13 63.3369 19.975 70.2411 28.593 70.2411C37.211 70.2411 44.186 63.3369 44.186 54.8063C44.186 46.2758 37.211 39.3715 28.593 39.3715ZM28.593 62.5391C24.284 62.5391 20.781 59.0716 20.781 54.8063C20.781 50.541 24.284 47.0736 28.593 47.0736C32.902 47.0736 36.405 50.541 36.405 54.8063C36.405 59.0716 32.902 62.5391 28.593 62.5391Z" fill="#007DC1"/>
<path d="M55.9971 59.9922C55.9971 58.7648 57.4851 58.1817 58.3531 59.0409C62.2591 62.9687 68.7071 69.7195 68.7381 69.7502C68.8311 69.8422 68.9241 69.9956 69.2961 70.1184C69.4511 70.1798 69.6991 70.1798 69.9781 70.1798H77.0151C78.2861 70.1798 78.6581 68.7375 78.0691 68.0011L66.4131 56.1872L65.7931 55.5735C64.4601 54.0085 64.6151 53.3948 66.1341 51.7992L75.3721 41.5809C75.9611 40.8444 75.5891 39.4329 74.2871 39.4329H67.9011C67.6531 39.4329 67.4671 39.4329 67.2811 39.4943C66.9091 39.617 66.7541 39.7398 66.6611 39.8625C66.6301 39.8932 61.5151 45.3552 58.3531 48.6999C57.4851 49.6205 55.9351 49.0068 55.9351 47.7487V30.2273C55.9351 29.3374 55.1911 28.9998 54.6021 28.9998H49.3941C48.4951 28.9998 48.0611 29.5829 48.0611 30.1045V68.9523C48.0611 69.8422 48.8051 70.0877 49.4251 70.0877H54.6331C55.4391 70.0877 55.9661 69.5047 55.9661 68.9217V68.5227V59.9922H55.9971Z" fill="#007DC1"/>
<path d="M98.5292 68.7682L97.9712 63.6131C97.9092 62.9073 97.2272 62.4163 96.5142 62.5391C96.1112 62.6004 95.7082 62.6311 95.3052 62.6311C91.1512 62.6311 87.7722 59.4092 87.5242 55.328C87.5242 55.2052 87.5242 55.0518 87.5242 54.8984V48.5772C87.5242 47.7487 88.1442 47.0736 88.9812 47.0736H95.9562C96.4522 47.0736 97.1962 46.644 97.1962 45.7541V40.8751C97.1962 39.9239 96.5762 39.4329 96.0182 39.4329H88.9812C88.1752 39.4329 87.5242 38.8499 87.4932 38.0521V30.2273C87.4932 29.7363 87.1212 28.9998 86.1602 28.9998H80.9832C80.3322 28.9998 79.7122 29.3988 79.7122 30.1966C79.7122 30.1966 79.7122 55.2052 79.7122 55.328C79.9292 63.6744 86.8422 70.3332 95.3052 70.3332C96.0182 70.3332 96.7002 70.2718 97.3822 70.1798C98.1262 70.0877 98.6222 69.474 98.5292 68.7682Z" fill="#007DC1"/>
<path d="M136.101 62.2936C131.699 62.2936 131.017 60.7286 131.017 54.8677C131.017 54.837 131.017 54.837 131.017 54.8063V40.7217C131.017 40.2307 130.645 39.4022 129.653 39.4022H124.445C123.794 39.4022 123.081 39.9239 123.081 40.7217V41.3661C120.818 40.0773 118.183 39.3409 115.393 39.3409C106.775 39.3409 99.8 46.2451 99.8 54.7756C99.8 63.3062 106.775 70.2104 115.393 70.2104C119.268 70.2104 122.802 68.7989 125.53 66.4975C126.987 68.7069 129.343 70.1798 133.032 70.2104C133.652 70.2104 137 70.3332 137 68.7682V63.2755C137 62.8152 136.628 62.2936 136.101 62.2936ZM115.424 62.5391C111.115 62.5391 107.612 59.0716 107.612 54.8063C107.612 50.541 111.115 47.0736 115.424 47.0736C119.733 47.0736 123.236 50.541 123.236 54.8063C123.205 59.0716 119.702 62.5391 115.424 62.5391Z" fill="#007DC1"/>
</svg>
