<svg width="150" height="101" viewBox="0 0 150 101" fill="none" xmlns="http://www.w3.org/2000/svg">
<path d="M69.2388 53.8628C75.3411 53.8628 78.4732 51.9557 78.4732 47.8541C78.4732 44.3134 75.8901 41.9576 70.2805 41.9576C63.4814 41.9576 60.7646 44.9795 60.1452 50.3922C59.1528 50.3291 58.0689 50.3081 56.5908 50.3011C56.5908 50.0066 56.5979 49.7121 56.5979 49.4106C56.5979 43.9208 54.3174 41.9366 48.2363 41.9366C45.2661 41.9366 42.6478 42.3783 41.0501 43.0234L41.2894 47.4054C42.683 46.6692 44.7593 45.9611 46.73 45.9611C49.5102 45.9611 50.3548 47.1039 50.3548 49.8453L50.3478 50.252C50.1577 50.245 49.6651 50.245 49.3976 50.245C42.4718 50.245 39.2623 52.3343 39.2623 56.2046C39.2623 60.194 41.2542 62.5428 46.9342 62.5428C49.9255 62.5428 52.8816 62.1221 56.6894 62.1221C56.4078 60.5235 56.4008 58.2238 56.4008 56.6463C56.4008 55.8119 56.443 54.8163 56.4853 53.6875C58.1111 53.7016 59.3076 53.7436 60.0959 53.7787C60.6872 60.187 64.0234 62.5568 70.9703 62.5568C73.5393 62.5568 76.1364 62.1221 77.4948 61.4911L77.2555 57.109C75.9042 57.8873 74.0249 58.5253 71.9627 58.5253C68.5491 58.5253 66.698 56.7515 66.698 53.9469V53.8137C67.3103 53.8418 68.5279 53.8628 69.2388 53.8628ZM48.4122 58.7146C46.3007 58.7146 45.3998 58.0135 45.3998 56.2537C45.3998 54.5569 46.547 53.5964 49.4328 53.5964C49.7002 53.5964 50.024 53.5894 50.2563 53.6104C50.2422 55.251 50.207 57.1651 50.2985 58.4973C49.7988 58.6305 49.0598 58.7146 48.4122 58.7146ZM66.6698 50.4764V50.3782C66.6698 47.6298 67.5426 45.6105 70.0764 45.6105C71.5122 45.6105 72.4342 46.3607 72.4342 47.7209C72.4342 49.635 71.1533 50.5254 68.4927 50.5254C67.8523 50.5254 67.1695 50.5184 66.6698 50.4764ZM90.9522 58.1677C88.9111 58.1677 88.3129 57.3614 88.3129 54.4097V46.7884H92.3388V42.5536H88.3762C88.3762 41.0532 88.4958 38.8376 88.6225 37.3162H84.8922C84.3995 41.0181 83.3226 42.9252 79.9301 43.4861C79.9161 44.4817 79.9724 45.8419 79.9301 46.7884H82.1895C82.1543 48.8918 82.0909 52.734 82.0909 56.2326C82.0909 60.6988 84.4136 62.5288 88.7774 62.5288C90.903 62.5288 92.4655 62.2203 92.9863 62.073L92.7189 57.719C92.3388 57.9784 91.5857 58.1677 90.9522 58.1677ZM133.422 49.4106C133.422 43.9208 131.141 41.9366 125.067 41.9366C122.09 41.9366 119.479 42.3783 117.881 43.0234L118.12 47.4054C119.514 46.6692 121.583 45.9611 123.561 45.9611C126.341 45.9611 127.186 47.1039 127.186 49.8453V50.252C126.989 50.245 126.503 50.245 126.236 50.245C119.303 50.245 116.1 52.3343 116.1 56.2046C116.1 60.194 118.092 62.5428 123.772 62.5428C126.764 62.5428 129.72 62.1221 133.52 62.1221C133.246 60.5235 133.239 58.2238 133.239 56.6463C133.232 54.8584 133.422 52.3484 133.422 49.4106ZM125.243 58.7146C123.125 58.7146 122.231 58.0135 122.231 56.2537C122.231 54.5569 123.378 53.5964 126.264 53.5964C126.524 53.5964 126.848 53.5894 127.08 53.6104C127.073 55.251 127.031 57.1651 127.13 58.4973C126.63 58.6305 125.884 58.7146 125.243 58.7146ZM113.56 52.9934C113.56 51.3387 113.595 49.1372 113.595 49.1372C113.595 44.1802 111.413 41.9576 105.24 41.9576C101.777 41.9576 99.3068 42.5606 95.4427 42.5606C95.6609 46.0382 95.668 50.3361 95.6539 53.0004C95.668 55.7068 95.5624 60.5586 95.4427 62.1221H102.073C101.918 60.5516 101.791 56.0433 101.805 53.0004C101.805 51.2686 101.827 49.1723 101.897 46.3607C102.559 46.1364 103.396 45.9681 104.304 45.9681C106.627 45.9681 107.373 47.0548 107.373 50.0346C107.373 50.0346 107.408 51.9067 107.408 53.0074C107.408 55.7138 107.317 60.5656 107.197 62.1291H113.827C113.672 60.5446 113.538 56.0363 113.56 52.9934ZM31.4356 41.0672C30.8162 40.4502 30.0068 40.1417 29.2045 40.1417C28.395 40.1417 27.5786 40.4502 26.9592 41.0742L23.2852 44.7411L19.6041 41.0742C18.9777 40.4432 18.1683 40.1347 17.3588 40.1347C16.5494 40.1347 15.74 40.4432 15.1206 41.0602L10.6442 45.5194C9.41251 46.7463 9.41251 48.7446 10.6513 49.9786L23.2781 62.5568L35.905 49.9786C37.1438 48.7516 37.1367 46.7534 35.905 45.5194L31.4356 41.0672ZM138.687 43.0794C138.687 42.4134 138.278 42.1329 137.483 42.1329H136.23V45.4142H136.772V44.0119H137.279L138.131 45.4142H138.743L137.821 43.9699C138.321 43.9208 138.687 43.6754 138.687 43.0794ZM136.772 43.5562V42.5957H137.427C137.75 42.5957 138.145 42.6447 138.145 43.0374C138.145 43.5141 137.786 43.5492 137.385 43.5492H136.772V43.5562ZM137.363 40.7587C135.787 40.7587 134.435 41.9436 134.435 43.7245C134.435 45.4142 135.653 46.6903 137.363 46.6903C138.926 46.6903 140.277 45.5124 140.277 43.7245C140.277 41.9366 138.926 40.7587 137.363 40.7587ZM137.363 46.1714C135.949 46.1714 135.069 45.0707 135.069 43.7245C135.069 42.2802 136.068 41.2775 137.363 41.2775C138.637 41.2775 139.637 42.2872 139.637 43.7245C139.637 45.1758 138.637 46.1714 137.363 46.1714Z" fill="#7D3F98"/>
</svg>
