<svg width="150" height="100" viewBox="0 0 150 100" fill="none" xmlns="http://www.w3.org/2000/svg">
<path d="M75 78C90.4641 78 103 65.4641 103 50C103 34.536 90.4641 22 75 22C59.536 22 47 34.536 47 50C47 65.4641 59.536 78 75 78Z" fill="#1AB4D7"/>
<path d="M60.4032 49.9192L65.1816 45.1289C65.34 44.9674 65.4284 44.7537 65.4284 44.527C65.4284 44.0545 65.0443 43.6708 64.5718 43.6708C64.3417 43.6708 64.1259 43.761 63.9632 43.9257C63.9627 43.9266 59.1891 48.6975 59.1891 48.6975L54.3936 43.9185C54.2315 43.7588 54.0168 43.6708 53.7892 43.6708C53.3172 43.6708 52.9331 44.0543 52.9331 44.5263C52.9331 44.7565 53.025 44.9726 53.19 45.1354L57.9677 49.9125L53.1924 54.6967C53.0246 54.862 52.9331 55.0785 52.9331 55.3098C52.9331 55.7822 53.3172 56.1654 53.7892 56.1654C54.0172 56.1654 54.2321 56.0769 54.3936 55.9154L59.1816 51.1338L63.9515 55.898C64.1207 56.0729 64.3389 56.166 64.5718 56.166C65.0438 56.166 65.4279 55.7822 65.4279 55.3098C65.4279 55.0819 65.3396 54.8677 65.1789 54.7063L60.4032 49.9192Z" fill="white"/>
<path d="M88.8103 49.9183C88.8103 50.7762 89.5079 51.4741 90.3668 51.4741C91.2238 51.4741 91.9217 50.7762 91.9217 49.9183C91.9217 49.0602 91.2238 48.3625 90.3668 48.3625C89.5079 48.3625 88.8103 49.0602 88.8103 49.9183Z" fill="white"/>
<path d="M85.8595 49.9177C85.8595 47.4333 87.8806 45.4119 90.3652 45.4119C92.8486 45.4119 94.8702 47.4333 94.8702 49.9177C94.8702 52.4015 92.8486 54.422 90.3652 54.422C87.8806 54.422 85.8595 52.4015 85.8595 49.9177V49.9177ZM84.0871 49.9177C84.0871 53.3788 86.9035 56.1948 90.3652 56.1948C93.8269 56.1948 96.6447 53.3788 96.6447 49.9177C96.6447 46.456 93.8269 43.6393 90.3652 43.6393C86.9035 43.6393 84.0871 46.456 84.0871 49.9177Z" fill="white"/>
<path d="M83.6412 43.7469L83.3778 43.7461C82.587 43.7461 81.8243 43.9955 81.1873 44.4864C81.1034 44.1023 80.7601 43.8133 80.3512 43.8133C79.8805 43.8133 79.5033 44.1904 79.5022 44.6621C79.5022 44.6638 79.505 55.2359 79.505 55.2359C79.5063 55.7067 79.8903 56.0894 80.3612 56.0894C80.8321 56.0894 81.216 55.7067 81.2173 55.2349C81.2173 55.2328 81.2176 48.7333 81.2176 48.7333C81.2176 46.5663 81.4158 45.6912 83.272 45.4592C83.4436 45.4379 83.6302 45.4412 83.631 45.4412C84.1389 45.4238 84.4998 45.0747 84.4998 44.603C84.4998 44.131 84.1145 43.7469 83.6412 43.7469" fill="white"/>
<path d="M67.202 48.8839C67.202 48.8604 67.2038 48.836 67.2049 48.8119C67.702 46.847 69.4816 45.393 71.6009 45.393C73.7459 45.393 75.5417 46.8827 76.0133 48.8839H67.202ZM77.7666 48.7222C77.3977 46.9754 76.4414 45.5406 74.9851 44.6192C72.8564 43.2677 70.0455 43.3425 67.9894 44.8046C66.3123 45.9978 65.3441 47.9496 65.3441 49.9601C65.3441 50.4642 65.4049 50.9731 65.5314 51.474C66.1647 53.9652 68.3063 55.8511 70.8597 56.1636C71.6174 56.2554 72.3549 56.2114 73.1186 56.0137C73.7748 55.854 74.4098 55.5879 74.9949 55.2129C75.6022 54.8226 76.1096 54.3078 76.6009 53.6915C76.6108 53.6802 76.6208 53.6702 76.6307 53.6583C76.9718 53.2353 76.9085 52.6339 76.5338 52.3467C76.2177 52.1045 75.6871 52.0063 75.2696 52.541C75.1798 52.6688 75.0797 52.8004 74.9695 52.9319C74.6375 53.2988 74.2256 53.6542 73.7321 53.9299C73.104 54.2654 72.3883 54.4571 71.6275 54.4614C69.1372 54.4337 67.8046 52.6954 67.3306 51.4546C67.2478 51.223 67.184 50.9826 67.1395 50.7351C67.1337 50.6888 67.1294 50.6442 67.1277 50.603C67.6426 50.603 76.0642 50.6016 76.0642 50.6016C77.2894 50.5759 77.9487 49.7111 77.7666 48.7222Z" fill="white"/>
</svg>
