<svg width="140" height="80" viewBox="0 0 140 80" fill="none" xmlns="http://www.w3.org/2000/svg">
<g clip-path="url(#clip0)">
<g clip-path="url(#clip1)">
<rect width="80" height="80.0003" fill="#EEEBEA"/>
<rect x="-8" y="26" width="56" height="62" stroke="#0D0E10" stroke-width="2"/>
<circle cx="21.5" cy="54.5" r="12.5" fill="#EC8D71"/>
<path d="M16 49.6415L22.9114 57L37 42" stroke="#0D0E10" stroke-width="2"/>
</g>
<path d="M82.6783 48.008C82.6783 44.408 80.5543 42.5 77.8182 41.456V41.42C80.1943 40.268 82.0662 38.432 82.0662 34.976C82.0662 30.692 78.5742 27.344 72.5262 27.344C66.2982 27.344 63.3462 31.232 62.6982 34.904L66.9102 35.84C67.3782 32.816 69.7542 31.304 72.5262 31.304C75.7302 31.304 77.4582 32.996 77.4582 35.444C77.4582 37.712 75.4422 39.656 72.5262 39.656H69.7542V43.652H72.7782C75.9462 43.652 78.0342 45.308 78.0342 48.08C78.0342 50.564 75.6942 52.328 72.7062 52.328C70.6182 52.328 67.2342 51.248 66.7302 47.468L62.4822 48.368C63.3462 53.984 68.2062 56.324 72.5982 56.324C78.6102 56.324 82.6783 52.364 82.6783 48.008ZM96.5704 56.324C102.294 56.324 106.938 53.192 106.938 48.152C106.938 45.272 105.462 42.752 101.574 41.348V41.312C104.454 40.376 106.218 38.108 106.218 35.048C106.218 30.152 101.466 27.416 96.5704 27.416C91.7464 27.416 86.9584 30.224 86.9584 35.048C86.9584 38.036 88.7224 40.484 91.6384 41.312V41.348C87.6064 42.824 86.2384 45.452 86.2384 48.332C86.2384 53.12 90.8464 56.324 96.5704 56.324ZM91.3504 35.48C91.3504 32.996 93.5104 31.232 96.5704 31.232C99.5584 31.232 101.826 32.996 101.826 35.48C101.826 37.928 99.5944 39.728 96.5704 39.728C93.7624 39.728 91.3504 37.964 91.3504 35.48ZM90.6664 47.972C90.6664 45.308 93.2224 43.508 96.5704 43.508C99.8104 43.508 102.546 45.38 102.546 47.972C102.546 50.6 99.8464 52.472 96.5704 52.472C93.2584 52.472 90.6664 50.492 90.6664 47.972ZM122.54 33.896C122.54 30.368 119.696 27.524 116.168 27.524C112.676 27.524 109.832 30.368 109.832 33.896C109.832 37.388 112.676 40.268 116.168 40.268C119.696 40.268 122.54 37.388 122.54 33.896ZM135.536 27.812H131.324L112.964 56H117.212L135.536 27.812ZM118.94 33.896C118.94 35.408 117.68 36.632 116.168 36.632C114.656 36.632 113.432 35.408 113.432 33.896C113.432 32.384 114.656 31.16 116.168 31.16C117.68 31.16 118.94 32.384 118.94 33.896ZM138.668 49.844C138.668 46.316 135.824 43.472 132.332 43.472C128.804 43.472 125.96 46.316 125.96 49.844C125.96 53.336 128.804 56.18 132.332 56.18C135.824 56.18 138.668 53.336 138.668 49.844ZM135.068 49.844C135.068 51.356 133.844 52.58 132.332 52.58C130.82 52.58 129.56 51.356 129.56 49.844C129.56 48.332 130.82 47.108 132.332 47.108C133.844 47.108 135.068 48.332 135.068 49.844Z" fill="#0D0E10"/>
</g>
<defs>
<clipPath id="clip0">
<rect width="140" height="80" fill="white"/>
</clipPath>
<clipPath id="clip1">
<rect width="80" height="80.0003" fill="white"/>
</clipPath>
</defs>
</svg>
